<?xml version="1.0" encoding="utf-8" ?>
<svg xmlns="http://www.w3.org/2000/svg" xmlns:xlink="http://www.w3.org/1999/xlink" width="1024" height="1024">
	<path fill="white" d="M0 0L1024 0L1024 1024L0 1024L0 0Z"/>
	<path d="M583.107 225.626C583.853 225.961 583.945 225.841 584.264 226.729C585.341 229.727 585.22 239.161 583.993 241.98C582.601 243.262 582.134 243.135 580.306 243.365C580.07 242.119 580.059 242.752 580.371 241.467C581.172 241.327 581.895 241.161 582.663 240.891C583.625 235.657 581.402 231.724 583.107 225.626Z"/>
	<path fill="#039" d="M101.498 940.667C105.697 940.672 110.469 940.28 114.537 941.353C115.399 942.419 115.487 942.664 115.717 944.02C115.201 945.325 115.253 945.334 114.019 945.984C110.854 946.079 103.873 947.064 101.043 945.457C99.7917 944.746 99.7796 944.352 99.4192 943.058C99.9146 941.482 100.073 941.554 101.498 940.667Z"/>
	<path d="M595.818 218.522C596.9 218.402 598.116 218.21 599.195 218.394C600.504 218.618 601.546 219.507 602.286 220.566C603.111 221.747 603.393 223.033 603.133 224.453C602.74 226.599 601.543 227.74 599.809 228.922C598.946 229.112 598.058 229.317 597.169 229.311C595.854 229.302 594.801 228.72 594.004 227.677C593.119 226.519 592.837 225.092 592.974 223.671C593.202 221.295 594.034 220.048 595.818 218.522Z"/>
	<path d="M560.908 217C561.053 217.006 561.198 217.006 561.342 217.018C563.327 217.191 565.037 217.577 566.278 219.262C567.115 220.397 567.531 221.727 567.311 223.145C566.955 225.43 565.615 226.795 563.765 228.021C562.581 228.061 561.175 228.202 560.05 227.777C558.867 227.331 557.809 226.203 557.24 225.087C556.573 223.781 556.537 222.347 556.988 220.964C557.675 218.861 559.083 218.017 560.908 217Z"/>
	<path d="M596.292 203.607C598.332 203.43 600.538 203.12 602.578 203.342C605.206 203.628 608.511 205.096 610.098 207.283C611.039 208.579 611.053 209.583 610.783 211.099C609.716 211.899 609.608 211.93 608.275 211.994C603.479 208.034 596.643 210.835 593.062 207.92C592.461 207.431 592.64 206.733 592.587 206.021C593.813 204.902 594.742 204.217 596.292 203.607Z"/>
	<path d="M558.385 201.579C558.704 201.556 559.022 201.528 559.34 201.509C563.612 201.258 567.618 201.809 570.929 204.804L570.884 206.062C569.176 207.337 567.413 207.695 565.319 207.634L559.596 207.494C556.977 207.94 554.54 209.011 551.95 209.444C550.755 209.644 550.689 209.768 549.667 209.031C549.48 207.8 549.534 207.039 550.066 205.928C551.293 203.363 555.845 202.397 558.385 201.579Z"/>
	<path fill="#101B4C" d="M915.278 942.565C920.309 942.571 935.455 941.082 938.884 943.867C939.404 945.477 939.091 945.808 938.559 947.367C933.068 947.701 927.313 947.775 921.809 947.702C919.452 947.67 916.647 947.684 914.912 945.888C914.549 944.354 914.779 944.015 915.278 942.565Z"/>
	<path fill="#BEB90A" d="M765.893 939.101C776.191 939.086 882.43 939.479 883.841 938.827C884.114 938.701 884.329 938.478 884.573 938.303C884.648 937.546 884.765 936.831 884.681 936.072L884.988 935.378C885.519 937.367 885.184 940.625 884.583 942.566C869.834 944.073 854.139 943.031 839.288 942.991C818.661 942.936 797.908 943.465 777.298 942.883C774.414 941.919 771.542 942.64 768.609 942.506C767.316 942.447 766.532 942.284 765.639 941.321L765.893 939.101Z"/>
	<path d="M509.73 251.377C520.615 266.359 532.499 278.399 550.183 285.358C547.877 292.193 545.967 299.262 543.497 306.02C523.947 294.217 515.325 272.468 509.73 251.377Z"/>
	<path fill="#FC0" d="M693.136 119.412C694.78 121.729 695.867 124.685 697.409 127.142C702.457 135.191 708.804 140.055 716.521 145.335C706.495 152.515 698.912 158.802 693.214 170.016C691.565 168.361 690.225 165.505 688.869 163.515C683.63 155.829 678.299 149.984 670.38 144.965C681.972 137.402 687.013 131.905 693.136 119.412Z"/>
	<path fill="#161F38" d="M588.49 942.197C596.732 942.952 605.394 942.42 613.691 942.373L653.979 942.365L740.338 942.568C752.662 942.615 764.973 943.017 777.298 942.883C797.908 943.465 818.661 942.936 839.288 942.991C854.139 943.031 869.834 944.073 884.583 942.566C889.564 942.499 898.578 941.38 902.667 944.537L902.554 945.699C900.066 946.992 897.523 947.385 894.747 947.493C877.173 948.175 859.265 947.445 841.664 947.438L727.61 947.328L646.822 947.313C628.057 947.368 608.573 948.081 589.89 946.526C589.611 945.002 589.051 943.633 588.49 942.197Z"/>
	<path fill="#039" d="M386.76 939.189C399.004 938.402 411.626 938.942 423.903 938.92L491.095 938.873L518.575 939C522.401 938.999 527.093 938.416 530.781 939.05C531.465 939.168 531.689 939.335 532.234 939.634C532.916 940.598 533.488 941.524 534.498 942.178C552.223 941.984 570.384 940.774 588.066 941.876L588.49 942.197C589.051 943.633 589.611 945.002 589.89 946.526L248.338 946.246L168.144 946.217L144.914 946.286C140.83 946.295 136.381 946.651 132.349 946.067C131.129 945.89 130.457 945.81 129.871 944.614C129.316 943.48 129.692 942.467 130.091 941.373C131.077 940.472 132.125 940.492 133.401 940.394C138.282 940.021 143.383 940.401 148.291 940.402L180.006 940.335C186.477 940.319 193.046 940.555 199.494 940.014L200.236 939.948C216.184 941.351 232.814 940.44 248.853 940.436C257.955 940.433 270.324 941.288 278.979 940.123C287.794 939.652 296.816 939.967 305.649 939.958L356.596 939.922C366.347 939.9 377.143 940.763 386.76 939.189Z"/>
	<path fill="#85B1ED" d="M746.616 338.208C750.962 326.097 757.336 317.707 769.258 312.171Q770.175 311.741 771.111 311.358Q772.048 310.974 773.003 310.637Q773.958 310.3 774.928 310.011Q775.898 309.722 776.882 309.482Q777.865 309.241 778.859 309.05Q779.853 308.859 780.856 308.717Q781.858 308.575 782.866 308.483Q783.875 308.391 784.886 308.35Q785.898 308.308 786.91 308.317Q787.922 308.325 788.933 308.384Q789.944 308.443 790.95 308.551Q791.957 308.66 792.957 308.819Q793.956 308.978 794.947 309.186Q795.938 309.394 796.917 309.651Q797.897 309.908 798.862 310.213Q799.827 310.518 800.776 310.871C811.059 314.704 819.879 322.594 824.375 332.661C826.355 337.095 827.381 341.796 827.98 346.596C832.25 342.8 836.566 341.01 842.379 341.307C848.307 341.609 853.728 344.168 857.627 348.662C860.453 351.918 863.045 356.878 862.548 361.322C862.337 363.209 861.565 364.779 860.006 365.925C859.273 366.464 858.253 366.755 857.395 366.993C853.817 365.586 792.339 367.876 780.767 366.612Q785.526 357.172 789.741 347.478L776.137 353.78L768.447 357.566C767.876 355.017 767.923 352.441 767.872 349.842C766.75 343.967 767.142 336.682 764.78 331.213L764.307 330.311C758.623 330.777 752.031 336.074 746.616 338.208Z"/>
	<path fill="#E0EBC4" d="M767.872 349.842C770.525 351.022 773.782 352.125 776.137 353.78L768.447 357.566C767.876 355.017 767.923 352.441 767.872 349.842Z"/>
	<path fill="#9ACA3C" d="M771.958 900.055C772.211 900.034 772.465 900.023 772.717 899.991C778.713 899.245 781.769 891.166 786.271 890.538C791.927 889.748 870.728 921.358 878.508 926.505C881.262 928.327 883.302 931.22 885.17 933.884C876.118 933.114 866.646 933.707 857.552 933.725Q833.568 933.604 809.584 933.801L780.576 933.964C775.695 933.993 770.476 933.668 765.647 934.274C765.351 935.963 765.625 937.421 765.893 939.101L765.639 941.321C766.532 942.284 767.316 942.447 768.609 942.506C771.542 942.64 774.414 941.919 777.298 942.883C764.973 943.017 752.662 942.615 740.338 942.568L653.979 942.365L613.691 942.373C605.394 942.42 596.732 942.952 588.49 942.197L588.066 941.876Q588.148 934.483 588.38 927.093C603.916 930.117 620.226 931.182 635.996 932.25C678.511 935.129 721.31 934.18 763.905 933.964C763.783 932.892 763.656 931.811 763.428 930.755C761.464 921.642 754.961 915.536 747.494 910.655C752.663 908.622 767.946 899.948 771.958 900.055Z"/>
	<path fill="#BEB90A" d="M766.528 185.2C774.637 185.275 781.674 187.221 788.168 192.2C800.022 201.289 802.734 214.098 804.528 228.1C806.095 224.774 807.778 221.725 810.607 219.283C814.37 216.036 819.014 214.834 823.919 215.293C829.196 215.786 834.236 218.331 837.57 222.487C839.948 225.451 841.468 229.304 840.883 233.14C840.289 237.04 838.105 239.124 835.068 241.389C828.637 242.372 821.542 241.804 815.035 241.77L780.196 241.624L731.768 241.703C723.979 241.716 715.846 242.245 708.1 241.67C706.297 241.535 704.503 241.271 702.858 240.483C700.149 239.185 698.245 236.891 697.282 234.062C695.754 229.576 696.582 224.469 698.682 220.307Q698.905 219.858 699.15 219.421Q699.394 218.985 699.66 218.56Q699.926 218.136 700.213 217.725Q700.5 217.315 700.807 216.919Q701.113 216.523 701.439 216.143Q701.765 215.762 702.11 215.399Q702.454 215.035 702.816 214.689Q703.178 214.343 703.557 214.015Q703.935 213.687 704.33 213.378Q704.724 213.07 705.133 212.781Q705.542 212.492 705.966 212.224Q706.389 211.956 706.824 211.709Q707.26 211.462 707.708 211.237Q708.155 211.012 708.613 210.81Q709.071 210.607 709.539 210.428Q710.006 210.248 710.482 210.092C717.538 207.824 723.711 210.011 729.993 213.164C731.782 207.593 734.309 202.559 738.195 198.145C745.578 189.76 755.571 185.849 766.528 185.2Z"/>
	<path fill="#094604" d="M209.472 871.404C213.723 868.893 218.967 868.641 223.751 868.481C225.848 868.902 227.899 869.18 230.028 869.37C230.417 870.197 230.337 870.525 231.228 870.892C237.313 873.403 270.618 871.125 281.116 872.976Q280.298 873.493 279.507 874.05Q278.716 874.606 277.953 875.201Q277.19 875.796 276.457 876.427Q275.724 877.059 275.023 877.726Q274.322 878.392 273.655 879.093Q272.988 879.793 272.355 880.525Q271.723 881.257 271.128 882.02Q270.532 882.782 269.974 883.573Q269.417 884.363 268.899 885.18Q268.381 885.997 267.904 886.839Q267.427 887.68 266.991 888.544Q266.556 889.408 266.163 890.292Q265.771 891.176 265.422 892.079Q265.073 892.981 264.769 893.899Q264.466 894.818 264.207 895.75Q263.948 896.682 263.736 897.626Q263.505 898.605 263.322 899.595Q263.14 900.585 263.007 901.583Q262.874 902.58 262.791 903.583Q262.708 904.586 262.674 905.592Q262.641 906.598 262.658 907.604Q262.675 908.61 262.742 909.615Q262.809 910.619 262.926 911.618Q263.042 912.618 263.209 913.61Q263.375 914.603 263.59 915.586Q263.806 916.569 264.07 917.54Q264.334 918.511 264.646 919.468Q264.958 920.425 265.318 921.365Q265.677 922.305 266.082 923.226Q266.488 924.147 266.939 925.047Q267.39 925.947 267.885 926.823Q268.38 927.699 268.918 928.55C271.667 932.888 275.164 936.701 278.979 940.123C270.324 941.288 257.955 940.433 248.853 940.436C232.814 940.44 216.184 941.351 200.236 939.948C198.898 939.241 197.551 938.527 196.267 937.723C188.567 932.899 182.917 924.281 180.898 915.506C178.739 906.126 180.186 896.23 185.393 888.098C191.087 879.206 199.247 873.693 209.472 871.404Z"/>
	<path d="M234.099 900.568C235.879 900.446 237.767 900.317 239.526 900.685C241.68 901.135 243.769 902.706 244.919 904.565Q245.145 904.935 245.333 905.325Q245.52 905.715 245.668 906.122Q245.816 906.529 245.923 906.949Q246.029 907.369 246.093 907.797Q246.157 908.225 246.178 908.658Q246.199 909.09 246.177 909.523Q246.155 909.955 246.09 910.383Q246.025 910.812 245.917 911.231C245.052 914.74 242.984 916.632 239.946 918.355C238.245 918.51 236.525 918.669 234.854 918.212Q234.375 918.078 233.911 917.897Q233.447 917.716 233.004 917.489Q232.56 917.263 232.142 916.993Q231.723 916.723 231.334 916.413Q230.944 916.103 230.588 915.756Q230.231 915.408 229.911 915.027Q229.591 914.646 229.311 914.234Q229.03 913.823 228.792 913.386Q228.565 912.969 228.385 912.53Q228.204 912.091 228.071 911.635Q227.938 911.179 227.855 910.712Q227.772 910.244 227.738 909.771Q227.705 909.297 227.723 908.822Q227.741 908.348 227.809 907.878Q227.877 907.408 227.995 906.948Q228.114 906.489 228.28 906.044C229.394 903.112 231.385 901.876 234.099 900.568Z"/>
	<path fill="#477B2F" d="M281.116 872.976C287.93 872.131 295.038 872.513 301.902 872.51L334.957 872.507L367.705 872.529C373.952 872.538 380.529 872.194 386.724 872.909C376.593 881.749 368.177 890.27 367.144 904.438Q367.087 905.307 367.073 906.177Q367.059 907.048 367.088 907.918Q367.117 908.789 367.19 909.656Q367.262 910.524 367.377 911.387Q367.493 912.25 367.651 913.107Q367.809 913.963 368.009 914.81Q368.209 915.658 368.451 916.494Q368.693 917.331 368.977 918.154Q369.26 918.978 369.584 919.786Q369.907 920.594 370.271 921.385Q370.634 922.177 371.037 922.949Q371.439 923.721 371.879 924.473Q372.319 925.224 372.796 925.953Q373.272 926.681 373.785 927.385Q374.297 928.089 374.844 928.767Q375.39 929.445 375.97 930.095C379.163 933.745 382.83 936.409 386.76 939.189C377.143 940.763 366.347 939.9 356.596 939.922L305.649 939.958C296.816 939.967 287.794 939.652 278.979 940.123C275.164 936.701 271.667 932.888 268.918 928.55Q268.38 927.699 267.885 926.823Q267.39 925.947 266.939 925.047Q266.488 924.147 266.082 923.226Q265.677 922.305 265.318 921.365Q264.958 920.425 264.646 919.468Q264.334 918.511 264.07 917.54Q263.806 916.569 263.59 915.586Q263.375 914.603 263.209 913.61Q263.042 912.618 262.926 911.618Q262.809 910.619 262.742 909.614Q262.675 908.61 262.658 907.604Q262.641 906.598 262.674 905.592Q262.708 904.586 262.791 903.583Q262.874 902.58 263.007 901.583Q263.14 900.585 263.322 899.595Q263.505 898.605 263.736 897.626Q263.948 896.682 264.207 895.75Q264.466 894.818 264.769 893.899Q265.073 892.981 265.422 892.079Q265.771 891.176 266.163 890.292Q266.556 889.408 266.991 888.544Q267.427 887.68 267.904 886.839Q268.381 885.997 268.899 885.18Q269.417 884.363 269.974 883.573Q270.532 882.782 271.128 882.02Q271.723 881.257 272.355 880.525Q272.988 879.793 273.655 879.093Q274.322 878.392 275.023 877.726Q275.724 877.059 276.457 876.427Q277.19 875.796 277.953 875.201Q278.716 874.606 279.507 874.05Q280.298 873.493 281.116 872.976Z"/>
	<path fill="#094604" d="M300.545 897.035C302.108 897.006 303.613 897.009 305.116 897.498C307.494 898.272 309.539 900.268 310.518 902.554Q310.711 903.004 310.857 903.47Q311.003 903.937 311.102 904.416Q311.201 904.895 311.25 905.381Q311.3 905.868 311.301 906.357Q311.301 906.846 311.253 907.332Q311.204 907.819 311.106 908.298Q311.009 908.777 310.863 909.244Q310.718 909.711 310.526 910.161C309.225 913.234 307.032 914.55 304.026 915.659C302.298 915.559 300.666 915.361 299.04 914.721C296.542 913.738 294.419 911.942 293.377 909.429Q293.218 909.036 293.101 908.628Q292.984 908.22 292.91 907.802Q292.835 907.385 292.805 906.961Q292.775 906.538 292.789 906.114Q292.803 905.69 292.861 905.27Q292.919 904.849 293.02 904.437Q293.122 904.025 293.266 903.626Q293.409 903.227 293.594 902.845C295.007 899.867 297.577 898.205 300.545 897.035Z"/>
	<path d="M522.809 127.134C529.332 116.919 538.976 109.851 550.864 107.207C565.407 103.973 581.14 107.679 593.571 115.637C604.333 122.528 614.073 132.626 619.844 144.078C621.33 147.027 623.372 153.639 625.748 155.706C626.758 156.585 628.323 156.937 629.603 156.763C632.454 156.375 634.412 153.638 636.021 151.545C639.39 157.992 640.435 164.401 638.172 171.471C635.798 178.888 630.548 184.335 623.669 187.716C613.47 192.729 602.015 192.066 591.489 188.453C574.499 182.619 557.149 170.119 545.305 156.635C546.91 173.699 546.598 187.005 535.019 200.889C531.684 204.888 527.646 208.246 523.276 211.059C522.012 205.265 520.575 199.941 515.123 196.635C511.893 194.677 507.788 194.21 504.174 195.264C499.939 196.499 496.513 199.707 494.606 203.64C492.452 208.083 492.236 213.669 494.024 218.271C495.617 222.373 498.996 225.573 503.021 227.266C504.127 227.731 505.27 228.106 506.414 228.466C502.449 234.576 497.549 239.524 492.959 245.099C481.847 222.09 469.946 192.862 472.291 166.991C473.503 153.623 480.544 140.401 490.992 131.924C498.308 125.988 507.58 123.516 516.898 124.498Q519.868 125.783 522.809 127.134Z"/>
	<path fill="#E0EBC4" d="M616.773 226.595C658.411 248.065 693.498 281.838 719.646 320.386Q725.29 328.711 730.284 337.44C731.531 339.641 732.53 342.319 733.882 344.393C725.188 349.489 716.778 354.541 708.723 360.609C703.802 364.537 697.807 370.147 695.196 376.001C694.157 377.544 692.599 380.864 690.898 381.57C690.058 380.867 689.899 380.504 689.44 379.541L686.301 379.395C683.279 373.688 679.546 368.751 675.375 363.832C655.697 345.684 630.657 337.78 605.231 331.484L604.918 331.415C601.363 326.515 574.529 317.256 567.006 314.373C560.811 311.194 554.005 309.011 547.457 306.659C547.594 313.362 547.843 319.929 546.634 326.559C544.93 319.922 545.196 312.824 543.497 306.02C545.967 299.262 547.877 292.193 550.183 285.358C563.082 288.738 574.066 289.591 586.018 282.507C603.239 272.3 611.21 250.294 615.726 231.757Q616.344 229.195 616.773 226.595Z"/>
	<path d="M675.375 363.832C675.275 362.744 674.851 362.067 674.364 361.112C674.042 360.923 673.732 360.63 673.359 360.618C674.115 360.964 674.681 361.093 675.509 361.153C675.689 361.166 675.871 361.174 676.052 361.184C681.837 366.424 685.775 372.717 689.44 379.541L686.301 379.395C683.279 373.688 679.546 368.751 675.375 363.832Z"/>
	<path fill="#101B4C" d="M605.231 331.484L605.509 330.602C608.096 330.176 611.934 331.473 614.516 332.059C632.758 336.2 652.963 343.513 668.237 354.434C670.559 356.094 674.466 358.795 676.052 361.184C675.871 361.174 675.689 361.166 675.509 361.153C674.681 361.093 674.115 360.964 673.359 360.618C673.732 360.63 674.042 360.923 674.364 361.112C674.851 362.067 675.275 362.744 675.375 363.832C655.697 345.684 630.657 337.78 605.231 331.484Z"/>
	<path fill="#FC0" d="M308.552 235.911C300.427 213.742 296.621 192.301 300.758 168.687Q300.994 167.298 301.265 165.916Q301.536 164.534 301.841 163.159Q302.146 161.784 302.485 160.416Q302.823 159.049 303.196 157.691Q303.569 156.332 303.975 154.984Q304.382 153.635 304.821 152.297Q305.261 150.959 305.733 149.632Q306.206 148.305 306.712 146.99Q307.217 145.676 307.755 144.374Q308.293 143.072 308.863 141.784Q309.433 140.496 310.035 139.222Q310.636 137.949 311.27 136.69Q311.903 135.432 312.567 134.19Q313.231 132.948 313.926 131.723Q314.621 130.497 315.346 129.29Q316.071 128.082 316.825 126.893Q317.58 125.704 318.364 124.533Q319.148 123.363 319.961 122.213Q320.773 121.062 321.614 119.932Q322.455 118.802 323.324 117.694Q324.193 116.585 325.089 115.498Q325.985 114.411 326.908 113.347Q327.83 112.283 328.779 111.242Q329.728 110.201 330.702 109.183Q331.677 108.166 332.676 107.174Q333.675 106.181 334.699 105.213Q335.722 104.246 336.77 103.304Q337.817 102.362 338.887 101.446Q339.957 100.53 341.05 99.6413Q342.143 98.7525 343.257 97.891Q344.371 97.0295 345.507 96.1959Q346.642 95.3623 347.798 94.5571C373.305 76.6879 405.014 70.982 435.459 76.4141C446.664 78.4134 458.717 82.2647 469.028 87.0959C485.306 94.7234 506.575 109.7 516.898 124.498C507.58 123.516 498.308 125.988 490.992 131.924C480.544 140.401 473.503 153.623 472.291 166.991C469.946 192.862 481.847 222.09 492.959 245.099C490.666 250.789 477.4 288.52 474.975 290.606C466.585 289.843 457.794 290.616 449.403 291.094C432.513 292.676 415.833 295.646 399.859 301.516C393.719 303.772 387.81 307.343 381.606 309.281C377.245 306.935 372.388 305.323 367.962 302.96C355.139 296.112 335.052 282.162 327.87 269.38Q361.917 269.654 395.95 270.677C412.976 271.208 430.421 272.451 447.432 271.691C447.047 269.633 446.546 267.38 445.74 265.436C444.257 261.862 441.484 258.777 437.86 257.328C433.233 255.479 429.188 256.67 424.921 258.638C424.219 254.325 423.113 250.728 420.471 247.169C417.058 242.571 411.904 239.256 406.178 238.552C400.107 237.807 394.745 239.678 390.019 243.375C389.346 240.418 388.603 237.493 387.603 234.627C383.881 223.961 376.363 215.797 366.183 210.97C356.106 206.19 345.86 205.268 335.344 209.155C321.785 214.167 314.405 223.109 308.552 235.911Z"/>
	<defs>
		<linearGradient id="gradient_0" gradientUnits="userSpaceOnUse" x1="202.23991" y1="839.93384" x2="66.20504" y2="527.1911">
			<stop offset="0" stop-color="#818805"/>
			<stop offset="1" stop-color="#FFE409"/>
		</linearGradient>
	</defs>
	<path fill="url(#gradient_0)" d="M54.0483 532.445L55.7443 532.237C61.2711 532.558 66.8039 532.95 72.3399 533.051L72.849 533.12C85.455 534.742 97.6081 535.32 110.107 538.148Q119.295 540.181 128.338 542.781C132.276 543.928 136.621 545.792 140.656 546.332L142.532 547.235C147.29 549.106 152.517 551.759 157.534 552.695C165.323 556.375 173.354 559.407 181.07 563.287C191.63 568.597 201.87 574.94 212.084 580.89C216.679 583.509 220.566 586.613 224.499 590.132C225.601 591.809 227.505 593.148 229.236 594.131C230.272 594.922 231.294 595.726 232.39 596.433C236.519 598.687 240.291 601.751 244.048 604.574C255.492 587.953 281.803 561.55 299.717 552.434C306.528 568.272 318.714 582.899 335.073 589.4C338.371 590.71 341.913 591.785 345.431 592.283C345.431 601.331 344.522 672.211 345.79 675.537C347.259 675.737 348.205 675.359 349.55 674.865C350.368 678.228 351.43 698.676 350.618 701.497L350.145 701.749C339.3 702.258 328.366 702.009 317.509 702.033C319.972 708.76 323.031 715.271 325.131 722.128C328.177 732.071 329.802 742.108 332.203 752.18C327.242 752.829 322.045 752.664 317.036 752.742Q302.047 752.912 287.058 752.829L284.41 752.948C276.424 752.786 252.385 751.783 246.342 754.992L245.028 755.401C239.275 759.354 234.822 763.512 233.407 770.719Q233.293 771.297 233.208 771.88Q233.123 772.463 233.068 773.05Q233.014 773.637 232.989 774.225Q232.964 774.814 232.97 775.403Q232.976 775.993 233.011 776.581Q233.047 777.169 233.113 777.754Q233.179 778.34 233.274 778.921Q233.37 779.503 233.495 780.078Q233.62 780.654 233.775 781.223Q233.93 781.792 234.113 782.351Q234.297 782.911 234.509 783.461Q234.721 784.011 234.961 784.549Q235.2 785.087 235.468 785.613Q235.735 786.138 236.028 786.649Q236.322 787.16 236.641 787.655Q236.961 788.15 237.305 788.628C240.542 793.203 244.845 796.119 249.788 798.529C241.969 800.25 231.823 798.225 224.663 800.725C223.583 801.245 222.49 801.855 221.374 802.285C211.333 809.724 202.514 817.657 200.651 830.754C200.505 831.779 200.435 832.814 200.378 833.848C200.475 836.648 200.413 839.533 200.977 842.283L201.703 844.953C206.047 856.407 213.11 862.727 223.751 868.481C218.967 868.641 213.723 868.893 209.472 871.404Q204.773 869.685 200.22 867.609Q195.667 865.533 191.287 863.112Q186.908 860.691 182.729 857.94Q178.549 855.188 174.594 852.123C168.973 849.144 163.268 844.191 158.27 840.211C125.601 814.201 97.2601 778.264 80.2162 740.088C55.4015 692.624 45.1529 634.268 48.0575 581.046C48.7125 569.044 49.8004 556.61 51.6254 544.735C52.2607 540.602 53.4362 536.57 54.0483 532.445Z"/>
	<path fill="#477B2F" d="M190.788 840.505C193.301 839.714 196.23 841.181 198.61 839.995C199.981 838.143 200.066 836.061 200.378 833.848C200.475 836.648 200.413 839.533 200.977 842.283Q195.851 841.574 190.788 840.505Z"/>
	<path d="M179.379 840.909C173.029 838.897 161.021 838.501 155.778 835.544C154.821 835.004 154.808 834.997 154.516 833.895C156.162 832.795 185.648 839.974 190.335 840.462L190.788 840.505Q195.851 841.574 200.977 842.283L201.703 844.953C194.279 843.553 186.851 842.029 179.379 840.909Z"/>
	<path d="M221.374 802.285C203.423 799.465 185.601 794.364 167.903 790.213L141.633 784.135C136.637 783.026 131.464 782.191 126.542 780.815C125.123 780.419 123.088 779.967 122.141 778.813C129.718 777.344 189.347 793.142 201.524 795.983Q213.022 798.702 224.663 800.725C223.583 801.245 222.49 801.855 221.374 802.285Z"/>
	<path d="M105.553 725.056C100.641 723.909 95.6315 722.734 90.8871 721.011L91.3054 720.499C95.0416 720.305 98.3378 721.016 101.969 721.819C115.028 725.011 128.205 727.756 141.299 730.808C158.189 734.745 175.011 738.939 191.934 742.74C201.97 744.993 225.626 748.702 233.843 752.704C234.091 752.825 234.342 752.938 234.59 753.058C234.739 753.13 234.887 753.206 235.035 753.28C221.604 752.41 207.846 748.49 194.718 745.614C164.918 739.084 135.372 731.51 105.553 725.056Z"/>
	<path fill="#477B2F" d="M174.594 852.123L174.677 851.343C169.242 846.068 162.002 842.041 156.129 837.131L156.061 837.205L156.903 838.049L156.549 837.078C163.932 837.805 171.334 840.273 178.706 841.479L179.379 840.909C186.851 842.029 194.279 843.553 201.703 844.953C206.047 856.407 213.11 862.727 223.751 868.481C218.967 868.641 213.723 868.893 209.472 871.404Q204.773 869.685 200.22 867.609Q195.667 865.533 191.287 863.112Q186.908 860.691 182.729 857.94Q178.549 855.188 174.594 852.123Z"/>
	<path d="M54.0483 532.445L55.7443 532.237Q92.8701 568.506 128.338 606.398C132.652 611.087 137.19 615.563 141.395 620.351C140.426 612.361 139.325 552.537 140.656 546.332L142.532 547.235C142.543 572.327 142.192 597.569 143.665 622.622C163.535 646.15 185.179 669.113 202.533 694.607C202.444 684.108 205.572 585.729 208.115 581.834C208.808 581.585 209.164 581.458 209.914 581.465C207.516 619.979 204.843 658.363 205.013 696.982C216.824 713.651 229.996 729.577 241.139 746.689C247.849 720.952 252.107 694.589 258.012 668.656C260.134 659.339 261.777 647.481 266.328 639.046C265.996 649.543 260.81 666.439 258.444 677.401C253.275 701.35 248.929 725.477 242.852 749.225C244.02 751.14 245.236 753.04 246.342 754.992L245.028 755.401C239.475 750.034 235.29 742.443 230.801 736.145C221.378 722.923 212.032 709.561 201.873 696.892C201.145 695.882 200.442 695.036 199.237 694.582C194.897 692.95 189.738 692.33 185.212 691.283C175.871 689.124 166.6 686.727 157.239 684.637C137.917 680.322 118.716 675.384 99.4334 670.878C89.6462 668.592 68.6016 664.995 60.879 660.222C70.469 660.516 88.2379 665.905 98.3352 668.303L164.608 683.951C175.685 686.566 186.663 689.692 197.834 691.888C191.097 681.46 182.506 671.603 174.56 662.08C164.473 649.99 154.343 637.832 143.654 626.268C123.994 622.058 104.244 617.205 84.7202 612.382C80.4001 611.315 76.0908 610.152 71.7499 609.178C69.1479 608.594 66.1799 608.314 63.6895 607.446C62.7168 607.107 62.1353 606.482 61.4807 605.724L61.6608 605.08C64.6469 604.377 131.629 621.318 140.711 623.569C134.974 616.381 128.407 609.82 122.119 603.114Q109.746 589.764 97.0425 576.728C89.6592 569.278 57.1052 538.878 54.0483 532.445Z"/>
	<path fill="#477B2F" d="M55.7443 532.237C61.2711 532.558 66.8039 532.95 72.3399 533.051L72.849 533.12C85.455 534.742 97.6081 535.32 110.107 538.148Q119.295 540.181 128.338 542.781C132.276 543.928 136.621 545.792 140.656 546.332C139.325 552.537 140.426 612.361 141.395 620.351C137.19 615.563 132.652 611.087 128.338 606.398Q92.8701 568.506 55.7443 532.237Z"/>
	<path fill="#477B2F" d="M142.532 547.235C147.29 549.106 152.517 551.759 157.534 552.695C165.323 556.375 173.354 559.407 181.07 563.287C191.63 568.597 201.87 574.94 212.084 580.89C216.679 583.509 220.566 586.613 224.499 590.132C225.601 591.809 227.505 593.148 229.236 594.131C230.272 594.922 231.294 595.726 232.39 596.433C236.519 598.687 240.291 601.751 244.048 604.574C255.492 587.953 281.803 561.55 299.717 552.434C306.528 568.272 318.714 582.899 335.073 589.4C338.371 590.71 341.913 591.785 345.431 592.283C345.431 601.331 344.522 672.211 345.79 675.537C347.259 675.737 348.205 675.359 349.55 674.865C350.368 678.228 351.43 698.676 350.618 701.497L350.145 701.749C339.3 702.258 328.366 702.009 317.509 702.033C319.972 708.76 323.031 715.271 325.131 722.128C328.177 732.071 329.802 742.108 332.203 752.18C327.242 752.829 322.045 752.664 317.036 752.742Q302.047 752.912 287.058 752.829L284.41 752.948C276.424 752.786 252.385 751.783 246.342 754.992C245.236 753.04 244.02 751.14 242.852 749.225C248.929 725.477 253.275 701.35 258.444 677.401C260.81 666.439 265.996 649.543 266.328 639.046C261.777 647.481 260.134 659.339 258.012 668.656C252.107 694.589 247.849 720.952 241.139 746.689C229.996 729.577 216.824 713.651 205.013 696.982C204.843 658.363 207.516 619.979 209.914 581.465C209.164 581.458 208.808 581.585 208.115 581.834C205.572 585.729 202.444 684.108 202.533 694.607C185.179 669.113 163.535 646.15 143.665 622.622C142.192 597.569 142.543 572.327 142.532 547.235Z"/>
	<path d="M244.048 604.574C255.492 587.953 281.803 561.55 299.717 552.434C306.528 568.272 318.714 582.899 335.073 589.4C338.371 590.71 341.913 591.785 345.431 592.283C345.431 601.331 344.522 672.211 345.79 675.537C347.259 675.737 348.205 675.359 349.55 674.865C350.368 678.228 351.43 698.676 350.618 701.497L350.145 701.749C339.3 702.258 328.366 702.009 317.509 702.033C319.972 708.76 323.031 715.271 325.131 722.128C328.177 732.071 329.802 742.108 332.203 752.18C327.242 752.829 322.045 752.664 317.036 752.742Q302.047 752.912 287.058 752.829L284.41 752.948C286.163 743.674 301.947 687.893 307.082 683.346L307.329 682.238C299.714 665.642 286.776 648.577 274.859 634.695C273.149 634.386 271.479 634.532 269.753 634.075C268.984 632.671 269.45 632.169 269.865 630.665C263.31 620.306 253.389 612.321 244.048 604.574Z"/>
	<path fill="#BEB90A" d="M269.865 630.665C274.585 619.027 280.01 607.43 292.205 602.157C295.894 600.562 302.377 598.871 306.216 600.825C307.396 601.426 307.992 602.526 308.269 603.768C309.263 608.221 306.978 613.198 304.485 616.758C297.653 626.516 286.331 632.417 274.859 634.695C273.149 634.386 271.479 634.532 269.753 634.075C268.984 632.671 269.45 632.169 269.865 630.665Z"/>
	<defs>
		<linearGradient id="gradient_1" gradientUnits="userSpaceOnUse" x1="330.55783" y1="750.94238" x2="286.35452" y2="706.5564">
			<stop offset="0" stop-color="#2D4A02"/>
			<stop offset="1" stop-color="#436207"/>
		</linearGradient>
	</defs>
	<path fill="url(#gradient_1)" d="M307.841 683.914L308.438 683.983C312.048 689.107 314.394 695.25 316.765 701.02C317.025 701.655 316.94 701.442 317.509 702.033C319.972 708.76 323.031 715.271 325.131 722.128C328.177 732.071 329.802 742.108 332.203 752.18C327.242 752.829 322.045 752.664 317.036 752.742Q302.047 752.912 287.058 752.829C291.858 730.022 299.848 705.894 307.841 683.914Z"/>
	<defs>
		<linearGradient id="gradient_2" gradientUnits="userSpaceOnUse" x1="297.93713" y1="554.28802" x2="133.14008" y2="255.63556">
			<stop offset="0" stop-color="#2C3F05"/>
			<stop offset="1" stop-color="#536A04"/>
		</linearGradient>
	</defs>
	<path fill="url(#gradient_2)" d="M192.657 306.836C192.108 287.276 186.399 263.881 188.342 244.647Q188.452 243.63 188.613 242.62Q188.773 241.61 188.984 240.609Q189.194 239.608 189.453 238.618Q189.713 237.629 190.021 236.653Q190.329 235.678 190.685 234.719Q191.041 233.76 191.444 232.82Q191.846 231.88 192.295 230.96Q192.744 230.041 193.238 229.145Q193.731 228.249 194.268 227.379Q194.806 226.509 195.385 225.666Q195.965 224.823 196.586 224.01Q197.206 223.197 197.866 222.415Q198.526 221.634 199.224 220.886Q199.922 220.138 200.656 219.426Q201.39 218.713 202.158 218.038Q202.926 217.363 203.727 216.726C212.255 209.842 223.753 206.867 234.588 208.155C245.335 209.434 255.525 215.363 262.165 223.883C272.369 236.974 272.232 252.579 270.347 268.242C285.086 268.545 299.828 268.379 314.568 268.737C318.517 268.833 324.131 268.308 327.87 269.38C335.052 282.162 355.139 296.112 367.962 302.96C372.388 305.323 377.245 306.935 381.606 309.281C356.698 322.311 339.302 340.695 325.719 365.016C322.592 370.616 319.396 376.323 316.962 382.264C314.761 388.791 312.078 395.14 309.937 401.69C304.335 418.834 297.824 445.148 296.691 462.938C296.04 466.649 295.076 470.645 295.1 474.427C293.047 491.965 293.367 509.752 294.592 527.331L294.79 529.511C295.835 537.3 296.97 545.022 299.717 552.434C281.803 561.55 255.492 587.953 244.048 604.574C240.291 601.751 236.519 598.687 232.39 596.433C231.294 595.726 230.272 594.922 229.236 594.131C227.505 593.148 225.601 591.809 224.499 590.132C220.566 586.613 216.679 583.509 212.084 580.89C201.87 574.94 191.63 568.597 181.07 563.287C173.354 559.407 165.323 556.375 157.534 552.695C152.517 551.759 147.29 549.106 142.532 547.235L140.656 546.332C136.621 545.792 132.276 543.928 128.338 542.781Q119.295 540.181 110.107 538.148C97.6081 535.32 85.455 534.742 72.849 533.12L72.3399 533.051C74.0459 533.06 75.9051 533.275 77.4491 532.452C78.5763 530.573 78.2264 528.455 78.3425 526.292C78.9595 514.796 80.6915 502.887 82.9052 491.583Q87.9152 466.049 95.8353 441.263Q97.7882 435.2 100.184 429.298C100.958 427.436 102.322 425.424 102.771 423.486C102.962 422.662 103.073 421.758 103.218 420.922C104.442 412.218 107.188 405.223 114.247 399.562C114.214 399.242 114.172 398.923 114.149 398.602C113.655 391.716 135.131 361.561 140.472 355.877C136.015 349.127 132.004 341.749 130.188 333.807C128.071 324.554 128.652 314.017 133.84 305.85C137.994 299.309 144.422 295.128 151.933 293.473C167.828 289.97 180.02 298.714 192.657 306.836Z"/>
	<path fill="#E0EBC4" d="M140.472 355.877C143.742 359.826 147.298 363.616 151.197 366.959C157.101 372.02 181.959 389.487 180.847 397.721C180.715 398.694 180.359 398.972 179.799 399.739C169.518 404.873 138.841 381.577 114.247 399.562C114.214 399.242 114.172 398.923 114.149 398.602C113.655 391.716 135.131 361.561 140.472 355.877Z"/>
	<path fill="#E0EBC4" d="M72.3399 533.051C74.0459 533.06 75.9051 533.275 77.4491 532.452C78.5763 530.573 78.2264 528.455 78.3425 526.292C78.9595 514.796 80.6915 502.887 82.9052 491.583Q87.9152 466.049 95.8353 441.263Q97.7882 435.2 100.184 429.298C100.958 427.436 102.322 425.424 102.771 423.486C102.962 422.662 103.073 421.758 103.218 420.922C104.349 434.371 106.834 443.05 117.457 452.083C121.95 455.904 142.134 467.783 142.627 472.574C142.734 473.614 142.356 474.477 141.532 475.125C140.202 476.17 137.809 476.459 136.201 476.843C127.067 479.025 120.821 483.388 118.199 492.854C115.421 502.887 117.431 515.166 122.702 524.067C128.771 534.316 139.982 540.904 149.692 547.309C152.216 548.974 155.364 550.603 157.534 552.695C152.517 551.759 147.29 549.106 142.532 547.235L140.656 546.332C136.621 545.792 132.276 543.928 128.338 542.781Q119.295 540.181 110.107 538.148C97.6081 535.32 85.455 534.742 72.849 533.12L72.3399 533.051Z"/>
	<path fill="#FC0" d="M224.068 389.053C224.274 376.052 223.895 271.286 225.595 267.434L226.458 267.229C227.531 267.894 227.747 268.044 228.033 269.388C228.542 271.79 228.042 275.335 228.046 277.836L228.241 297.438L228.954 363.242C229.051 372.47 228.843 381.737 229.138 390.958C233.694 385.86 237.464 379.846 242.182 374.981C249.922 363.708 258.789 352.916 267.494 342.376C270.739 338.447 273.939 333.811 277.861 330.583L279.054 330.426C279.104 331.829 278.452 332.611 277.653 333.754C272.618 340.955 266.177 347.542 260.701 354.457C254.535 362.242 248.862 371.086 242.183 378.366C238.186 384.537 233.481 390.217 229.531 396.426L229.39 451.739C233.698 443.065 239.349 435.02 244.722 426.983C248.617 421.157 252.38 415.125 256.539 409.489C257.519 407.693 258.316 405.82 259.986 404.57L260.782 404.672C261.089 406.105 260.783 407.162 260.013 408.372C259.266 409.544 258.451 410.677 257.645 411.809C252.046 421.034 245.86 429.894 240.165 439.06C236.659 444.703 233.583 451.235 229.426 456.378C229.359 483.445 229.069 510.625 229.485 537.684C236.59 527.444 279.263 473.414 286.564 470.065L287.11 470.452C286.741 471.875 286.069 472.872 285.191 474.046C281.356 479.178 276.517 483.929 272.294 488.778C263.613 498.746 255.05 508.74 246.836 519.099C240.598 526.965 234.635 535.044 229.455 543.655C229.449 560.332 229.226 577.041 229.52 593.714C230.92 593.375 231.866 592.347 232.858 591.356C239.514 584.697 245.643 577.38 252.064 570.481Q267.071 554.407 282.656 538.893C286.306 535.203 290.226 530.049 294.592 527.331L294.79 529.511C295.835 537.3 296.97 545.022 299.717 552.434C281.803 561.55 255.492 587.953 244.048 604.574C240.291 601.751 236.519 598.687 232.39 596.433C231.294 595.726 230.272 594.922 229.236 594.131C227.505 593.148 225.601 591.809 224.499 590.132L224.489 569.255C219.579 563.056 214.045 557.3 209.324 550.961C203.359 545.364 198.04 538.718 192.297 532.836L170.182 510.487C163.393 503.733 151.429 494.054 147.303 485.792C154.845 490.283 203.56 539.766 210.839 549.272C215.909 553.033 220.44 559.851 224.43 564.749L224.444 530.434C218.066 522.837 211.504 513.955 205.754 505.836C198.929 499.258 192.865 490.786 186.807 483.454Q172.866 466.74 158.624 450.281C155.643 446.593 152.149 443.658 150.339 439.151L150.645 438.46C154.55 440.228 158.514 446.436 161.249 449.787C172.848 462.414 183.881 475.745 194.784 488.973C198.867 493.926 203.829 498.946 207.332 504.287C211.707 507.502 220.618 519.898 224.294 524.732C224.758 501.652 223.919 478.515 224.09 455.422Q214.599 438.782 204.7 422.382C201.74 417.425 198.08 412.395 195.55 407.228C195.061 406.227 194.573 405.181 194.695 404.04C194.768 403.359 195.185 403.317 195.701 402.98L196.706 403.365C204.862 418.819 215.373 433.044 223.952 448.269C225.343 431.548 224.434 412.775 224.485 395.888C221.541 392.021 218.987 387.804 216.154 383.845C212.912 379.312 209.33 374.992 206.251 370.349C201.398 364.47 171.84 330.83 171.503 327.397L172.143 327.064C175.554 329.041 207.496 367.576 211.794 373.448C216.182 378.408 220.081 383.77 224.068 389.053Z"/>
	<path fill="#2D3F07" d="M294.79 529.511C295.835 537.3 296.97 545.022 299.717 552.434C281.803 561.55 255.492 587.953 244.048 604.574C240.291 601.751 236.519 598.687 232.39 596.433C237.141 590.402 242.66 584.71 247.854 579.047Q260.46 565.254 273.49 551.861C280.594 544.696 288.883 537.683 294.79 529.511Z"/>
	<path fill="#E0EBC4" d="M270.347 268.242C285.086 268.545 299.828 268.379 314.568 268.737C318.517 268.833 324.131 268.308 327.87 269.38C335.052 282.162 355.139 296.112 367.962 302.96C372.388 305.323 377.245 306.935 381.606 309.281C356.698 322.311 339.302 340.695 325.719 365.016C322.592 370.616 319.396 376.323 316.962 382.264C310.957 382.578 303.658 385.646 298.493 388.707C294.417 391.121 286.121 400.161 281.449 399.404C280.13 399.19 279.523 398.687 278.743 397.661C276.976 389.962 299.47 374.241 304.629 368.654C309.032 363.887 313.286 357.526 316.391 351.847C322.692 340.321 326.395 325.385 322.522 312.467C320.155 304.572 314.691 297.625 307.294 293.878C296.192 288.255 285.49 292.061 275.783 298.164C272.342 300.328 268.801 303.065 264.897 304.29L264.397 303.891C264.089 297.532 266.489 290.801 267.746 284.6Q269.346 276.469 270.347 268.242Z"/>
	<path fill="white" d="M372.779 751.009C376.662 749.593 449.844 750.193 459.018 750.543C461.036 750.621 462.992 750.798 464.901 751.494C465.613 752.372 465.696 752.531 465.616 753.73C465.562 754.541 465.185 755.125 464.79 755.808C464.394 756.009 464.026 756.277 463.577 756.299C458.579 762.118 456.876 768.141 457.435 775.726C457.751 780.022 458.807 784.001 460.488 787.96C462.698 790.139 465.072 791.317 467.833 792.663C473.732 792.573 482.89 789.453 489.02 788.002C519.355 780.822 550.766 773.12 579.083 759.835C584.424 757.329 589.559 754.277 594.701 751.386C594.176 756.357 591.114 777.792 593.322 780.905C591.948 795.526 590.285 810.319 589.937 825.004C594.635 825.235 599.326 825.486 604.031 825.488L650.558 825.874C658.446 825.957 666.487 825.744 674.353 826.223C673.59 837.918 670.968 849.433 668.735 860.916C667.893 865.244 667.4 870.365 665.909 874.471C675.422 874.611 684.58 878.237 694.018 878.559C694.27 878.568 694.522 878.585 694.774 878.59C697.523 878.644 699.493 876.945 702.512 876.987C706.097 876.83 709.618 876.948 713.2 877.127C714.143 882.33 713.769 888.271 713.989 893.579C725.239 899.22 736.46 904.563 747.494 910.655C754.961 915.536 761.464 921.642 763.428 930.755C763.656 931.811 763.783 932.892 763.905 933.964C721.31 934.18 678.511 935.129 635.996 932.25C620.226 931.182 603.916 930.117 588.38 927.093Q588.148 934.483 588.066 941.876C570.384 940.774 552.223 941.984 534.498 942.178C533.488 941.524 532.916 940.598 532.234 939.634C531.689 939.335 531.465 939.168 530.781 939.05C527.093 938.416 522.401 938.999 518.575 939L491.095 938.873L423.903 938.92C411.626 938.942 399.004 938.402 386.76 939.189C382.83 936.409 379.163 933.745 375.97 930.095Q375.39 929.445 374.844 928.767Q374.297 928.089 373.785 927.385Q373.272 926.681 372.796 925.953Q372.319 925.224 371.879 924.473Q371.439 923.721 371.037 922.949Q370.634 922.177 370.271 921.385Q369.907 920.594 369.584 919.786Q369.26 918.978 368.977 918.154Q368.693 917.331 368.451 916.494Q368.209 915.658 368.009 914.81Q367.809 913.963 367.651 913.107Q367.493 912.25 367.377 911.387Q367.262 910.524 367.19 909.656Q367.117 908.789 367.088 907.918Q367.059 907.048 367.073 906.177Q367.087 905.307 367.144 904.438C368.177 890.27 376.593 881.749 386.724 872.909C380.529 872.194 373.952 872.538 367.705 872.529L334.957 872.507L301.902 872.51C295.038 872.513 287.93 872.131 281.116 872.976C270.618 871.125 237.313 873.403 231.228 870.892C230.337 870.525 230.417 870.197 230.028 869.37C227.899 869.18 225.848 868.902 223.751 868.481C213.11 862.727 206.047 856.407 201.703 844.953L200.977 842.283C200.413 839.533 200.475 836.648 200.378 833.848C200.435 832.814 200.505 831.779 200.651 830.754C202.514 817.657 211.333 809.724 221.374 802.285C222.49 801.855 223.583 801.245 224.663 800.725C231.823 798.225 241.969 800.25 249.788 798.529C244.845 796.119 240.542 793.203 237.305 788.628Q236.961 788.15 236.641 787.655Q236.322 787.16 236.028 786.649Q235.735 786.138 235.468 785.613Q235.2 785.087 234.961 784.549Q234.721 784.011 234.509 783.461Q234.297 782.911 234.113 782.351Q233.93 781.792 233.775 781.223Q233.62 780.654 233.495 780.078Q233.37 779.503 233.274 778.921Q233.179 778.34 233.113 777.754Q233.047 777.169 233.011 776.581Q232.976 775.993 232.97 775.403Q232.964 774.814 232.989 774.225Q233.014 773.637 233.068 773.05Q233.123 772.463 233.208 771.88Q233.293 771.297 233.407 770.719C234.822 763.512 239.275 759.354 245.028 755.401L246.342 754.992C252.385 751.783 276.424 752.786 284.41 752.948L287.058 752.829Q302.047 752.912 317.036 752.742C322.045 752.664 327.242 752.829 332.203 752.18C340.735 750.727 367.789 753.185 372.779 751.009Z"/>
	<path fill="#9ACA3C" d="M604.031 825.488L650.558 825.874C658.446 825.957 666.487 825.744 674.353 826.223C673.59 837.918 670.968 849.433 668.735 860.916C667.893 865.244 667.4 870.365 665.909 874.471C665.905 876.154 665.731 877.65 666.668 879.13C672.714 880.109 679.655 883.889 685.341 886.261C704.333 894.182 728.779 903.612 745.823 914.999C749.68 917.576 752.964 920.526 755.618 924.362C756.395 925.485 757.067 926.439 756.926 927.858C752.757 930.565 643.854 926.727 632.485 926.045C617.977 925.175 603.313 923.652 588.875 921.943C589.201 919.158 589.574 916.4 589.556 913.59C591.526 903.306 588.472 876.886 596.062 870.012C598.279 868.005 600.62 867.864 603.47 868.097C604.203 864.46 603.893 860.379 603.868 856.668C603.8 846.51 602.792 835.56 604.031 825.488Z"/>
	<path fill="#FC0" d="M604.031 825.488L650.558 825.874C658.446 825.957 666.487 825.744 674.353 826.223C673.59 837.918 670.968 849.433 668.735 860.916C667.893 865.244 667.4 870.365 665.909 874.471C665.905 876.154 665.731 877.65 666.668 879.13C666.56 879.596 666.536 879.807 666.29 880.271C663.881 884.832 650.944 893.072 646.08 894.198C643.131 894.881 640.146 894.592 637.445 893.196C630.99 889.859 626.207 882.774 620.357 878.329C615.063 874.306 608.992 871.713 603.47 868.097C604.203 864.46 603.893 860.379 603.868 856.668C603.8 846.51 602.792 835.56 604.031 825.488Z"/>
	<path fill="#E0EBC4" d="M467.833 792.663C473.732 792.573 482.89 789.453 489.02 788.002C519.355 780.822 550.766 773.12 579.083 759.835C584.424 757.329 589.559 754.277 594.701 751.386C594.176 756.357 591.114 777.792 593.322 780.905C591.948 795.526 590.285 810.319 589.937 825.004C594.635 825.235 599.326 825.486 604.031 825.488C602.792 835.56 603.8 846.51 603.868 856.668C603.893 860.379 604.203 864.46 603.47 868.097C600.62 867.864 598.279 868.005 596.062 870.012C588.472 876.886 591.526 903.306 589.556 913.59C589.477 912.233 589.653 909.84 588.892 908.786Q569.126 917.79 548.895 925.693C541.326 928.654 533.442 931.219 526.108 934.716C520.972 917.016 521.451 891.704 525.598 873.566C526.812 873.358 527.891 873 529.054 872.608C529.921 871.526 530.003 871.467 530.072 870.093C527.09 867.075 507.471 868.033 502.406 867.982C502.828 866.928 502.973 866.968 502.71 865.789C496.498 864.327 485.117 865.729 478.038 865.139L477.353 865.079C481.577 864.66 486 864.952 490.248 864.985C489.615 859.086 488.335 853.277 487.842 847.348C486.607 832.493 488.448 817.669 490.674 803.001C485.067 803.071 479.423 803.281 473.825 802.911C482.088 802.156 490.999 803.626 499.101 802.411C500.581 802.189 500.991 801.606 501.854 800.467C501.875 799.599 502.085 799.563 501.585 799.045C498.597 795.951 474.741 797.915 469.447 797.938C469.249 795.987 469.321 794.727 467.846 793.357L467.833 792.663Z"/>
	<path fill="#E9532E" d="M372.779 751.009C376.662 749.593 449.844 750.193 459.018 750.543C461.036 750.621 462.992 750.798 464.901 751.494C465.613 752.372 465.696 752.531 465.616 753.73C465.562 754.541 465.185 755.125 464.79 755.808C464.394 756.009 464.026 756.277 463.577 756.299C458.579 762.118 456.876 768.141 457.435 775.726C457.751 780.022 458.807 784.001 460.488 787.96C462.698 790.139 465.072 791.317 467.833 792.663L467.846 793.357C469.321 794.727 469.249 795.987 469.447 797.938C474.741 797.915 498.597 795.951 501.585 799.045C502.085 799.563 501.875 799.599 501.854 800.467C500.991 801.606 500.581 802.189 499.101 802.411C490.999 803.626 482.088 802.156 473.825 802.911C479.423 803.281 485.067 803.071 490.674 803.001C488.448 817.669 486.607 832.493 487.842 847.348C488.335 853.277 489.615 859.086 490.248 864.985C486 864.952 481.577 864.66 477.353 865.079L478.038 865.139C485.117 865.729 496.498 864.327 502.71 865.789C502.973 866.968 502.828 866.928 502.406 867.982C507.471 868.033 527.09 867.075 530.072 870.093C530.003 871.467 529.921 871.526 529.054 872.608C527.891 873 526.812 873.358 525.598 873.566L447.264 873.099C427.111 873.078 406.865 873.495 386.724 872.909C380.529 872.194 373.952 872.538 367.705 872.529L334.957 872.507L301.902 872.51C295.038 872.513 287.93 872.131 281.116 872.976C270.618 871.125 237.313 873.403 231.228 870.892C230.337 870.525 230.417 870.197 230.028 869.37C227.899 869.18 225.848 868.902 223.751 868.481C213.11 862.727 206.047 856.407 201.703 844.953L200.977 842.283C200.413 839.533 200.475 836.648 200.378 833.848C200.435 832.814 200.505 831.779 200.651 830.754C202.514 817.657 211.333 809.724 221.374 802.285C222.49 801.855 223.583 801.245 224.663 800.725C231.823 798.225 241.969 800.25 249.788 798.529C244.845 796.119 240.542 793.203 237.305 788.628Q236.961 788.15 236.641 787.655Q236.322 787.16 236.028 786.649Q235.735 786.138 235.468 785.613Q235.2 785.087 234.961 784.549Q234.721 784.011 234.509 783.461Q234.297 782.911 234.113 782.351Q233.93 781.792 233.775 781.223Q233.62 780.654 233.495 780.078Q233.37 779.503 233.274 778.921Q233.179 778.34 233.113 777.754Q233.047 777.169 233.011 776.581Q232.976 775.993 232.97 775.403Q232.964 774.814 232.989 774.225Q233.014 773.637 233.068 773.05Q233.123 772.463 233.208 771.88Q233.293 771.297 233.407 770.719C234.822 763.512 239.275 759.354 245.028 755.401L246.342 754.992C252.385 751.783 276.424 752.786 284.41 752.948L287.058 752.829Q302.047 752.912 317.036 752.742C322.045 752.664 327.242 752.829 332.203 752.18C340.735 750.727 367.789 753.185 372.779 751.009Z"/>
	<path d="M289.143 827.603C290.954 820.164 294.313 807.312 301.27 802.903L301.635 803.36C300.812 807.098 297.823 810.885 296.127 814.364C293.909 818.913 292.484 823.685 291.407 828.613C289.939 840.565 290.87 851.802 298.517 861.588C300.554 864.194 302.959 866.491 305.315 868.803C304.073 868.998 303.264 868.834 302.056 868.577C299.749 866.712 297.562 864.685 295.82 862.271C288.422 852.019 287.213 839.75 289.143 827.603Z"/>
	<path d="M253.537 822.01C255.003 821.893 256.709 821.799 258.143 822.14C260.573 822.72 262.812 824.541 263.994 826.721C265.386 829.289 265.515 832.405 264.515 835.13C263.213 838.678 260.837 840.232 257.5 841.662C256.303 841.831 255.065 841.96 253.867 841.734C251.388 841.266 249.139 839.887 247.823 837.709C246.266 835.135 246.044 831.96 246.92 829.117C248.035 825.495 250.273 823.674 253.537 822.01Z"/>
	<path fill="#039" d="M502.406 867.982C507.471 868.033 527.09 867.075 530.072 870.093C530.003 871.467 529.921 871.526 529.054 872.608C527.891 873 526.812 873.358 525.598 873.566L447.264 873.099C427.111 873.078 406.865 873.495 386.724 872.909C380.529 872.194 373.952 872.538 367.705 872.529L334.957 872.507L301.902 872.51C295.038 872.513 287.93 872.131 281.116 872.976C270.618 871.125 237.313 873.403 231.228 870.892C230.337 870.525 230.417 870.197 230.028 869.37Q266.045 869.265 302.056 868.577C303.264 868.834 304.073 868.998 305.315 868.803C310.823 867.883 317.402 868.496 323.028 868.493L361.77 868.661C387.012 868.838 412.253 868.233 437.498 868.278C459.067 868.317 480.88 869.162 502.406 867.982Z"/>
	<path fill="white" d="M477.353 865.079C452.173 865.348 426.939 864.866 401.749 864.947C387.687 864.993 364.17 866.367 351.484 864.061C345.953 863.055 341.385 860.841 337.359 856.908C331.111 850.806 327.198 841.476 327.326 832.731C327.447 824.508 331.664 816.218 337.466 810.518C340.452 807.585 344.596 804.579 348.717 803.707C358.458 801.646 378.146 802.797 388.707 802.79L473.825 802.911C479.423 803.281 485.067 803.071 490.674 803.001C488.448 817.669 486.607 832.493 487.842 847.348C488.335 853.277 489.615 859.086 490.248 864.985C486 864.952 481.577 864.66 477.353 865.079Z"/>
	<path fill="white" d="M372.779 751.009C376.662 749.593 449.844 750.193 459.018 750.543C461.036 750.621 462.992 750.798 464.901 751.494C465.613 752.372 465.696 752.531 465.616 753.73C465.562 754.541 465.185 755.125 464.79 755.808C464.394 756.009 464.026 756.277 463.577 756.299C458.579 762.118 456.876 768.141 457.435 775.726C457.751 780.022 458.807 784.001 460.488 787.96C462.698 790.139 465.072 791.317 467.833 792.663L467.846 793.357C469.321 794.727 469.249 795.987 469.447 797.938L318.335 798.542L273.881 798.495C265.92 798.522 257.727 799.012 249.788 798.529C244.845 796.119 240.542 793.203 237.305 788.628Q236.961 788.15 236.641 787.655Q236.322 787.16 236.028 786.649Q235.735 786.138 235.468 785.613Q235.2 785.087 234.961 784.549Q234.721 784.011 234.509 783.461Q234.297 782.911 234.113 782.351Q233.93 781.792 233.775 781.223Q233.62 780.654 233.495 780.078Q233.37 779.503 233.274 778.921Q233.179 778.34 233.113 777.754Q233.047 777.169 233.011 776.581Q232.976 775.993 232.97 775.403Q232.964 774.814 232.989 774.225Q233.014 773.637 233.068 773.05Q233.123 772.463 233.208 771.88Q233.293 771.297 233.407 770.719C234.822 763.512 239.275 759.354 245.028 755.401L246.342 754.992C252.385 751.783 276.424 752.786 284.41 752.948L287.058 752.829Q302.047 752.912 317.036 752.742C322.045 752.664 327.242 752.829 332.203 752.18C340.735 750.727 367.789 753.185 372.779 751.009Z"/>
	<path fill="#E0EBC4" d="M328.326 757.44C335.809 755.945 344.673 756.142 352.317 755.979Q370.631 755.575 388.949 755.551C410.042 755.52 431.527 754.757 452.558 755.899C454.523 755.891 456.502 755.83 458.463 755.935L460.479 756.577L460.747 757.261C459.116 758.53 456.481 758.639 454.463 758.808C442.854 759.781 430.741 759.062 419.075 759.014C410.564 758.978 401.239 759.658 392.822 758.621C392.692 758.605 392.563 758.581 392.433 758.562C371.035 758.493 349.706 758.362 328.326 757.44Z"/>
	<path fill="#039" d="M372.779 751.009C376.662 749.593 449.844 750.193 459.018 750.543C461.036 750.621 462.992 750.798 464.901 751.494C465.613 752.372 465.696 752.531 465.616 753.73C465.562 754.541 465.185 755.125 464.79 755.808C464.394 756.009 464.026 756.277 463.577 756.299C461.893 756.082 460.159 756.043 458.463 755.935C456.502 755.83 454.523 755.891 452.558 755.899C431.527 754.757 410.042 755.52 388.949 755.551Q370.631 755.575 352.317 755.979C344.673 756.142 335.809 755.945 328.326 757.44C311.891 757.782 295.485 757.68 279.049 757.66C271.426 757.65 258.457 756.88 251.518 758.43C248.708 759.058 245.985 760.966 243.985 762.976C240.602 766.374 238.267 770.914 238.371 775.779Q238.383 776.254 238.42 776.727Q238.456 777.2 238.517 777.671Q238.577 778.142 238.662 778.609Q238.747 779.076 238.855 779.538Q238.964 780 239.096 780.456Q239.228 780.912 239.383 781.361Q239.538 781.809 239.716 782.25Q239.894 782.69 240.094 783.12Q240.294 783.55 240.517 783.97Q240.739 784.39 240.982 784.797Q241.225 785.205 241.489 785.599Q241.753 785.994 242.036 786.375Q242.32 786.755 242.623 787.121Q242.925 787.486 243.247 787.836Q243.568 788.186 243.906 788.518Q244.245 788.851 244.6 789.166C247.18 791.481 250.079 793.066 253.546 793.437C264.37 794.598 275.754 793.861 286.659 793.848L346.553 793.858L425.533 793.923C439.133 793.895 453.421 794.575 466.955 793.448Q467.402 793.415 467.846 793.357C469.321 794.727 469.249 795.987 469.447 797.938L318.335 798.542L273.881 798.495C265.92 798.522 257.727 799.012 249.788 798.529C244.845 796.119 240.542 793.203 237.305 788.628Q236.961 788.15 236.641 787.655Q236.322 787.16 236.028 786.649Q235.735 786.138 235.468 785.613Q235.2 785.087 234.961 784.549Q234.721 784.011 234.509 783.461Q234.297 782.911 234.113 782.351Q233.93 781.792 233.775 781.223Q233.62 780.654 233.495 780.078Q233.37 779.503 233.274 778.921Q233.179 778.34 233.113 777.754Q233.047 777.169 233.011 776.581Q232.976 775.993 232.97 775.403Q232.964 774.814 232.989 774.225Q233.014 773.637 233.068 773.05Q233.123 772.463 233.208 771.88Q233.293 771.297 233.407 770.719C234.822 763.512 239.275 759.354 245.028 755.401L246.342 754.992C252.385 751.783 276.424 752.786 284.41 752.948L287.058 752.829Q302.047 752.912 317.036 752.742C322.045 752.664 327.242 752.829 332.203 752.18C340.735 750.727 367.789 753.185 372.779 751.009Z"/>
	<path fill="#2C5CD3" d="M512.072 511.097C513.281 510.561 514.595 510.189 515.847 509.76C519.564 512.615 529.986 514.662 534.958 516.147Q566.465 525.505 597.709 535.707C603.308 537.541 611.541 539.289 616.477 542.171L619.706 544.383C626.566 544.697 633.403 544.405 640.269 544.934C644.634 541.706 649.317 537.803 654.394 535.796C665.804 535.537 676.704 536.086 687.574 539.89C705.754 546.877 721.673 557.439 729.801 575.85C734.707 586.964 735.444 599.466 734.16 611.42C733.776 614.997 732.614 619.017 732.554 622.538C729.317 632.903 727.09 643.893 724.433 654.448Q713.839 697.852 704.286 741.496C701.75 753.13 695.902 773.706 695.478 784.504C692.091 792.033 687.868 816.894 686.303 826.565C682.336 826.487 678.305 826.555 674.353 826.223C666.487 825.744 658.446 825.957 650.558 825.874L604.031 825.488C599.326 825.486 594.635 825.235 589.937 825.004C590.285 810.319 591.948 795.526 593.322 780.905C591.114 777.792 594.176 756.357 594.701 751.386C589.559 754.277 584.424 757.329 579.083 759.835C550.766 773.12 519.355 780.822 489.02 788.002C482.89 789.453 473.732 792.573 467.833 792.663C465.072 791.317 462.698 790.139 460.488 787.96C458.807 784.001 457.751 780.022 457.435 775.726C456.876 768.141 458.579 762.118 463.577 756.299C464.026 756.277 464.394 756.009 464.79 755.808C465.185 755.125 465.562 754.541 465.616 753.73C465.696 752.531 465.613 752.372 464.901 751.494C462.992 750.798 461.036 750.621 459.018 750.543C449.844 750.193 376.662 749.593 372.779 751.009C367.789 753.185 340.735 750.727 332.203 752.18C329.802 742.108 328.177 732.071 325.131 722.128C323.031 715.271 319.972 708.76 317.509 702.033C328.366 702.009 339.3 702.258 350.145 701.749L350.618 701.497C351.43 698.676 350.368 678.228 349.55 674.865L349.578 674.628C348.38 660.887 348.715 646.828 348.57 633.031C371.955 619.635 396.18 607.565 420.102 595.161L518.396 543.324C515.678 532.69 513.944 521.906 512.072 511.097Z"/>
	<path fill="white" d="M402.34 643.721C403.569 654.502 405.562 666.257 404.319 677.092C401.256 682.813 401.962 685.904 396.678 691.926C392.711 696.448 382.898 705.799 376.577 705.644C375.207 705.611 374.603 705.298 373.614 704.394C376.389 701.639 381.879 700.524 385.331 698.442C387.777 696.966 390.198 694.492 392.127 692.395C401.038 682.715 401.648 674.374 401.119 661.793C400.858 656.306 400.143 651.047 398.845 645.707C400.028 645.087 401.181 644.385 402.34 643.721Z"/>
	<path fill="#039" d="M411.925 638.369L417.793 635.209C418.663 638.072 419.184 640.832 419.613 643.789C415.828 647.266 412.16 649.413 407.105 650.561C409.129 656.469 409.465 669.937 406.631 675.633C406.221 676.457 405.803 676.858 404.99 677.311L404.319 677.092C405.562 666.257 403.569 654.502 402.34 643.721C403.322 642.955 404.452 642.386 405.532 641.767L410.029 639.397L411.925 638.369Z"/>
	<path fill="white" d="M602.794 693.885C604.329 684.704 610.172 643.277 614.155 638.299L615.177 637.956L615.841 638.377C616.383 641.456 611.897 658.969 611.019 664.237Q603.789 706.258 597.593 748.444C596.081 759.214 594.25 770.073 593.322 780.905C591.114 777.792 594.176 756.357 594.701 751.386C596.113 747.228 596.569 735.672 597.189 730.765C598.748 718.439 600.843 706.156 602.794 693.885Z"/>
	<path fill="#039" d="M398.845 645.707C400.143 651.047 400.858 656.306 401.119 661.793L398.638 664.224C388.365 673.917 375.148 683.502 363.24 691.071C362.119 691.713 361.35 692.256 360 692.134C357.66 689.935 356.322 674.554 355.876 670.752L359.87 668.382L363.732 666.098L365.47 665.104L366.019 664.855C370.057 660.849 383.026 654.599 388.541 651.665L394.567 648.115L398.845 645.707Z"/>
	<path fill="white" d="M619.501 610.991C620.584 611.067 621.588 611.402 622.138 612.405C622.874 613.749 623.063 617 623.346 618.581C625.084 628.277 628 636.946 635.33 643.876C633.255 655.753 629.654 667.446 627.269 679.289C622.932 700.831 619.676 722.811 616.077 744.504Q612.016 769.001 608.942 793.641C608.205 799.44 607.232 815.722 605.536 820.023C605.115 821.09 604.756 821.63 603.672 822.056L603.374 821.69C600.833 811.265 621.139 695.282 624.345 678.693C626.509 667.496 630.03 656.498 631.818 645.257C623.514 636.102 620.909 626.143 618.464 614.326C593.129 626.514 568.186 639.041 543.605 652.707C514.935 668.944 486.998 686.354 458.916 703.58C447.002 710.888 435.267 719.076 422.966 725.675C420.712 726.884 418.574 727.65 416.004 727.838C406.981 728.498 394.16 721.863 387.572 715.935C385.663 714.217 382.981 711.487 382.826 708.781C386.478 709.617 390.349 714.026 393.502 716.2Q397.733 719.083 402.347 721.302C407.519 723.791 412.953 726.11 418.64 724.08C425.963 721.467 433.087 715.848 439.666 711.676Q450.79 704.7 462.052 697.951C503.69 672.788 544.893 647.052 588.61 625.554C598.769 620.559 608.83 614.795 619.501 610.991Z"/>
	<path fill="#E0EBC4" d="M350.145 701.749C351.71 703.34 353.22 716.769 354.037 719.981C356.585 729.991 363.072 745.846 372.779 751.009C367.789 753.185 340.735 750.727 332.203 752.18C329.802 742.108 328.177 732.071 325.131 722.128C323.031 715.271 319.972 708.76 317.509 702.033C328.366 702.009 339.3 702.258 350.145 701.749Z"/>
	<path d="M460.488 787.96C485.29 779.766 511.069 770.122 532.657 755.147C549.222 743.656 564.238 729.181 579.006 715.51C582.674 712.114 600.366 694.087 602.137 693.269L602.794 693.885C600.843 706.156 598.748 718.439 597.189 730.765C596.569 735.672 596.113 747.228 594.701 751.386C589.559 754.277 584.424 757.329 579.083 759.835C550.766 773.12 519.355 780.822 489.02 788.002C482.89 789.453 473.732 792.573 467.833 792.663C465.072 791.317 462.698 790.139 460.488 787.96Z"/>
	<path fill="#BEB90A" d="M512.072 511.097C513.281 510.561 514.595 510.189 515.847 509.76C519.564 512.615 529.986 514.662 534.958 516.147Q566.465 525.505 597.709 535.707C603.308 537.541 611.541 539.289 616.477 542.171C547.433 567.002 482.666 601.27 417.793 635.209L411.925 638.369L410.029 639.397L405.532 641.767C404.452 642.386 403.322 642.955 402.34 643.721C401.181 644.385 400.028 645.087 398.845 645.707L394.567 648.115L388.541 651.665C383.026 654.599 370.057 660.849 366.019 664.855L365.47 665.104L363.732 666.098L359.87 668.382L355.876 670.752C353.841 672.064 351.777 673.626 349.578 674.628C348.38 660.887 348.715 646.828 348.57 633.031C371.955 619.635 396.18 607.565 420.102 595.161L518.396 543.324C515.678 532.69 513.944 521.906 512.072 511.097Z"/>
	<path fill="#BEB90A" d="M449.403 291.094C457.794 290.616 466.585 289.843 474.975 290.606C469.028 297.48 467.278 306.189 467.954 315.065C468.807 326.245 475.149 337.369 483.594 344.6Q484.429 345.316 485.298 345.99Q486.168 346.663 487.069 347.293Q487.971 347.923 488.903 348.507Q489.835 349.091 490.794 349.629Q491.754 350.166 492.739 350.655Q493.724 351.144 494.733 351.583Q495.741 352.023 496.77 352.412Q497.798 352.801 498.845 353.138Q499.892 353.476 500.954 353.761Q502.017 354.046 503.092 354.278Q504.167 354.51 505.252 354.688Q506.337 354.867 507.43 354.991Q508.523 355.115 509.621 355.185Q510.718 355.255 511.818 355.271Q512.918 355.286 514.017 355.247Q515.116 355.208 516.212 355.114C525.242 354.337 533.164 350.498 539.009 343.501C543.072 338.637 545.504 332.762 546.634 326.559C547.843 319.929 547.594 313.362 547.457 306.659C554.005 309.011 560.811 311.194 567.006 314.373C574.529 317.256 601.363 326.515 604.918 331.415L605.231 331.484C630.657 337.78 655.697 345.684 675.375 363.832C679.546 368.751 683.279 373.688 686.301 379.395L689.44 379.541C689.899 380.504 690.058 380.867 690.898 381.57C692.599 380.864 694.157 377.544 695.196 376.001C697.807 370.147 703.802 364.537 708.723 360.609C716.778 354.541 725.188 349.489 733.882 344.393C738.06 342.202 742.354 340.229 746.616 338.208C752.031 336.074 758.623 330.777 764.307 330.311L764.78 331.213C767.142 336.682 766.75 343.967 767.872 349.842C767.923 352.441 767.876 355.017 768.447 357.566L776.137 353.78L789.741 347.478Q785.526 357.172 780.767 366.612C771.831 385.102 761.573 409.441 750.726 426.258C753.157 426.214 755.581 426.17 758.008 426.027C756.715 430.472 755.543 434.623 753.086 438.598C752.602 438.839 752.154 439.088 751.634 439.24C752.25 439.907 752.334 439.802 752.439 440.767C749.992 446.996 747.362 454.031 743.152 459.3L742.543 459.74C743.26 460.654 743.338 460.891 743.237 462.122C743.022 464.745 740.844 467.082 738.819 468.568C737.306 469.677 735.291 470.12 733.503 470.582C732.663 474.32 722.538 494.114 720.024 497.106C718.682 498.704 716.519 499.88 714.76 500.995L714.108 501.407C714.564 508.642 716.028 515.738 717.44 522.837C708.369 530.989 697.578 533.601 687.574 539.89C676.704 536.086 665.804 535.537 654.394 535.796C649.317 537.803 644.634 541.706 640.269 544.934C633.403 544.405 626.566 544.697 619.706 544.383L616.477 542.171C611.541 539.289 603.308 537.541 597.709 535.707Q566.465 525.505 534.958 516.147C529.986 514.662 519.564 512.615 515.847 509.76C514.595 510.189 513.281 510.561 512.072 511.097C513.944 521.906 515.678 532.69 518.396 543.324L420.102 595.161C396.18 607.565 371.955 619.635 348.57 633.031C348.715 646.828 348.38 660.887 349.578 674.628L349.55 674.865C348.205 675.359 347.259 675.737 345.79 675.537C344.522 672.211 345.431 601.331 345.431 592.283C341.913 591.785 338.371 590.71 335.073 589.4C318.714 582.899 306.528 568.272 299.717 552.434C296.97 545.022 295.835 537.3 294.79 529.511L294.592 527.331C293.367 509.752 293.047 491.965 295.1 474.427C295.076 470.645 296.04 466.649 296.691 462.938C297.824 445.148 304.335 418.834 309.937 401.69C312.078 395.14 314.761 388.791 316.962 382.264C319.396 376.323 322.592 370.616 325.719 365.016C339.302 340.695 356.698 322.311 381.606 309.281C387.81 307.343 393.719 303.772 399.859 301.516C415.833 295.646 432.513 292.676 449.403 291.094Z"/>
	<path fill="white" d="M394.066 492.377C393.748 481.984 393.227 400.743 394.409 397.258C394.558 396.817 394.947 396.496 395.216 396.115C396.44 395.839 396.552 395.739 397.683 396.24C398.619 401.084 397.765 406.414 398.009 411.384C400.579 416.039 404.556 447.845 405.798 454.735C407.666 465.086 410.335 475.454 411.742 485.865C419.393 483.399 480.542 462.234 482.384 462.312C483.877 462.376 484.359 462.884 485.385 463.824C485.501 464.299 485.705 464.639 485.427 465.099C485.274 465.352 485.088 465.606 484.836 465.761C483.108 466.825 479.282 467.396 477.25 468.052C464.352 472.215 451.329 476.03 438.494 480.382C412.128 489.323 386.093 499.306 359.61 507.874C355.874 509.083 352.382 510.968 348.632 512.085C346.813 512.627 345.509 512.985 343.79 512.061L343.488 511.03C344.015 509.964 344.75 509.572 345.801 509.107C350.114 507.2 354.951 505.926 359.431 504.429C370.978 500.568 382.782 496.945 394.066 492.377Z"/>
	<path fill="#477B2F" d="M398.009 411.384C400.579 416.039 404.556 447.845 405.798 454.735C407.666 465.086 410.335 475.454 411.742 485.865C407.095 487.675 402.193 489.127 397.466 490.736L398.009 411.384Z"/>
	<path fill="#477B2F" d="M449.403 291.094C457.794 290.616 466.585 289.843 474.975 290.606C469.028 297.48 467.278 306.189 467.954 315.065C468.807 326.245 475.149 337.369 483.594 344.6Q484.429 345.316 485.298 345.99Q486.168 346.663 487.069 347.293Q487.971 347.923 488.903 348.507Q489.835 349.091 490.794 349.629Q491.754 350.166 492.739 350.655Q493.724 351.144 494.733 351.583Q495.741 352.023 496.77 352.412Q497.798 352.801 498.845 353.138Q499.892 353.476 500.954 353.761Q502.017 354.046 503.092 354.278Q504.167 354.51 505.252 354.688Q506.337 354.867 507.43 354.991Q508.523 355.115 509.621 355.185Q510.718 355.255 511.818 355.271Q512.918 355.286 514.017 355.247Q515.116 355.208 516.212 355.114C525.242 354.337 533.164 350.498 539.009 343.501C543.072 338.637 545.504 332.762 546.634 326.559C547.843 319.929 547.594 313.362 547.457 306.659C554.005 309.011 560.811 311.194 567.006 314.373C567.407 328.013 567.518 340.966 561.557 353.594C555.373 366.695 544.054 375.719 530.503 380.479Q529.026 380.999 527.526 381.445Q526.025 381.892 524.504 382.263Q522.983 382.635 521.446 382.931Q519.908 383.227 518.358 383.447Q516.808 383.667 515.249 383.81Q513.69 383.953 512.126 384.02Q510.561 384.086 508.996 384.074Q507.43 384.063 505.867 383.975Q504.304 383.886 502.747 383.721Q501.19 383.555 499.643 383.313Q498.097 383.071 496.564 382.753Q495.031 382.434 493.515 382.041Q492 381.647 490.506 381.18Q489.012 380.712 487.542 380.171Q486.073 379.63 484.632 379.017Q483.192 378.404 481.783 377.721C465.235 369.563 452.716 355.644 446.898 338.096C441.699 322.414 442.011 305.99 449.403 291.094Z"/>
	<path fill="white" d="M542.887 438.986C558.84 433.022 570.512 429.003 587.962 430.146C591.863 430.402 596.395 430.728 600.018 432.3C601.196 432.811 602.529 433.696 602.941 434.965C603.381 436.321 603.255 437.948 602.574 439.221C601.898 440.486 601.169 441.267 599.772 441.66C595.005 442.999 588.69 442.141 583.667 442.394C570.826 443.041 556.41 446.994 544.93 452.888L545.688 452.845C551.298 452.488 556.919 451.16 562.45 450.16C573.307 448.197 584.368 446.825 595.413 447.657C598.755 447.909 603.228 448.236 605.853 450.506C606.867 451.383 607.583 452.575 607.736 453.926C607.871 455.111 607.624 456.003 606.726 456.827C605.554 457.903 603.565 458.328 602.041 458.503C591.05 459.766 578.543 457.201 567.93 461.367C566.851 462.971 565.464 462.417 564.01 463.364C566.779 464.2 570.103 463.492 573.026 463.9C580.092 463.574 597.985 461.678 603.079 466.594C604.104 467.583 604.562 468.771 604.574 470.184C604.585 471.504 604.231 472.767 603.199 473.664C598.589 477.674 585.656 473.454 579.635 475.868C579.488 475.946 579.343 476.028 579.194 476.104C577.912 476.766 576.438 477.375 574.958 476.98C574.777 476.932 574.611 476.839 574.438 476.769L573.818 477.249C574.829 477.436 580.667 477.808 580.982 478.247L578.686 478.91C581.759 478.964 587.444 478.399 589.875 480.611C591.076 481.704 591.682 483.606 591.435 485.197C591.261 486.312 590.722 487.197 589.761 487.795C585.079 490.709 576.547 490.147 571.102 491.222C567.432 491.946 563.758 493.149 560.157 494.177C544.997 498.501 530.917 505.215 515.847 509.76C514.595 510.189 513.281 510.561 512.072 511.097C513.944 521.906 515.678 532.69 518.396 543.324L420.102 595.161C396.18 607.565 371.955 619.635 348.57 633.031C348.715 646.828 348.38 660.887 349.578 674.628L349.55 674.865C348.205 675.359 347.259 675.737 345.79 675.537C344.522 672.211 345.431 601.331 345.431 592.283C341.913 591.785 338.371 590.71 335.073 589.4C318.714 582.899 306.528 568.272 299.717 552.434C296.97 545.022 295.835 537.3 294.79 529.511L294.592 527.331C293.367 509.752 293.047 491.965 295.1 474.427C295.076 470.645 296.04 466.649 296.691 462.938C298.764 466.318 297.654 474.947 297.199 478.811C296.053 498.623 295.201 528.397 301.591 547.047C306.801 562.254 318.81 577.843 333.434 584.99C337.128 586.795 341.951 589.019 346.098 588.348C352.156 587.369 358.184 584.519 363.889 582.342Q375.79 577.783 387.791 573.497Q442.802 553.519 498.338 535.047C496.27 521.338 494.054 507.408 491.402 493.802C490.434 488.833 486.407 475.74 486.645 471.786C489.776 472.413 493.368 471.446 496.115 469.869C501.426 466.818 505.317 460.883 510.098 457.02C519.373 449.529 532.035 443.798 542.887 438.986Z"/>
	<path fill="#101B4C" d="M553.81 466.254C558.454 463.929 562.847 462.421 567.93 461.367C566.851 462.971 565.464 462.417 564.01 463.364C566.779 464.2 570.103 463.492 573.026 463.9C566.632 464.757 560.239 465.698 553.81 466.254Z"/>
	<path fill="#101B4C" d="M554.013 481.366C561.801 477.869 571.164 476.299 579.635 475.868C579.488 475.946 579.343 476.028 579.194 476.104C577.912 476.766 576.438 477.375 574.958 476.98C574.777 476.932 574.611 476.839 574.438 476.769L573.818 477.249C574.829 477.436 580.667 477.808 580.982 478.247L578.686 478.91C570.427 479.242 562.217 480.401 554.013 481.366Z"/>
	<path fill="#477B2F" d="M512.072 511.097C513.944 521.906 515.678 532.69 518.396 543.324L420.102 595.161C396.18 607.565 371.955 619.635 348.57 633.031C348.73 619.289 348.519 605.507 348.336 591.765L501.68 537.572C501.286 530.425 499.219 522.895 497.854 515.852Q505.04 513.704 512.072 511.097Z"/>
	<path fill="#039" d="M746.616 338.208C752.031 336.074 758.623 330.777 764.307 330.311L764.78 331.213C767.142 336.682 766.75 343.967 767.872 349.842C767.923 352.441 767.876 355.017 768.447 357.566L776.137 353.78L789.741 347.478Q785.526 357.172 780.767 366.612C771.831 385.102 761.573 409.441 750.726 426.258C753.157 426.214 755.581 426.17 758.008 426.027C756.715 430.472 755.543 434.623 753.086 438.598C752.602 438.839 752.154 439.088 751.634 439.24C752.25 439.907 752.334 439.802 752.439 440.767C749.992 446.996 747.362 454.031 743.152 459.3L742.543 459.74C743.26 460.654 743.338 460.891 743.237 462.122C743.022 464.745 740.844 467.082 738.819 468.568C737.306 469.677 735.291 470.12 733.503 470.582C732.663 474.32 722.538 494.114 720.024 497.106C718.682 498.704 716.519 499.88 714.76 500.995L714.108 501.407C714.564 508.642 716.028 515.738 717.44 522.837C708.369 530.989 697.578 533.601 687.574 539.89C676.704 536.086 665.804 535.537 654.394 535.796C649.317 537.803 644.634 541.706 640.269 544.934C633.403 544.405 626.566 544.697 619.706 544.383L616.477 542.171C611.541 539.289 603.308 537.541 597.709 535.707Q566.465 525.505 534.958 516.147C529.986 514.662 519.564 512.615 515.847 509.76C530.917 505.215 544.997 498.501 560.157 494.177C563.758 493.149 567.432 491.946 571.102 491.222C576.547 490.147 585.079 490.709 589.761 487.795C590.722 487.197 591.261 486.312 591.435 485.197C591.682 483.606 591.076 481.704 589.875 480.611C587.444 478.399 581.759 478.964 578.686 478.91L580.982 478.247C580.667 477.808 574.829 477.436 573.818 477.249L574.438 476.769C574.611 476.839 574.777 476.932 574.958 476.98C576.438 477.375 577.912 476.766 579.194 476.104C579.343 476.028 579.488 475.946 579.635 475.868C585.656 473.454 598.589 477.674 603.199 473.664C604.231 472.767 604.585 471.504 604.574 470.184C604.562 468.771 604.104 467.583 603.079 466.594C597.985 461.678 580.092 463.574 573.026 463.9C570.103 463.492 566.779 464.2 564.01 463.364C565.464 462.417 566.851 462.971 567.93 461.367C578.543 457.201 591.05 459.766 602.041 458.503C603.565 458.328 605.554 457.903 606.726 456.827C607.624 456.003 607.871 455.111 607.736 453.926C607.583 452.575 606.867 451.383 605.853 450.506C603.228 448.236 598.755 447.909 595.413 447.657C584.368 446.825 573.307 448.197 562.45 450.16C556.919 451.16 551.298 452.488 545.688 452.845L544.93 452.888C556.41 446.994 570.826 443.041 583.667 442.394C588.69 442.141 595.005 442.999 599.772 441.66C601.169 441.267 601.898 440.486 602.574 439.221C603.255 437.948 603.381 436.321 602.941 434.965C602.529 433.696 601.196 432.811 600.018 432.3C596.395 430.728 591.863 430.402 587.962 430.146C570.512 429.003 558.84 433.022 542.887 438.986C543.694 433.296 549.932 421.072 552.361 415.308C558.028 401.858 563.249 388.208 568.764 374.693C572.449 365.664 577.035 356.248 579.639 346.861C580.051 345.952 580.514 344.842 581.508 344.485C586.444 342.709 596.402 347.655 601.102 349.384C602.489 343.428 603.63 337.396 604.918 331.415L605.231 331.484C630.657 337.78 655.697 345.684 675.375 363.832C679.546 368.751 683.279 373.688 686.301 379.395L689.44 379.541C689.899 380.504 690.058 380.867 690.898 381.57C692.599 380.864 694.157 377.544 695.196 376.001C697.807 370.147 703.802 364.537 708.723 360.609C716.778 354.541 725.188 349.489 733.882 344.393C738.06 342.202 742.354 340.229 746.616 338.208Z"/>
	<path fill="white" d="M733.503 470.582C728.22 471.685 721.377 475.96 716.046 474.33C715.103 473.472 714.581 473.137 714.473 471.763C714.36 470.316 714.888 468.869 715.777 467.746C720.789 461.412 735.185 460.317 742.543 459.74C743.26 460.654 743.338 460.891 743.237 462.122C743.022 464.745 740.844 467.082 738.819 468.568C737.306 469.677 735.291 470.12 733.503 470.582Z"/>
	<path fill="white" d="M750.726 426.258C753.157 426.214 755.581 426.17 758.008 426.027C756.715 430.472 755.543 434.623 753.086 438.598C752.602 438.839 752.154 439.088 751.634 439.24C743.571 439.895 735.77 442.111 728.409 445.427C725.371 446.795 719.052 450.656 716.056 450.317C714.911 449.605 714.117 449.1 713.717 447.727C713.382 446.577 713.567 445.536 714.124 444.503C716.31 440.453 735.147 431.553 739.708 429.716C743.297 428.269 746.991 427.25 750.726 426.258Z"/>
	<path fill="white" d="M743.152 459.3C725.482 454.992 719.864 466.517 711.136 466.19C709.978 465.615 709.272 465.39 708.779 464.075C708.175 462.466 708.57 460.284 709.492 458.868C711.183 456.269 714.949 455.068 717.573 453.628C729.169 447.266 739.238 442.855 752.439 440.767C749.992 446.996 747.362 454.031 743.152 459.3Z"/>
	<path fill="#BEB90A" d="M714.108 501.407C714.564 508.642 716.028 515.738 717.44 522.837C708.369 530.989 697.578 533.601 687.574 539.89C676.704 536.086 665.804 535.537 654.394 535.796C654.031 535.728 653.73 535.471 653.404 535.296C654.595 533.341 708.796 504.266 714.108 501.407Z"/>
	<path fill="white" d="M746.616 338.208C752.031 336.074 758.623 330.777 764.307 330.311L764.78 331.213C767.142 336.682 766.75 343.967 767.872 349.842C767.923 352.441 767.876 355.017 768.447 357.566Q745.291 368.478 722.504 380.141C714.637 383.634 706.782 387.703 698.765 390.786L688.457 388.254C677.638 384.577 667.242 379.873 656.577 375.792L579.639 346.861C580.051 345.952 580.514 344.842 581.508 344.485C586.444 342.709 596.402 347.655 601.102 349.384C602.489 343.428 603.63 337.396 604.918 331.415L605.231 331.484C630.657 337.78 655.697 345.684 675.375 363.832C679.546 368.751 683.279 373.688 686.301 379.395L689.44 379.541C689.899 380.504 690.058 380.867 690.898 381.57C692.599 380.864 694.157 377.544 695.196 376.001C697.807 370.147 703.802 364.537 708.723 360.609C716.778 354.541 725.188 349.489 733.882 344.393C738.06 342.202 742.354 340.229 746.616 338.208Z"/>
	<path fill="#101B4C" d="M689.44 379.541C689.899 380.504 690.058 380.867 690.898 381.57C692.599 380.864 694.157 377.544 695.196 376.001L696.17 378.177C694.648 380.793 693.178 383.994 690.951 386.041C690.147 386.151 689.989 386.381 689.303 385.811C687.612 384.406 686.966 381.446 686.301 379.395L689.44 379.541Z"/>
	<path fill="#101B4C" d="M746.616 338.208C752.031 336.074 758.623 330.777 764.307 330.311L764.78 331.213C746.321 340.606 727.586 349.618 710.841 361.92C705.359 366.531 699.982 372.081 696.17 378.177L695.196 376.001C697.807 370.147 703.802 364.537 708.723 360.609C716.778 354.541 725.188 349.489 733.882 344.393C738.06 342.202 742.354 340.229 746.616 338.208Z"/>
	<path fill="#2C5CD3" d="M698.765 390.786C706.782 387.703 714.637 383.634 722.504 380.141L672.036 488.091C668.009 496.688 664.16 505.373 660.244 514.021C657.73 519.574 655.413 525.312 652.209 530.51C650.141 533.866 648.582 535.873 644.671 537.188C637.512 539.596 628.367 537.867 620.809 538.4C633.218 511.127 646.111 484.079 658.07 456.595L676.934 414.277C680.734 405.634 683.993 396.568 688.457 388.254L698.765 390.786Z"/>
	<path fill="#BEB90A" d="M780.767 366.612C792.339 367.876 853.817 365.586 857.395 366.993C866.254 381.988 874.283 396.756 881.051 412.844Q884.354 420.621 887.254 428.557C888.149 431.037 888.664 434.089 889.909 436.361C915.017 421.97 936.119 413.26 963.637 404.692C964.732 404.124 965.642 403.854 966.829 403.579C966.863 403.883 966.893 404.187 966.931 404.49C967.681 410.545 970.992 419.199 972.649 425.471C976.232 439.035 979.24 452.406 981.691 466.222C992.334 526.212 991.784 590.816 974.435 649.509C972.019 657.683 969.819 667.622 965.715 675.065C962.823 683.982 958.287 692.549 954.069 700.9Q948.155 712.769 941.296 724.117Q934.437 735.466 926.679 746.22C898.755 784.151 849.151 829.766 807.148 851.222C803.25 853.213 799.21 855.247 795.121 856.798C792.533 864.264 791.126 872.113 788.349 879.484Q782.321 879.072 776.284 878.835C774.313 885.484 771.863 893.065 771.958 900.055C767.946 899.948 752.663 908.622 747.494 910.655C736.46 904.563 725.239 899.22 713.989 893.579C713.769 888.271 714.143 882.33 713.2 877.127C709.618 876.948 706.097 876.83 702.512 876.987C699.493 876.945 697.523 878.644 694.774 878.59C694.522 878.585 694.27 878.568 694.018 878.559C684.58 878.237 675.422 874.611 665.909 874.471C667.4 870.365 667.893 865.244 668.735 860.916C670.968 849.433 673.59 837.918 674.353 826.223C678.305 826.555 682.336 826.487 686.303 826.565C687.868 816.894 692.091 792.033 695.478 784.504C695.902 773.706 701.75 753.13 704.286 741.496Q713.839 697.852 724.433 654.448C727.09 643.893 729.317 632.903 732.554 622.538C732.614 619.017 733.776 614.997 734.16 611.42C735.444 599.466 734.707 586.964 729.801 575.85C721.673 557.439 705.754 546.877 687.574 539.89C697.578 533.601 708.369 530.989 717.44 522.837C716.028 515.738 714.564 508.642 714.108 501.407L714.76 500.995C716.519 499.88 718.682 498.704 720.024 497.106C722.538 494.114 732.663 474.32 733.503 470.582C735.291 470.12 737.306 469.677 738.819 468.568C740.844 467.082 743.022 464.745 743.237 462.122C743.338 460.891 743.26 460.654 742.543 459.74L743.152 459.3C747.362 454.031 749.992 446.996 752.439 440.767C752.334 439.802 752.25 439.907 751.634 439.24C752.154 439.088 752.602 438.839 753.086 438.598C755.543 434.623 756.715 430.472 758.008 426.027C755.581 426.17 753.157 426.214 750.726 426.258C761.573 409.441 771.831 385.102 780.767 366.612Z"/>
	<path d="M830.907 691.201C841.713 686.352 947.929 650.791 951.814 650.841C952.807 650.854 953.201 650.706 953.919 651.46C950.451 654.373 902.045 668.628 892.998 672.22C888.444 672.803 883.414 675.107 879.075 676.636Q863.799 682.077 848.457 687.329C842.853 689.243 836.574 691.962 830.708 692.635L830.907 691.201Z"/>
	<path fill="#898B02" d="M830.708 692.635C836.574 691.962 842.853 689.243 848.457 687.329Q863.799 682.077 879.075 676.636C883.414 675.107 888.444 672.803 892.998 672.22L892.538 673.048C878.949 678.14 865.072 682.652 851.314 687.273C845.496 689.227 837.918 690.784 832.697 693.792C831.501 698.428 833.511 706.351 833.264 711.5C833.031 716.337 829.974 725.058 830.536 729.256C832.586 729.982 834.125 727.371 836.162 728.189C840.911 730.097 844.932 734.785 849.905 736.246C852.764 737.086 889.463 724.123 895.036 721.986L896.272 722.723C872.396 730.074 848.679 738.712 825.037 746.835C828.485 729.16 835.739 710.822 830.708 692.635Z"/>
	<path d="M963.637 404.692C964.732 404.124 965.642 403.854 966.829 403.579C966.809 406.436 956.371 420.259 954.319 423.453Q938.283 448.412 923.367 474.055C918.593 482.17 913.107 490.415 909.213 498.97L949.294 483.988C954.594 482.008 965.59 477.173 970.776 476.641L971.421 477.058C970.882 478.453 970.222 478.736 968.866 479.335C964.495 481.267 959.667 482.349 955.181 484.021C939.338 489.925 923.414 496.85 907.258 501.783C895.424 521.192 886.156 542.152 875.272 562.095Q894.22 555.409 913.097 548.524C920.211 545.893 958.817 530.169 964.211 530.283L964.317 530.852C958.122 535.269 943.596 539.42 936.093 542.191L874.065 564.88C862.155 586.642 853.084 609.865 841.815 631.907C864.39 623.197 887.457 615.51 910.225 607.29C919.615 603.899 955.325 589.569 963.08 589.182L963.219 589.603C956.87 594.015 942.947 597.572 935.241 600.418L865.781 625.62C857.505 628.583 849.069 631.177 840.853 634.291C836.089 643.659 832.392 653.73 828.598 663.533C827.232 667.061 826.128 671.155 824.381 674.487L823.544 671.715C825.841 663.037 829.617 654.46 832.859 646.082C830.859 637.463 828.032 628.952 825.444 620.492C818.88 599.031 811.463 577.856 804.765 556.433C802.648 549.662 799.415 542.72 797.865 535.849C797.528 534.355 797.531 532.959 797.646 531.442L798.148 531.256C802.08 536.897 810.503 566.824 813.206 575.116C820.474 597.418 828.744 619.435 834.618 642.172C845.399 618.64 856.637 595.376 867.714 571.988C866.778 560.951 863.891 550.025 861.464 539.249Q856.415 516.983 851.646 494.655C849.997 486.769 847.597 478.274 847.44 470.223C848.472 471.715 849.249 473.065 849.759 474.815C853.833 488.803 856.048 503.689 859.209 517.941C862.821 534.226 867.944 550.806 869.7 567.374C873.256 561.697 876.163 555.345 879.28 549.396L899.161 511.205C904.133 501.798 910.694 493.12 915.268 483.537L963.637 404.692Z"/>
	<defs>
		<linearGradient id="gradient_3" gradientUnits="userSpaceOnUse" x1="783.08728" y1="840.76898" x2="879.2948" y2="746.79156">
			<stop offset="0" stop-color="#697704"/>
			<stop offset="1" stop-color="#898B05"/>
		</linearGradient>
	</defs>
	<path fill="url(#gradient_3)" d="M902.279 773.499C921.578 754.716 940.064 727.248 952.115 703.172C953.08 701.243 953.587 699.146 954.561 697.217C956.693 692.995 959.22 688.903 961.114 684.572C962.498 681.409 963.537 678.123 965.033 675.005L965.715 675.065C962.823 683.982 958.287 692.549 954.069 700.9Q948.155 712.769 941.296 724.117Q934.437 735.466 926.679 746.22C898.755 784.151 849.151 829.766 807.148 851.222C803.25 853.213 799.21 855.247 795.121 856.798C800.34 841.426 803.734 825.003 807.899 809.295C822.602 805.763 874.928 788.78 886.102 781.314C876.461 783.836 866.869 787.988 857.436 791.263Q832.98 799.688 808.326 807.514C811.864 795.929 814.861 784.194 818.022 772.503C820.114 764.768 822.546 757.011 824.164 749.166C824.336 748.304 824.675 747.63 825.037 746.835C848.679 738.712 872.396 730.074 896.272 722.723L895.036 721.986C902.603 719.979 926.859 710.544 932.95 711.603C934.01 711.787 933.599 711.599 934.287 712.577C933.794 713.914 933.136 714.419 931.841 715.019C927.653 716.96 922.681 717.721 918.237 719.04Q898.283 724.891 878.613 731.637C874.718 732.977 869.84 734.125 866.3 736.207C867.467 738.837 880.538 749.27 883.616 752.217C887.311 755.756 890.425 759.874 894.134 763.405C896.267 765.436 899.84 767.608 901.441 769.956C902.073 770.883 902.145 772.406 902.279 773.499Z"/>
	<path d="M896.272 722.723C904.54 719.952 925.453 712.456 933.173 712.41L933.563 712.806C930.684 715.393 908.182 721.069 902.939 722.679C876.454 730.812 850.641 741.05 824.164 749.166C824.336 748.304 824.675 747.63 825.037 746.835C848.679 738.712 872.396 730.074 896.272 722.723Z"/>
	<path fill="#477B2F" d="M889.909 436.361C915.017 421.97 936.119 413.26 963.637 404.692L915.268 483.537C910.694 493.12 904.133 501.798 899.161 511.205L879.28 549.396C876.163 555.345 873.256 561.697 869.7 567.374C867.944 550.806 862.821 534.226 859.209 517.941C856.048 503.689 853.833 488.803 849.759 474.815C849.249 473.065 848.472 471.715 847.44 470.223C847.597 478.274 849.997 486.769 851.646 494.655Q856.415 516.983 861.464 539.249C863.891 550.025 866.778 560.951 867.714 571.988C856.637 595.376 845.399 618.64 834.618 642.172C828.744 619.435 820.474 597.418 813.206 575.116C810.503 566.824 802.08 536.897 798.148 531.256L797.646 531.442C797.531 532.959 797.528 534.355 797.865 535.849C799.415 542.72 802.648 549.662 804.765 556.433C811.463 577.856 818.88 599.031 825.444 620.492C828.032 628.952 830.859 637.463 832.859 646.082C829.617 654.46 825.841 663.037 823.544 671.715C815.601 656.825 802.918 647.552 786.934 642.506C786.217 639.174 773.801 602.92 772.702 601.273C772.11 600.387 772.089 600.366 771.008 600.153L770.453 600.813C770.222 604.62 778.476 626.584 780.307 631.74C781.248 634.389 782.911 637.734 783.178 640.459C783.197 640.651 783.186 640.845 783.19 641.038C775.054 636.755 757.645 627.692 749.056 627.369C750.791 625.183 751.317 619.245 752.061 616.371C766.487 560.641 796.736 512.967 838.92 474.171C848.216 465.621 858.414 456.192 869.313 449.794C875.319 444.638 883.233 440.693 889.909 436.361Z"/>
	<path fill="#E0EBC4" d="M780.767 366.612C792.339 367.876 853.817 365.586 857.395 366.993C866.254 381.988 874.283 396.756 881.051 412.844Q884.354 420.621 887.254 428.557C888.149 431.037 888.664 434.089 889.909 436.361C883.233 440.693 875.319 444.638 869.313 449.794C858.414 456.192 848.216 465.621 838.92 474.171C796.736 512.967 766.487 560.641 752.061 616.371C751.317 619.245 750.791 625.183 749.056 627.369C743.517 625.917 738.041 624.177 732.554 622.538C732.614 619.017 733.776 614.997 734.16 611.42C735.444 599.466 734.707 586.964 729.801 575.85C721.673 557.439 705.754 546.877 687.574 539.89C697.578 533.601 708.369 530.989 717.44 522.837C716.028 515.738 714.564 508.642 714.108 501.407L714.76 500.995C716.519 499.88 718.682 498.704 720.024 497.106C722.538 494.114 732.663 474.32 733.503 470.582C735.291 470.12 737.306 469.677 738.819 468.568C740.844 467.082 743.022 464.745 743.237 462.122C743.338 460.891 743.26 460.654 742.543 459.74L743.152 459.3C747.362 454.031 749.992 446.996 752.439 440.767C752.334 439.802 752.25 439.907 751.634 439.24C752.154 439.088 752.602 438.839 753.086 438.598C755.543 434.623 756.715 430.472 758.008 426.027C755.581 426.17 753.157 426.214 750.726 426.258C761.573 409.441 771.831 385.102 780.767 366.612Z"/>
	<path fill="#FC0" d="M810.861 383.923C812.292 385.625 812.95 389.987 814.046 392.261C817.749 399.944 824.534 402.328 831.984 404.972C819.098 411.578 815.944 415.514 811.496 429.219C809.21 426.273 807.6 420.705 806.244 417.224C803.682 410.647 795.998 407.937 790.015 405.239C793.098 404.153 796.306 403.142 799.212 401.63C806.657 397.757 808.564 391.427 810.861 383.923Z"/>
	<path fill="#101B4C" d="M783.19 641.038C783.186 640.845 783.197 640.651 783.178 640.459C782.911 637.734 781.248 634.389 780.307 631.74C778.476 626.584 770.222 604.62 770.453 600.813L771.008 600.153C772.089 600.366 772.11 600.387 772.702 601.273C773.801 602.92 786.217 639.174 786.934 642.506C802.918 647.552 815.601 656.825 823.544 671.715L824.381 674.487C827.569 679.38 829.705 685.514 830.907 691.201L830.708 692.635C835.739 710.822 828.485 729.16 825.037 746.835C824.675 747.63 824.336 748.304 824.164 749.166C822.546 757.011 820.114 764.768 818.022 772.503C814.861 784.194 811.864 795.929 808.326 807.514Q832.98 799.688 857.436 791.263C866.869 787.988 876.461 783.836 886.102 781.314C874.928 788.78 822.602 805.763 807.899 809.295C803.734 825.003 800.34 841.426 795.121 856.798C792.533 864.264 791.126 872.113 788.349 879.484Q782.321 879.072 776.284 878.835C774.313 885.484 771.863 893.065 771.958 900.055C767.946 899.948 752.663 908.622 747.494 910.655C736.46 904.563 725.239 899.22 713.989 893.579C713.769 888.271 714.143 882.33 713.2 877.127C709.618 876.948 706.097 876.83 702.512 876.987C699.493 876.945 697.523 878.644 694.774 878.59C694.522 878.585 694.27 878.568 694.018 878.559C684.58 878.237 675.422 874.611 665.909 874.471C667.4 870.365 667.893 865.244 668.735 860.916C670.968 849.433 673.59 837.918 674.353 826.223C678.305 826.555 682.336 826.487 686.303 826.565C687.868 816.894 692.091 792.033 695.478 784.504C695.902 773.706 701.75 753.13 704.286 741.496Q713.839 697.852 724.433 654.448C727.09 643.893 729.317 632.903 732.554 622.538C738.041 624.177 743.517 625.917 749.056 627.369C757.645 627.692 775.054 636.755 783.19 641.038Z"/>
	<path fill="#FC0" d="M713.2 877.127C729.034 878.418 745.317 878 761.231 878.408C766.179 878.534 771.371 878.296 776.284 878.835C774.313 885.484 771.863 893.065 771.958 900.055C767.946 899.948 752.663 908.622 747.494 910.655C736.46 904.563 725.239 899.22 713.989 893.579C713.769 888.271 714.143 882.33 713.2 877.127Z"/>
	<path d="M783.19 641.038C783.186 640.845 783.197 640.651 783.178 640.459C782.911 637.734 781.248 634.389 780.307 631.74C778.476 626.584 770.222 604.62 770.453 600.813L771.008 600.153C772.089 600.366 772.11 600.387 772.702 601.273C773.801 602.92 786.217 639.174 786.934 642.506C785.587 642.174 784.258 641.789 782.925 641.405C774.794 641.612 757.649 655.025 752.002 660.942C732.396 681.481 730.718 698.482 726.331 724.659C738.253 716.393 748.265 705.376 760.096 696.937C754.483 703.84 750.274 711.847 746.015 719.628C724.443 759.041 717.932 796.105 714.356 840.488C713.429 852 711.716 864.855 713.084 876.323C713.116 876.592 713.162 876.859 713.2 877.127C709.618 876.948 706.097 876.83 702.512 876.987C699.493 876.945 697.523 878.644 694.774 878.59C694.522 878.585 694.27 878.568 694.018 878.559C684.58 878.237 675.422 874.611 665.909 874.471C667.4 870.365 667.893 865.244 668.735 860.916C670.968 849.433 673.59 837.918 674.353 826.223C678.305 826.555 682.336 826.487 686.303 826.565C687.868 816.894 692.091 792.033 695.478 784.504C695.902 773.706 701.75 753.13 704.286 741.496Q713.839 697.852 724.433 654.448C727.09 643.893 729.317 632.903 732.554 622.538C738.041 624.177 743.517 625.917 749.056 627.369C757.645 627.692 775.054 636.755 783.19 641.038Z"/>
	<path fill="#E0EBC4" d="M695.478 784.504Q695.463 816.468 695.888 848.429C696.056 856.342 695.545 865.438 696.94 873.143C696.98 874.718 696.764 875.269 697.785 876.515C699.436 876.914 700.941 876.734 702.62 876.594L702.512 876.987C699.493 876.945 697.523 878.644 694.774 878.59C694.522 878.585 694.27 878.568 694.018 878.559C684.58 878.237 675.422 874.611 665.909 874.471C667.4 870.365 667.893 865.244 668.735 860.916C670.968 849.433 673.59 837.918 674.353 826.223C678.305 826.555 682.336 826.487 686.303 826.565C687.868 816.894 692.091 792.033 695.478 784.504Z"/>
</svg>
