<?xml version="1.0" encoding="utf-8" ?>
<svg xmlns="http://www.w3.org/2000/svg" xmlns:xlink="http://www.w3.org/1999/xlink" width="1024" height="1024">
	<path fill="white" d="M0 0L1024 0L1024 1024L0 1024L0 0Z"/>
	<path fill="#054B15" d="M47.8513 738.501C67.1394 738.871 86.956 743.05 103.991 752.241C122.832 762.406 139.665 779.239 145.724 800.199C147.507 806.367 149.107 815.385 145.892 821.281Q154.15 832.862 160.75 845.463C158.944 845.466 157.149 845.589 155.418 844.998C150.411 837.04 145.491 829.167 139.719 821.734C134.948 825.819 127.621 826.91 121.534 827.174C104.356 827.918 88.274 821.504 75.756 809.802C56.7299 792.016 48.6409 763.803 47.8513 738.501Z"/>
	<path d="M139.719 821.734C134.86 810.698 108.054 785.671 98.4737 777.864C96.7746 776.479 84.8107 766.974 84.6965 766.463C87.9012 766.724 92.3896 771.073 94.9318 772.996C108.072 782.934 120.296 793.549 131.677 805.476C136.578 810.612 141.037 816.112 145.892 821.281Q154.15 832.862 160.75 845.463C158.944 845.466 157.149 845.589 155.418 844.998C150.411 837.04 145.491 829.167 139.719 821.734Z"/>
	<path fill="#039" d="M762.566 807.386C759.692 804.465 751.79 797.87 752.313 793.6C752.442 792.55 752.951 791.865 753.761 791.243C756.827 788.89 763.004 790.156 766.537 790.489C776.627 792.263 786.983 791.339 797.18 791.523L800.107 791.514L817.553 791.541Q825.148 791.729 832.743 791.56L836.449 791.426C843.575 791.273 850.715 791.321 857.844 791.241Q879.848 791.253 901.841 790.54C901.826 796.504 901.832 802.457 901.544 808.415L892.403 808.196C891.904 812.447 891.28 816.72 890.923 820.983L881.659 902.477C880.467 912.114 880.233 924.215 877.28 933.339C876.089 937.02 873.584 940.034 870.618 942.448C869.285 943.534 867.873 944.443 866.393 945.31C858.074 947.467 832.094 946.434 822.416 945.977C827.044 944.997 831.299 943.174 834.738 939.842C837.833 936.841 839.921 932.876 840.878 928.687C842.634 921.003 841.66 911.823 841.627 903.914L841.63 870.497L841.643 866.52C841.323 851.918 844.277 833.915 836.606 821.074C836.106 820.365 835.587 819.694 835.027 819.029C824.424 806.438 811.825 807.026 796.736 807.278C785.679 807.463 774.005 808.355 763.001 807.426L762.566 807.386Z"/>
	<path fill="#000D44" d="M179.101 821.472C179.583 829.438 179.393 837.516 179.254 845.494C181.042 845.537 183.595 845.942 185.184 845.059C186.616 845.299 188.726 845.715 190.022 844.938C190.234 845.023 190.444 845.115 190.658 845.194C192.568 845.894 195.641 845.517 197.674 845.519C204.302 845.523 226.481 844.191 231.493 845.866C234.122 846.744 236.271 849.054 237.541 851.45C239.947 855.985 240.103 863.611 238.475 868.474C237.365 871.787 234.851 874.689 231.634 876.115C229.723 876.962 227.532 877.185 225.474 877.414L225.528 903.018C225.533 908.933 225.952 915.125 224.89 920.958C224.163 924.951 222.73 928.911 220.375 932.235C215.511 938.869 211.075 942.637 203.329 945.675C196.073 947.172 161.447 947.385 154.606 945.776Q151.97 944.835 149.537 943.451Q147.104 942.067 144.948 940.282Q143.496 939.086 142.205 937.717Q140.913 936.349 139.803 934.829Q138.694 933.31 137.782 931.664Q136.871 930.017 136.173 928.27C132.63 919.221 132.039 896.993 131.136 886.515Q130.707 881.763 130.419 877C128.101 876.741 125.838 876.523 123.715 875.467C120.305 873.772 117.947 870.542 116.918 866.928C115.569 862.192 115.65 855.966 118.317 851.681C125.627 839.935 143.982 848.287 154.71 845.218C154.948 845.15 155.182 845.071 155.418 844.998C157.149 845.589 158.944 845.466 160.75 845.463C164.499 845.523 168.255 845.642 171.999 845.381C174.298 845.156 176.666 845.314 178.975 845.359C178.958 837.401 178.843 829.427 179.101 821.472Z"/>
	<path fill="#039" d="M131.136 886.515C142.47 891.981 153.515 898.03 164.763 903.662C179.264 910.922 193.95 917.807 208.531 924.896C212.641 926.895 216.173 930.757 220.375 932.235C215.511 938.869 211.075 942.637 203.329 945.675C196.073 947.172 161.447 947.385 154.606 945.776Q151.97 944.835 149.537 943.451Q147.104 942.067 144.948 940.282Q143.496 939.086 142.205 937.717Q140.913 936.349 139.803 934.829Q138.694 933.31 137.782 931.664Q136.871 930.017 136.173 928.27C132.63 919.221 132.039 896.993 131.136 886.515Z"/>
	<path fill="#6B89CF" d="M179.101 821.472C179.583 829.438 179.393 837.516 179.254 845.494C181.042 845.537 183.595 845.942 185.184 845.059C186.616 845.299 188.726 845.715 190.022 844.938C190.234 845.023 190.444 845.115 190.658 845.194C192.568 845.894 195.641 845.517 197.674 845.519C204.302 845.523 226.481 844.191 231.493 845.866C234.122 846.744 236.271 849.054 237.541 851.45C239.947 855.985 240.103 863.611 238.475 868.474C237.365 871.787 234.851 874.689 231.634 876.115C229.723 876.962 227.532 877.185 225.474 877.414C213.599 877.813 201.583 877.33 189.694 877.232L130.419 877C128.101 876.741 125.838 876.523 123.715 875.467C120.305 873.772 117.947 870.542 116.918 866.928C115.569 862.192 115.65 855.966 118.317 851.681C125.627 839.935 143.982 848.287 154.71 845.218C154.948 845.15 155.182 845.071 155.418 844.998C157.149 845.589 158.944 845.466 160.75 845.463C164.499 845.523 168.255 845.642 171.999 845.381C174.298 845.156 176.666 845.314 178.975 845.359C178.958 837.401 178.843 829.427 179.101 821.472Z"/>
	<path fill="white" d="M284.065 794.954C296.34 802.626 308.017 811.141 320.454 818.59L320.568 946.048C291.412 945.606 262.223 946.255 233.06 946.006C223.487 945.925 212.764 947.076 203.329 945.675C211.075 942.637 215.511 938.869 220.375 932.235C222.73 928.911 224.163 924.951 224.89 920.958C225.952 915.125 225.533 908.933 225.528 903.018L225.474 877.414C227.532 877.185 229.723 876.962 231.634 876.115C234.851 874.689 237.365 871.787 238.475 868.474C240.103 863.611 239.947 855.985 237.541 851.45C236.271 849.054 234.122 846.744 231.493 845.866C226.481 844.191 204.302 845.523 197.674 845.519C195.641 845.517 192.568 845.894 190.658 845.194C190.444 845.115 190.234 845.023 190.022 844.938C193.708 838.032 197.948 831.66 202.798 825.52C210.461 827.605 220.163 827.077 227.963 826.156C250.41 823.504 270.035 812.631 284.065 794.954Z"/>
	<path fill="#6B89CF" d="M712.423 807.067L713.002 808.069C717.287 808.969 758.977 808.832 762.566 807.386L763.001 807.426C774.005 808.355 785.679 807.463 796.736 807.278C811.825 807.026 824.424 806.438 835.027 819.029C835.587 819.694 836.106 820.365 836.606 821.074C844.277 833.915 841.323 851.918 841.643 866.52L841.63 870.497L841.627 903.914C841.66 911.823 842.634 921.003 840.878 928.687C839.921 932.876 837.833 936.841 834.738 939.842C831.299 943.174 827.044 944.997 822.416 945.977C816.852 946.527 810.998 946.228 805.408 946.212L777.043 946.181Q729.57 946.58 682.099 946.033C677.385 944.449 672.809 942.677 669.004 939.361Q668.397 938.834 667.83 938.264Q667.264 937.694 666.741 937.083Q666.219 936.472 665.742 935.824Q665.266 935.177 664.839 934.495Q664.413 933.814 664.037 933.103Q663.662 932.393 663.34 931.656Q663.019 930.919 662.753 930.161Q662.486 929.402 662.277 928.626C659.8 919.699 661.551 895.985 660.911 884.814C660.755 884.664 660.594 884.518 660.443 884.362C659.748 883.644 659.228 882.931 658.967 881.961C657.365 876.006 658.504 855 658.563 847.711C657.53 844.909 657.092 841.77 656.699 838.818C655.629 830.772 655.172 821.487 660.544 814.776C669.261 803.889 686.121 809.774 698.158 808.229C698.486 808.187 698.814 808.138 699.142 808.092C702.689 808.189 706.468 808.411 710.003 808.13C711.363 808.021 711.558 808.051 712.423 807.067Z"/>
	<path d="M835.836 866.323L841.643 866.52L841.63 870.497C839.395 870.704 837.277 870.53 835.049 870.353C835.185 868.927 835.29 867.668 835.836 866.323Z"/>
	<path fill="#E0EBC4" d="M712.423 807.067L713.002 808.069C717.287 808.969 758.977 808.832 762.566 807.386L763.001 807.426C774.005 808.355 785.679 807.463 796.736 807.278C811.825 807.026 824.424 806.438 835.027 819.029C835.587 819.694 836.106 820.365 836.606 821.074C844.277 833.915 841.323 851.918 841.643 866.52L835.836 866.323C835.29 867.668 835.185 868.927 835.049 870.353C834.892 870.633 834.684 870.89 834.577 871.192C833.261 874.907 836.418 881.254 832.703 883.83C830.421 885.413 814.03 885.418 811.154 884.7C809.888 884.384 808.905 883.392 808.333 882.254C806.681 878.966 807.316 874.093 807.399 870.53L688.415 870.494C688.534 874.5 689.312 879.768 686.197 882.926C682.687 886.485 666.294 884.946 660.911 884.814C660.755 884.664 660.594 884.518 660.443 884.362C659.748 883.644 659.228 882.931 658.967 881.961C657.365 876.006 658.504 855 658.563 847.711C657.53 844.909 657.092 841.77 656.699 838.818C655.629 830.772 655.172 821.487 660.544 814.776C669.261 803.889 686.121 809.774 698.158 808.229C698.486 808.187 698.814 808.138 699.142 808.092C702.689 808.189 706.468 808.411 710.003 808.13C711.363 808.021 711.558 808.051 712.423 807.067Z"/>
	<path d="M687.992 866.509L807.442 866.484L807.399 870.53L688.415 870.494C688.346 869.16 688.153 867.835 687.992 866.509Z"/>
	<path fill="#039" d="M807.442 866.484C807.507 861.436 806.209 844.647 809.33 841.566C812.068 838.864 820.611 839.874 824.252 840.044C826.84 840.165 831.014 840.415 833.067 842.08C837.936 846.028 832.586 864.086 835.836 866.323C835.29 867.668 835.185 868.927 835.049 870.353C834.892 870.633 834.684 870.89 834.577 871.192C833.261 874.907 836.418 881.254 832.703 883.83C830.421 885.413 814.03 885.418 811.154 884.7C809.888 884.384 808.905 883.392 808.333 882.254C806.681 878.966 807.316 874.093 807.399 870.53L807.442 866.484Z"/>
	<path fill="white" d="M819.297 843.738C821.681 843.672 824.816 843.307 826.993 844.398C828.408 845.106 829.323 845.877 829.878 847.389C829.675 848.127 829.675 848.604 829.096 849.156C827.228 850.937 825.123 850.869 822.68 850.873C820.807 850.897 817.936 851.244 816.194 850.595C814.59 849.998 813.436 849.247 812.642 847.701C812.742 846.957 812.64 846.505 813.211 845.943C814.815 844.366 817.127 843.842 819.297 843.738Z"/>
	<path fill="#039" d="M658.563 847.711C659.098 845.092 659.414 843.116 661.765 841.528C666.235 838.51 675.629 838.52 680.847 839.655C682.797 840.079 685.06 841.02 686.178 842.771C690.333 849.28 685.217 859.564 687.992 866.509C688.153 867.835 688.346 869.16 688.415 870.494C688.534 874.5 689.312 879.768 686.197 882.926C682.687 886.485 666.294 884.946 660.911 884.814C660.755 884.664 660.594 884.518 660.443 884.362C659.748 883.644 659.228 882.931 658.967 881.961C657.365 876.006 658.504 855 658.563 847.711Z"/>
	<path fill="white" d="M674.062 843.468C674.82 843.518 674.93 843.507 675.75 843.651C677.406 843.941 679.117 844.887 679.857 846.458C680.362 847.531 680.297 848.734 679.833 849.808C678.988 851.76 677.363 852.426 675.546 853.233C674.835 853.182 674.755 853.191 673.98 853.057C672.3 852.766 670.756 851.913 669.927 850.367C669.344 849.279 669.282 848.123 669.745 846.977C670.549 844.99 672.236 844.263 674.062 843.468Z"/>
	<path fill="#9ACA3C" d="M478.257 882.721C479.291 891.376 480.139 908.731 482.323 916.132L483.718 915.726C492.941 916.045 502.264 915.609 511.496 915.574C535.764 915.481 560.15 915.139 584.409 915.59L585.494 925.999C585.552 931.642 585.9 937.45 585.361 943.068L585.402 946.198C594.732 945.382 604.282 945.599 613.652 945.592C636.445 945.572 659.317 946.535 682.099 946.033Q729.57 946.58 777.043 946.181L805.408 946.212C810.998 946.228 816.852 946.527 822.416 945.977C832.094 946.434 858.074 947.467 866.393 945.31C881.71 946.317 897.585 945.659 912.949 945.635C918.468 945.626 924.802 944.752 930.177 945.927C933.157 946.577 935.863 948.05 937.869 950.366C940.646 953.572 941.789 958.034 941.417 962.212Q941.332 963.118 941.159 964.011Q940.985 964.904 940.725 965.776Q940.464 966.648 940.12 967.49Q939.775 968.332 939.349 969.136Q938.923 969.94 938.42 970.699Q937.917 971.457 937.342 972.162Q936.767 972.867 936.125 973.513Q935.484 974.158 934.782 974.737C931.249 977.639 927.173 978.384 922.745 978.629C916.072 978.998 909.256 978.683 902.572 978.646L868.641 978.6L750.672 978.622L386.442 978.641L185.517 978.805L127.192 978.847C117.809 978.848 107.127 979.763 97.8906 978.436C92.5859 977.674 87.5379 975.138 84.2706 970.803C81.4485 967.058 80.1946 962.037 80.9763 957.408C81.6072 953.673 83.6261 950.394 86.8336 948.334C95.4959 942.773 140.849 947.789 154.606 945.776C161.447 947.385 196.073 947.172 203.329 945.675C212.764 947.076 223.487 945.925 233.06 946.006C262.223 946.255 291.412 945.606 320.568 946.048C324.973 946.537 329.692 946.305 334.142 946.365C334.162 940.503 334.096 934.628 334.398 928.771C334.617 934.666 334.561 940.557 334.531 946.454L377.551 946.354L377.394 941.975Q377.569 934.013 378.026 926.062C378.94 922.032 380.526 918.929 382.76 915.524C394.788 902.245 411.417 896.253 428.563 892.717L427.74 882.843Q452.998 882.558 478.257 882.721Z"/>
	<path fill="#FC0" d="M478.257 882.721C479.291 891.376 480.139 908.731 482.323 916.132L483.718 915.726C492.941 916.045 502.264 915.609 511.496 915.574C535.764 915.481 560.15 915.139 584.409 915.59L585.494 925.999C585.552 931.642 585.9 937.45 585.361 943.068L585.402 946.198C580.132 947.364 573.362 946.549 567.895 946.572L524.879 946.618L432.185 946.467C414.004 946.467 395.721 946.901 377.551 946.354L377.394 941.975Q377.569 934.013 378.026 926.062C378.94 922.032 380.526 918.929 382.76 915.524C394.788 902.245 411.417 896.253 428.563 892.717L427.74 882.843Q452.998 882.558 478.257 882.721Z"/>
	<path d="M377.394 941.975C379.007 942.548 380.547 942.81 382.252 942.898C400.028 943.813 418.204 943.059 436.03 943.074C447.68 943.084 460.072 944.119 471.618 942.935C473.084 942.023 473.682 940.977 474.101 939.345C474.908 936.207 474.15 932.32 475.281 929.431L475.766 929.545C475.298 933.06 474.729 938.136 476.95 941.2C477.94 942.565 479.346 943.148 480.972 943.355C484.247 943.77 487.932 943.318 491.248 943.295L510.011 943.277L585.361 943.068L585.402 946.198C580.132 947.364 573.362 946.549 567.895 946.572L524.879 946.618L432.185 946.467C414.004 946.467 395.721 946.901 377.551 946.354L377.394 941.975Z"/>
	<path d="M382.76 915.524L451.124 915.533C459.456 915.541 475.045 914.543 482.323 916.132L483.718 915.726C492.941 916.045 502.264 915.609 511.496 915.574C535.764 915.481 560.15 915.139 584.409 915.59L585.494 925.999L470.962 925.949C440.06 925.802 408.905 925.119 378.026 926.062C378.94 922.032 380.526 918.929 382.76 915.524Z"/>
	<path fill="#039" d="M478.257 882.721C479.291 891.376 480.139 908.731 482.323 916.132C475.045 914.543 459.456 915.541 451.124 915.533L382.76 915.524C394.788 902.245 411.417 896.253 428.563 892.717L427.74 882.843Q452.998 882.558 478.257 882.721Z"/>
	<path d="M407.034 627.69C425.315 626.718 444.01 627.437 462.333 627.425C471.68 627.419 487.739 626.436 496.269 627.894Q537.094 627.592 577.92 627.778C585.843 627.847 596.135 626.758 603.73 627.924C611.652 628.821 620.013 628.21 627.998 628.328C635.063 628.433 643.359 629.673 650.308 628.485C651.951 628.531 653.871 628.403 655.44 628.868C663.22 629.226 671.032 629.202 678.819 629.283C685.796 629.357 693.033 629.693 699.975 628.903C703.043 628.868 706.131 628.757 709.197 628.819C714.002 628.871 726.103 627.784 729.754 629.638C729.936 630.25 730.176 630.926 730.313 631.547C730.39 635.497 730.316 639.352 730.01 643.291C728.959 655.744 724.586 666.624 718.304 677.375C715.338 680.726 712.44 684.2 709.237 687.327C706.459 697.618 709.939 709.311 706.712 719.3L706.59 719.881C705.757 723.986 704.65 739.795 702.323 742.038C701.087 742.276 700.037 742.397 698.767 742.382C700.692 756.753 704.233 770.825 707.453 784.947C709.12 792.256 710.371 799.878 712.423 807.067C711.558 808.051 711.363 808.021 710.003 808.13C706.468 808.411 702.689 808.189 699.142 808.092C698.814 808.138 698.486 808.187 698.158 808.229C686.121 809.774 669.261 803.889 660.544 814.776C655.172 821.487 655.629 830.772 656.699 838.818C657.092 841.77 657.53 844.909 658.563 847.711C658.504 855 657.365 876.006 658.967 881.961C659.228 882.931 659.748 883.644 660.443 884.362C660.594 884.518 660.755 884.664 660.911 884.814C661.551 895.985 659.8 919.699 662.277 928.626Q662.486 929.402 662.753 930.161Q663.019 930.919 663.34 931.656Q663.662 932.393 664.037 933.103Q664.413 933.814 664.839 934.495Q665.266 935.177 665.742 935.824Q666.219 936.472 666.741 937.083Q667.264 937.694 667.83 938.264Q668.397 938.834 669.004 939.361C672.809 942.677 677.385 944.449 682.099 946.033C659.317 946.535 636.445 945.572 613.652 945.592C604.282 945.599 594.732 945.382 585.402 946.198L585.361 943.068C585.9 937.45 585.552 931.642 585.494 925.999L584.409 915.59C560.15 915.139 535.764 915.481 511.496 915.574C502.264 915.609 492.941 916.045 483.718 915.726L482.323 916.132C480.139 908.731 479.291 891.376 478.257 882.721Q452.998 882.558 427.74 882.843L428.563 892.717C411.417 896.253 394.788 902.245 382.76 915.524C380.526 918.929 378.94 922.032 378.026 926.062Q377.569 934.013 377.394 941.975L377.551 946.354L334.531 946.454C334.561 940.557 334.617 934.666 334.398 928.771C334.096 934.628 334.162 940.503 334.142 946.365C329.692 946.305 324.973 946.537 320.568 946.048L320.454 818.59L320.354 627.922L334.484 627.905L383.93 627.933C391.578 627.901 399.412 627.401 407.034 627.69Z"/>
	<path fill="#E0EBC4" d="M709.237 687.327C706.459 697.618 709.939 709.311 706.712 719.3C699.434 719.075 662.924 720.438 659.203 718.977C660.101 716.951 660.606 714.642 661.232 712.513C678.929 707.246 695.03 699.219 709.237 687.327Z"/>
	<path fill="#054B15" d="M403.764 838.5C431.687 837.653 459.636 838.469 487.549 837.549Q488.544 846.786 489.855 855.984L415.432 856.02C413.01 855.952 410.587 855.997 408.165 856.017L407.447 856.013C404.678 851.896 404.743 843.468 403.764 838.5Z"/>
	<path fill="#FC0" d="M527.952 854.946C549.929 854.962 572.177 855.712 594.13 855.007C592.849 857.57 594.956 863.456 594.993 866.537Q586.873 866.406 578.753 866.515C579.527 871.966 580.226 877.438 580.368 882.949C563.691 882.381 546.926 882.809 530.242 882.943C529.305 877.632 529.436 871.919 528.703 866.516C527.938 862.684 527.988 858.835 527.952 854.946Z"/>
	<path fill="#FC0" d="M489.855 855.984C490.503 859.456 490.492 863.129 490.505 866.653C485.833 866.587 481.14 866.414 476.478 866.763C476.591 872.105 477.315 877.464 478.257 882.721Q452.998 882.558 427.74 882.843C427.211 877.686 427.445 872.299 427.158 867.101Q421.336 867.041 415.513 867.058Q415.54 861.539 415.432 856.02L489.855 855.984Z"/>
	<path fill="#D5CB5D" d="M478.309 747.246C479.255 747.915 479.477 748.589 479.878 749.642C483.866 760.117 486.247 771.104 489.394 781.838C493.441 795.644 498.078 809.255 501.815 823.157C504.555 833.353 506.321 844.51 509.849 854.406C515.804 855.21 521.951 854.974 527.952 854.946C527.988 858.835 527.938 862.684 528.703 866.516C515.977 866.952 503.235 866.747 490.505 866.653C490.492 863.129 490.503 859.456 489.855 855.984Q488.544 846.786 487.549 837.549C485.565 824.647 484.801 811.468 483.585 798.468L478.309 747.246Z"/>
	<path fill="white" d="M528.703 866.516C529.436 871.919 529.305 877.632 530.242 882.943C530.477 885.791 530.607 888.696 531.052 891.519C512.441 899.683 499.742 901.047 483.718 915.726L482.323 916.132C480.139 908.731 479.291 891.376 478.257 882.721C477.315 877.464 476.591 872.105 476.478 866.763C481.14 866.414 485.833 866.587 490.505 866.653C503.235 866.747 515.977 866.952 528.703 866.516Z"/>
	<path fill="#039" d="M530.242 882.943C546.926 882.809 563.691 882.381 580.368 882.949C581.594 893.851 582.582 904.765 584.409 915.59C560.15 915.139 535.764 915.481 511.496 915.574C502.264 915.609 492.941 916.045 483.718 915.726C499.742 901.047 512.441 899.683 531.052 891.519C530.607 888.696 530.477 885.791 530.242 882.943Z"/>
	<path fill="#946703" d="M659.203 718.977C662.924 720.438 699.434 719.075 706.712 719.3L706.59 719.881C705.757 723.986 704.65 739.795 702.323 742.038C701.087 742.276 700.037 742.397 698.767 742.382C693.818 741.441 687.355 742.143 682.271 742.055C669.77 741.633 657.114 741.842 644.605 742.028C637.762 742.127 630.82 741.996 623.996 742.451C617.264 742.456 577.802 741.204 574.653 742.885C573.145 735.503 571.357 727.531 571.035 720.006C571.721 719.217 574.121 719.357 575.238 719.278C583.103 719.814 656.802 720.04 659.203 718.977Z"/>
	<path fill="#D5CB5D" d="M574.653 742.885C577.802 741.204 617.264 742.456 623.996 742.451L619.652 821.823C618.838 836.462 616.783 851.825 617.642 866.442L617.518 866.857C610.301 866.002 602.314 866.656 594.993 866.537C594.956 863.456 592.849 857.57 594.13 855.007C594.616 852.737 576.652 752.665 574.653 742.885Z"/>
	<path fill="white" d="M623.996 742.451C630.82 741.996 637.762 742.127 644.605 742.028C657.114 741.842 669.77 741.633 682.271 742.055C687.355 742.143 693.818 741.441 698.767 742.382C700.692 756.753 704.233 770.825 707.453 784.947C709.12 792.256 710.371 799.878 712.423 807.067C711.558 808.051 711.363 808.021 710.003 808.13C706.468 808.411 702.689 808.189 699.142 808.092C698.814 808.138 698.486 808.187 698.158 808.229C686.121 809.774 669.261 803.889 660.544 814.776C655.172 821.487 655.629 830.772 656.699 838.818C657.092 841.77 657.53 844.909 658.563 847.711C658.504 855 657.365 876.006 658.967 881.961C659.228 882.931 659.748 883.644 660.443 884.362C660.594 884.518 660.755 884.664 660.911 884.814C661.551 895.985 659.8 919.699 662.277 928.626Q662.486 929.402 662.753 930.161Q663.019 930.919 663.34 931.656Q663.662 932.393 664.037 933.103Q664.413 933.814 664.839 934.495Q665.266 935.177 665.742 935.824Q666.219 936.472 666.741 937.083Q667.264 937.694 667.83 938.264Q668.397 938.834 669.004 939.361C672.809 942.677 677.385 944.449 682.099 946.033C659.317 946.535 636.445 945.572 613.652 945.592C604.282 945.599 594.732 945.382 585.402 946.198L585.361 943.068C585.9 937.45 585.552 931.642 585.494 925.999L584.409 915.59C582.582 904.765 581.594 893.851 580.368 882.949C580.226 877.438 579.527 871.966 578.753 866.515Q586.873 866.406 594.993 866.537C602.314 866.656 610.301 866.002 617.518 866.857L617.642 866.442C616.783 851.825 618.838 836.462 619.652 821.823L623.996 742.451Z"/>
	<path fill="#FC0" d="M617.642 866.442C622.354 866.375 626.805 866.921 631.003 864.405L630.617 867.513C629.473 891.204 624.665 914.879 622.359 938.494L613.764 938.611C614.385 922.048 615.585 905.408 616.487 888.85C616.886 881.517 617.67 874.209 617.518 866.857L617.642 866.442Z"/>
	<path fill="#FC0" d="M682.271 742.055C687.355 742.143 693.818 741.441 698.767 742.382C700.692 756.753 704.233 770.825 707.453 784.947C709.12 792.256 710.371 799.878 712.423 807.067C711.558 808.051 711.363 808.021 710.003 808.13C706.468 808.411 702.689 808.189 699.142 808.092C697.35 802.482 696.133 796.503 694.643 790.797L682.271 742.055Z"/>
	<path fill="#E0EBC4" d="M631.003 864.405Q634.394 832.59 638.112 800.812C639.854 785.492 641.121 769.939 643.959 754.777C645.748 760.333 645.209 769.446 645.471 775.416Q647.331 821.255 646.771 867.129C642.698 867.044 634.123 865.861 630.617 867.513L631.003 864.405Z"/>
	<path fill="#CA9706" d="M623.996 742.451C630.82 741.996 637.762 742.127 644.605 742.028Q644.417 748.409 643.959 754.777C641.121 769.939 639.854 785.492 638.112 800.812Q634.394 832.59 631.003 864.405C626.805 866.921 622.354 866.375 617.642 866.442C616.783 851.825 618.838 836.462 619.652 821.823L623.996 742.451Z"/>
	<path fill="#D5CB5D" d="M334.484 627.905L383.93 627.933C391.578 627.901 399.412 627.401 407.034 627.69C394.919 634.885 386.756 644.19 383.224 658.064Q382.109 662.601 381.596 667.245Q381.082 671.888 381.178 676.559C381.518 694.666 384.925 713.33 387.574 731.235L399.738 813.368C400.951 821.749 402.736 830.107 403.764 838.5C404.743 843.468 404.678 851.896 407.447 856.013L408.165 856.017C410.587 855.997 413.01 855.952 415.432 856.02Q415.54 861.539 415.513 867.058Q421.336 867.041 427.158 867.101C427.445 872.299 427.211 877.686 427.74 882.843L428.563 892.717C411.417 896.253 394.788 902.245 382.76 915.524C380.526 918.929 378.94 922.032 378.026 926.062Q377.569 934.013 377.394 941.975L377.551 946.354L334.531 946.454C334.561 940.557 334.617 934.666 334.398 928.771C334.096 934.628 334.162 940.503 334.142 946.365C329.692 946.305 324.973 946.537 320.568 946.048L320.454 818.59L320.354 627.922L334.484 627.905Z"/>
	<path d="M320.354 627.922L334.484 627.905L334.495 826.671L334.398 928.771C334.096 934.628 334.162 940.503 334.142 946.365C329.692 946.305 324.973 946.537 320.568 946.048L320.454 818.59L320.354 627.922Z"/>
	<path fill="white" d="M334.495 826.671C345.216 831.819 398.956 855.92 407.447 856.013L408.165 856.017C410.587 855.997 413.01 855.952 415.432 856.02Q415.54 861.539 415.513 867.058Q421.336 867.041 427.158 867.101C427.445 872.299 427.211 877.686 427.74 882.843L428.563 892.717C411.417 896.253 394.788 902.245 382.76 915.524C380.526 918.929 378.94 922.032 378.026 926.062Q377.569 934.013 377.394 941.975L377.551 946.354L334.531 946.454C334.561 940.557 334.617 934.666 334.398 928.771L334.495 826.671Z"/>
	<path fill="#9ACA3C" d="M408.165 856.017C410.587 855.997 413.01 855.952 415.432 856.02Q415.54 861.539 415.513 867.058C412.318 867.121 409.343 867.303 406.264 866.265C404.209 865.572 402.71 864.879 401.687 862.89C401.643 862.155 401.61 861.52 401.912 860.826C402.704 859.005 403.755 857.965 405.627 857.321C406.453 857.037 407.011 856.893 407.743 856.374C407.894 856.267 408.025 856.136 408.165 856.017Z"/>
	<path fill="#D5CB5D" d="M295.303 107.315C297.317 96.8476 300.84 87.0496 306.236 77.8337C317.506 58.5831 335.567 44.2271 357.257 38.6008C378.1 33.1941 402.306 35.2688 420.722 47.0851C426.606 50.8604 431.476 56.1446 437.527 59.6447C437.712 59.7517 437.9 59.8534 438.086 59.9578L438.964 59.9459C456.774 56.1477 481.506 55.9947 499.821 55.8717C596.757 55.2208 691.496 79.7644 773.12 132.64C846.288 180.039 900.193 244.918 935.742 324.472C946.089 347.626 956.146 375.225 961.43 400.068Q963.471 409.453 965.08 418.922Q966.688 428.392 967.86 437.925Q969.033 447.458 969.766 457.034Q970.499 466.611 970.792 476.211Q971.085 485.812 970.937 495.415Q970.789 505.019 970.2 514.606Q969.612 524.193 968.583 533.742Q967.555 543.292 966.09 552.784C964.327 564.542 962.438 576.316 959.481 587.842C956.812 598.247 953.046 608.403 949.537 618.55C943.825 635.068 937.521 651.255 929.239 666.684C931.267 671.428 930.496 674.854 928.663 679.493C914.887 714.357 891.919 744.627 870.106 774.704C866.087 780.247 861.7 785.595 857.844 791.241C850.715 791.321 843.575 791.273 836.449 791.426L832.743 791.56Q825.148 791.729 817.553 791.541L800.107 791.514L797.18 791.523C786.983 791.339 776.627 792.263 766.537 790.489C763.004 790.156 756.827 788.89 753.761 791.243C752.951 791.865 752.442 792.55 752.313 793.6C751.79 797.87 759.692 804.465 762.566 807.386C758.977 808.832 717.287 808.969 713.002 808.069L712.423 807.067C710.371 799.878 709.12 792.256 707.453 784.947C704.233 770.825 700.692 756.753 698.767 742.382C700.037 742.397 701.087 742.276 702.323 742.038C704.65 739.795 705.757 723.986 706.59 719.881L706.712 719.3C709.939 709.311 706.459 697.618 709.237 687.327C712.44 684.2 715.338 680.726 718.304 677.375C724.586 666.624 728.959 655.744 730.01 643.291C730.316 639.352 730.39 635.497 730.313 631.547C730.176 630.926 729.936 630.25 729.754 629.638C726.103 627.784 714.002 628.871 709.197 628.819C706.131 628.757 703.043 628.868 699.975 628.903C693.033 629.693 685.796 629.357 678.819 629.283C671.032 629.202 663.22 629.226 655.44 628.868C653.871 628.403 651.951 628.531 650.308 628.485C643.359 629.673 635.063 628.433 627.998 628.328C620.013 628.21 611.652 628.821 603.73 627.924C596.135 626.758 585.843 627.847 577.92 627.778Q537.094 627.593 496.269 627.894C487.739 626.436 471.68 627.419 462.333 627.425C444.01 627.437 425.315 626.718 407.034 627.69C399.412 627.401 391.578 627.901 383.93 627.933L334.484 627.905L320.354 627.922L320.454 818.59C308.017 811.141 296.34 802.626 284.065 794.954C270.035 812.631 250.41 823.504 227.963 826.156C220.163 827.077 210.461 827.605 202.798 825.52C197.948 831.66 193.708 838.032 190.022 844.938C188.726 845.715 186.616 845.299 185.184 845.059C183.595 845.942 181.042 845.537 179.254 845.494C179.393 837.516 179.583 829.438 179.101 821.472C178.843 829.427 178.958 837.401 178.975 845.359C176.666 845.314 174.298 845.156 171.999 845.381L171.89 764.561C171.509 760.597 171.726 756.47 171.72 752.483C164.445 752.682 158.581 752.372 151.516 750.525C137.332 750.625 116.391 740.75 104.855 732.819C70.6488 709.301 56.0246 666.551 48.863 627.513C58.758 628.27 68.2694 629.018 78.0427 630.845C79.2036 627.258 59.951 577.129 59.427 565.408C47.28 537.231 44.1778 518.686 44.4589 488.338L51.6189 489.265L52.8944 489.047C54.4205 486.527 54.4531 462.93 54.9066 457.484Q56.1472 443.802 58.4024 430.251C66.1608 384.841 78.721 343.766 99.8138 302.651Q102.582 297.179 105.501 291.787Q108.42 286.394 111.488 281.085Q114.556 275.776 117.771 270.555Q120.986 265.333 124.345 260.203Q127.704 255.073 131.205 250.039Q134.705 245.004 138.345 240.069Q141.985 235.134 145.76 230.303Q149.536 225.471 153.445 220.746Q157.353 216.022 161.392 211.408Q165.431 206.794 169.597 202.294Q173.762 197.794 178.052 193.413Q182.341 189.031 186.751 184.77Q191.161 180.509 195.688 176.373Q200.215 172.237 204.855 168.229Q209.495 164.22 214.246 160.343Q218.996 156.465 223.852 152.721C237.826 141.854 251.681 131.901 267.024 123.091C273.211 119.538 289.384 109.216 295.303 107.315Z"/>
	<path fill="#9ACA3C" d="M760.74 405.974C765.669 405.935 773.345 404.915 777.954 406.492C776.317 409.657 775.274 413.235 774.601 416.729C770.346 414.772 763.118 410.073 760.74 405.974Z"/>
	<path fill="#FC0" d="M308.998 470.837C314.564 464.916 321.478 459.232 328.002 454.387L332.165 457.658C327.388 461.579 323.475 466.944 318.603 470.537L315.393 470.629C313.337 470.371 311.072 470.712 308.998 470.837Z"/>
	<path fill="white" d="M282.398 681.59C283.865 681.522 285.509 681.554 286.915 682.017C289.375 682.829 291.553 684.733 292.686 687.063Q292.869 687.434 293.013 687.822Q293.156 688.209 293.258 688.61Q293.36 689.011 293.419 689.42Q293.479 689.829 293.495 690.242Q293.512 690.656 293.485 691.068Q293.458 691.481 293.388 691.888Q293.318 692.296 293.206 692.694Q293.093 693.092 292.94 693.476C291.88 696.102 289.839 697.491 287.356 698.625C285.853 698.809 284.103 698.888 282.617 698.559C280.491 698.089 278.549 696.661 277.402 694.82C276.167 692.836 275.893 690.401 276.499 688.16C277.397 684.838 279.528 683.213 282.398 681.59Z"/>
	<path fill="white" d="M116.033 387.563C117.593 387.46 119.251 387.278 120.802 387.533C123.252 387.936 125.526 389.509 126.847 391.6C128.188 393.723 128.54 396.445 127.872 398.858C126.889 402.41 124.653 404.288 121.526 405.97C119.989 406.061 118.401 406.173 116.881 405.873C114.307 405.364 111.955 403.543 110.624 401.31Q110.377 400.896 110.177 400.458Q109.976 400.021 109.823 399.564Q109.67 399.107 109.567 398.637Q109.464 398.166 109.412 397.687Q109.36 397.208 109.36 396.727Q109.359 396.245 109.411 395.766Q109.462 395.287 109.564 394.817Q109.666 394.346 109.818 393.889C110.882 390.62 113.107 389.085 116.033 387.563Z"/>
	<path fill="white" d="M757.053 489.079C758.809 488.859 760.683 488.719 762.421 489.136C764.93 489.737 767.202 491.48 768.496 493.704Q768.762 494.169 768.978 494.66Q769.195 495.15 769.359 495.66Q769.524 496.17 769.635 496.695Q769.746 497.219 769.802 497.752Q769.858 498.286 769.858 498.822Q769.859 499.358 769.804 499.891Q769.75 500.424 769.64 500.949Q769.53 501.473 769.367 501.984C768.249 505.483 765.919 507.337 762.755 508.946C760.918 509.372 759.083 509.486 757.242 509.001Q756.759 508.876 756.291 508.701Q755.823 508.526 755.376 508.304Q754.928 508.082 754.506 507.816Q754.084 507.549 753.692 507.24Q753.3 506.93 752.941 506.583Q752.583 506.235 752.263 505.852Q751.942 505.469 751.663 505.055Q751.384 504.641 751.149 504.2Q750.883 503.7 750.671 503.175Q750.459 502.65 750.303 502.106Q750.147 501.561 750.049 501.004Q749.951 500.446 749.912 499.881Q749.872 499.316 749.893 498.75Q749.913 498.185 749.992 497.624Q750.072 497.063 750.209 496.514Q750.347 495.965 750.541 495.433C751.718 492.173 754.042 490.524 757.053 489.079Z"/>
	<path fill="white" d="M904.063 532.587C905.467 532.506 906.942 532.484 908.328 532.767C910.991 533.31 913.526 534.993 915.028 537.259Q915.337 537.731 915.595 538.233Q915.852 538.735 916.056 539.261Q916.259 539.788 916.406 540.332Q916.553 540.877 916.642 541.434Q916.731 541.992 916.761 542.555Q916.791 543.119 916.762 543.682Q916.732 544.246 916.643 544.803Q916.555 545.36 916.408 545.905C915.382 549.835 912.836 551.873 909.428 553.758C907.4 553.996 905.442 554.219 903.475 553.522C900.706 552.54 898.436 550.287 897.279 547.608Q897.049 547.083 896.872 546.539Q896.695 545.994 896.573 545.434Q896.451 544.874 896.386 544.305Q896.321 543.735 896.313 543.163Q896.305 542.59 896.354 542.019Q896.404 541.448 896.51 540.885Q896.616 540.322 896.777 539.772Q896.939 539.223 897.155 538.692C898.529 535.365 900.898 533.973 904.063 532.587Z"/>
	<path fill="white" d="M453.553 242.049C454.533 242.002 455.529 241.949 456.51 242.012C459.302 242.193 462.242 243.768 463.922 246.001C466.476 249.398 466.395 253.042 465.886 257.037C463.731 260.351 462.137 261.61 458.54 263.256C456.6 263.493 454.888 263.435 452.998 262.877Q452.477 262.72 451.974 262.511Q451.472 262.301 450.994 262.041Q450.516 261.781 450.067 261.473Q449.618 261.165 449.203 260.812Q448.789 260.46 448.412 260.067Q448.036 259.673 447.702 259.244Q447.368 258.814 447.08 258.352Q446.792 257.89 446.553 257.401Q446.308 256.897 446.117 256.369Q445.925 255.842 445.79 255.298Q445.654 254.754 445.576 254.198Q445.498 253.643 445.478 253.082Q445.458 252.522 445.496 251.962Q445.534 251.403 445.63 250.85Q445.727 250.298 445.88 249.758Q446.033 249.219 446.241 248.698C447.633 245.216 450.214 243.46 453.553 242.049Z"/>
	<path fill="#FC0" d="M310.737 479.549C307.788 483.995 303.751 488.02 300.257 492.066C288.904 505.213 276.836 517.911 264.783 530.423C261.484 533.848 258.283 538.108 254.523 540.988L253.861 540.775C253.19 537.085 255.559 531.329 257.232 528.03C259.156 524.236 262.246 520.248 265.008 517.027C270.204 510.97 305.974 473.948 309.245 472.871C309.724 475.094 310.131 477.36 310.737 479.549Z"/>
	<path fill="white" d="M536.033 96.137C538.858 95.8495 541.73 95.6056 544.465 96.5376Q545.219 96.7921 545.944 97.1208Q546.668 97.4496 547.356 97.8493Q548.044 98.249 548.688 98.7156Q549.333 99.1823 549.927 99.7111Q550.522 100.24 551.06 100.826Q551.599 101.412 552.076 102.048Q552.553 102.685 552.964 103.367Q553.375 104.048 553.715 104.767Q554.059 105.472 554.326 106.21Q554.594 106.947 554.783 107.709Q554.971 108.47 555.079 109.247Q555.187 110.025 555.212 110.809Q555.238 111.593 555.181 112.375Q555.124 113.158 554.985 113.93Q554.846 114.702 554.627 115.456Q554.408 116.209 554.111 116.935C552.175 121.657 548.561 124.186 544.045 126.171C540.813 126.641 537.772 126.807 534.643 125.684Q533.954 125.441 533.293 125.129Q532.631 124.817 532.005 124.439Q531.379 124.062 530.794 123.624Q530.209 123.185 529.672 122.689Q529.134 122.194 528.65 121.646Q528.165 121.099 527.738 120.505Q527.312 119.912 526.947 119.278Q526.583 118.644 526.284 117.977C524.503 114.057 524.521 109.446 526.116 105.467C528.059 100.622 531.418 98.1208 536.033 96.137Z"/>
	<path fill="white" d="M643.44 248.075C647.82 247.789 651.357 247.952 655.286 250.159C659.827 252.709 663.275 257.33 664.634 262.338C665.908 267.037 665.047 272.017 662.644 276.211C659.779 281.21 655.488 283.891 650.096 285.455C646.02 285.798 642.431 285.63 638.696 283.774C633.98 281.431 630.388 276.852 628.862 271.848C627.335 266.841 628.259 261.442 630.901 256.974C633.802 252.067 638.041 249.48 643.44 248.075Z"/>
	<defs>
		<linearGradient id="gradient_0" gradientUnits="userSpaceOnUse" x1="372.75369" y1="124.41786" x2="467.84186" y2="170.00188">
			<stop offset="0" stop-color="#003108"/>
			<stop offset="1" stop-color="#205416"/>
		</linearGradient>
	</defs>
	<path fill="url(#gradient_0)" d="M438.086 59.9578L438.964 59.9459C456.103 69.2108 469.375 88.1927 474.795 106.646Q475.094 107.678 475.368 108.717Q475.641 109.756 475.889 110.801Q476.138 111.846 476.36 112.897Q476.583 113.948 476.78 115.004Q476.977 116.06 477.148 117.121Q477.319 118.182 477.464 119.246Q477.609 120.31 477.728 121.378Q477.847 122.446 477.94 123.516Q478.033 124.586 478.1 125.659Q478.167 126.731 478.208 127.804Q478.249 128.878 478.263 129.952Q478.278 131.026 478.266 132.1Q478.255 133.175 478.217 134.248Q478.179 135.322 478.115 136.394Q478.051 137.467 477.96 138.537Q477.87 139.608 477.754 140.676Q477.638 141.744 477.495 142.809Q477.353 143.873 477.185 144.934Q477.016 145.995 476.822 147.052Q476.628 148.109 476.409 149.16Q476.189 150.212 475.943 151.258Q475.698 152.304 475.427 153.343Q475.156 154.383 474.86 155.416Q474.564 156.448 474.243 157.473Q473.922 158.499 473.575 159.516Q473.229 160.533 472.858 161.541Q472.487 162.549 472.092 163.548Q471.697 164.547 471.277 165.536Q470.858 166.525 470.414 167.503Q469.97 168.482 469.503 169.449Q469.036 170.416 468.545 171.372Q468.054 172.328 467.54 173.271C455.551 194.987 436.65 209.717 412.831 216.481C391.806 222.452 367.624 219.087 348.638 208.417C342.355 204.886 330.678 197.34 327.14 191.026Q328.44 192.041 329.776 193.007Q331.112 193.974 332.483 194.891Q333.853 195.808 335.256 196.675Q336.659 197.541 338.093 198.356Q339.527 199.17 340.99 199.932Q342.452 200.693 343.942 201.401Q345.432 202.108 346.946 202.761Q348.46 203.414 349.998 204.01Q351.535 204.607 353.093 205.147Q354.651 205.687 356.228 206.17Q357.805 206.653 359.398 207.078Q360.992 207.503 362.599 207.869Q364.207 208.236 365.827 208.543Q367.448 208.85 369.078 209.098Q370.708 209.346 372.347 209.534Q373.985 209.722 375.629 209.85C397.094 211.43 418.859 203.67 435.048 189.577Q435.826 188.908 436.588 188.22Q437.349 187.532 438.093 186.825Q438.837 186.119 439.563 185.394Q440.29 184.669 440.998 183.926Q441.706 183.183 442.395 182.423Q443.084 181.663 443.754 180.886Q444.425 180.108 445.075 179.315Q445.726 178.521 446.357 177.712Q446.987 176.902 447.598 176.078Q448.208 175.253 448.798 174.413Q449.388 173.573 449.956 172.719Q450.525 171.865 451.072 170.997Q451.619 170.128 452.145 169.247Q452.67 168.366 453.174 167.471Q453.677 166.577 454.158 165.671Q454.639 164.764 455.097 163.846Q455.556 162.928 455.991 161.999Q456.427 161.069 456.839 160.13Q457.251 159.19 457.639 158.24Q458.028 157.29 458.393 156.331Q458.758 155.372 459.099 154.404Q459.44 153.436 459.756 152.46Q460.073 151.484 460.366 150.501Q460.658 149.517 460.926 148.526Q461.194 147.536 461.437 146.539Q461.68 145.542 461.898 144.539Q462.117 143.536 462.31 142.529Q462.503 141.521 462.671 140.509Q462.84 139.496 462.982 138.48Q463.125 137.464 463.243 136.444Q463.361 135.425 463.453 134.403Q463.545 133.381 463.612 132.357C465.355 104.96 455.977 80.4398 438.086 59.9578Z"/>
	<path fill="#9ACA3C" d="M178.569 635.977C181.203 632.023 182.582 623.936 184.669 619.099C192.406 601.16 206.02 583.131 221.834 571.464C242.072 556.533 267.662 546.294 293.127 550.27C295.105 550.579 298.349 550.845 299.581 552.533L299.266 553.893L298.688 553.375C294.685 555.727 291.05 559.531 287.496 562.537Q276.044 572.203 264.366 581.594C260.601 584.673 257.012 588.223 252.901 590.82C246.476 594.039 240.767 598.554 235.026 602.833C213.504 618.873 193.631 636.837 178.512 659.148C178.525 651.458 178.245 643.652 178.569 635.977Z"/>
	<path fill="#054B15" d="M722.909 494.509L724.785 494.586Q727.056 505.245 728.381 516.063Q729.706 526.881 730.076 537.773C730.893 543.564 730.456 549.585 730.779 555.43C731.543 569.23 731.62 583.002 731.829 596.819C731.989 607.404 732.403 618.061 732.02 628.64C731.505 629.212 731.117 629.559 730.482 630.028L730.313 631.547C730.176 630.926 729.936 630.25 729.754 629.638C726.103 627.784 714.002 628.871 709.197 628.819C706.131 628.757 703.043 628.868 699.975 628.903C693.033 629.693 685.796 629.357 678.819 629.283C671.032 629.202 663.22 629.226 655.44 628.868C653.871 628.403 651.951 628.531 650.308 628.485C643.359 629.673 635.063 628.433 627.998 628.328C620.013 628.21 611.652 628.821 603.73 627.924C607.972 626.995 613.282 627.526 617.624 627.521C627.086 627.51 668.904 628.772 675.158 624.473C676.509 623.543 677.36 622.158 677.614 620.545C677.86 618.984 677.337 617.145 676.229 615.993C675.116 614.837 674.294 614.758 672.797 614.635C668.671 608.953 662.21 608.498 659.842 603.536C674.19 599.224 688.108 590.642 698.16 579.519C718.687 556.804 724.416 524.243 722.909 494.509Z"/>
	<path fill="#477B2F" d="M730.076 537.773C730.893 543.564 730.456 549.585 730.779 555.43C731.543 569.23 731.62 583.002 731.829 596.819C731.989 607.404 732.403 618.061 732.02 628.64C731.505 629.212 731.117 629.559 730.482 630.028L730.313 631.547C730.176 630.926 729.936 630.25 729.754 629.638C726.103 627.784 714.002 628.871 709.197 628.819C706.131 628.757 703.043 628.868 699.975 628.903C718.343 600.932 730.306 571.71 730.076 537.773Z"/>
	<path fill="#054B15" d="M758.579 207.998C758.535 201.119 757.291 191.106 762.294 185.67C765.04 182.688 769.024 181.355 773 181.241C778.355 181.089 783.81 183.053 787.656 186.82C793.433 192.477 792.611 200.631 792.558 208.031L802.082 208.035C802.105 203.819 802.114 199.616 802.417 195.408C802.31 192.218 801.979 188.314 803.052 185.285L803.774 184.999C805.503 186.604 805.816 188.629 806.072 190.876C806.624 196.539 806.359 202.37 806.36 208.059Q814.971 208.025 823.565 207.491C823.689 212.389 823.876 217.294 823.798 222.194C823.606 224.823 823.455 227.433 823.398 230.069C823.003 234.879 823.092 239.712 823.099 244.535L737.012 244.55L737.121 238.255C737.629 233.401 737.981 227.616 737.21 222.81C736.903 217.815 737.104 212.706 737.089 207.697L758.579 207.998Z"/>
	<path d="M802.417 195.408C802.31 192.218 801.979 188.314 803.052 185.285L803.774 184.999C805.503 186.604 805.816 188.629 806.072 190.876L806.017 191.504C805.764 194.652 806.564 205.023 805.235 207.076L804.21 207.322C803.181 206.571 802.905 206.085 802.695 204.801C802.192 201.73 802.915 198.512 802.417 195.408Z"/>
	<path fill="#D5CB5D" d="M765.844 207.996C764.838 208.019 764.023 207.967 763.043 207.74C761.423 205.461 761.827 199.604 762.025 196.639C762.276 192.888 763.709 189.26 766.703 186.864Q767.151 186.504 767.634 186.192Q768.116 185.879 768.628 185.616Q769.139 185.354 769.674 185.144Q770.21 184.934 770.763 184.78Q771.317 184.625 771.883 184.527Q772.45 184.428 773.023 184.388Q773.597 184.347 774.171 184.364Q774.746 184.381 775.316 184.456C779.574 184.999 783.234 187.543 785.845 190.834C785.667 190.812 785.486 190.805 785.31 190.768C784.434 190.585 783.93 190.261 783.156 189.856C780.538 188.488 777.026 188.894 774.289 189.826C771.349 190.827 769.107 192.928 767.8 195.737C765.864 199.898 766.395 203.687 765.844 207.996Z"/>
	<path fill="#D5CB5D" d="M765.844 207.996C766.395 203.687 765.864 199.898 767.8 195.737C769.107 192.928 771.349 190.827 774.289 189.826C777.026 188.894 780.538 188.488 783.156 189.856C783.93 190.261 784.434 190.585 785.31 190.768C785.486 190.805 785.667 190.812 785.845 190.834C786.625 191.67 787.156 192.411 787.698 193.417C788.856 198.261 789.157 202.929 789.23 207.895C781.692 208.351 773.173 206.751 765.844 207.996Z"/>
	<path fill="#9ACA3C" d="M765.844 207.996C766.395 203.687 765.864 199.898 767.8 195.737C769.107 192.928 771.349 190.827 774.289 189.826C777.026 188.894 780.538 188.488 783.156 189.856C783.93 190.261 784.434 190.585 785.31 190.768C785.486 190.805 785.667 190.812 785.845 190.834C786.625 191.67 787.156 192.411 787.698 193.417C782.753 193.595 776.043 193.057 772.325 196.88C769.588 199.693 768.888 203.788 768.027 207.469C775.02 207.476 782.284 207.124 789.23 207.895C781.692 208.351 773.173 206.751 765.844 207.996Z"/>
	<path fill="white" d="M179.066 678.806C190.1 701.8 207.097 722.641 223.394 742.113C227.492 747.009 231.45 752.121 235.699 756.875C217.727 767.062 204.971 783.841 199.363 803.801C197.633 809.96 195.722 818.067 196.794 824.458C192.228 830.962 188.186 837.67 185.184 845.059C183.595 845.942 181.042 845.537 179.254 845.494C179.393 837.516 179.583 829.438 179.101 821.472L178.904 752.555C179.669 728.023 178.561 703.365 179.066 678.806Z"/>
	<path fill="#477B2F" d="M252.901 590.82C257.012 588.223 260.601 584.673 264.366 581.594Q276.044 572.203 287.496 562.537C291.05 559.531 294.685 555.727 298.688 553.375L299.266 553.893C292.607 591.121 282.094 623.248 249.485 646.029C233.994 656.851 214.078 664.91 195.307 667.684C190.995 668.321 181.949 667.933 178.841 668.841C178.677 667.691 182.222 663.323 183.095 662.014C188.437 654.004 194.207 646.444 200.907 639.5C211.998 628.005 224.239 615.613 236.287 605.155C239.521 602.348 251.394 593.813 252.901 590.82Z"/>
	<path fill="white" d="M648.577 158.311C645.446 150.52 645.257 142.214 648.509 134.381C651.508 127.159 657.444 120.762 664.802 117.926Q665.295 117.733 665.797 117.566Q666.299 117.398 666.809 117.256Q667.319 117.115 667.835 116.999Q668.352 116.884 668.873 116.795Q669.395 116.706 669.92 116.643Q670.446 116.581 670.974 116.546Q671.502 116.51 672.031 116.502Q672.56 116.493 673.089 116.512Q673.618 116.53 674.145 116.576Q674.673 116.621 675.197 116.694Q675.721 116.766 676.241 116.865Q676.761 116.964 677.275 117.089Q677.789 117.215 678.296 117.366Q678.803 117.517 679.302 117.695Q679.801 117.872 680.29 118.074Q680.779 118.276 681.257 118.503C687.383 121.338 691.882 126.667 694.052 133.012C695.188 136.333 695.616 139.611 695.653 143.114C700.542 138.376 705.377 134.069 712.681 134.355C717.022 134.525 721.207 136.128 724.197 139.34C727.375 142.755 729.131 148.312 728.747 152.932Q728.643 154.077 728.462 155.212C734.272 156.067 739.553 157.414 743.312 162.371Q743.738 162.929 744.105 163.529Q744.471 164.128 744.774 164.762Q745.076 165.396 745.312 166.057Q745.548 166.719 745.714 167.401Q745.88 168.084 745.976 168.78Q746.071 169.476 746.094 170.178Q746.116 170.88 746.067 171.581Q746.017 172.281 745.896 172.973C745.575 174.857 744.804 176.466 743.938 178.151C716.686 177.84 689.439 178.434 662.178 178.15C651.634 178.04 640.58 178.665 630.108 177.543C629.532 174.175 628.365 171.341 626.931 168.277C629.765 163.764 632.591 159.561 638.127 158.279C641.472 157.504 645.203 157.908 648.577 158.311Z"/>
	<path d="M171.891 525.531C175.21 522.988 180.365 505.388 182.483 500.471C190.992 480.712 199.668 461.219 209.323 441.996C213.729 433.226 218.019 424.143 223.527 415.997C221.203 424.913 216.595 433.784 213.008 442.306L192.486 490.29C188.007 500.711 183.149 511.116 179.604 521.896C178.819 522.831 178.653 523.479 178.574 524.657C178.169 530.663 178.481 536.893 178.482 542.919L178.441 575.315L178.387 613.319C178.381 620.837 178.136 628.476 178.569 635.977C178.245 643.652 178.525 651.458 178.512 659.148C193.631 636.837 213.504 618.873 235.026 602.833C240.767 598.554 246.476 594.039 252.901 590.82C251.394 593.813 239.521 602.348 236.287 605.155C224.239 615.613 211.998 628.005 200.907 639.5C194.207 646.444 188.437 654.004 183.095 662.014C182.222 663.323 178.677 667.691 178.841 668.841C179.183 688.494 178.497 708.299 178.501 727.975C178.503 736.078 178.064 744.507 178.904 752.555L179.101 821.472C178.843 829.427 178.958 837.401 178.975 845.359C176.666 845.314 174.298 845.156 171.999 845.381L171.89 764.561C171.509 760.597 171.726 756.47 171.72 752.483C164.445 752.682 158.581 752.372 151.516 750.525C147.241 743.319 140.718 735.793 135.857 728.697C124.272 711.782 113.026 694.4 102.229 676.972C99.849 674.865 97.4464 672.884 94.8945 670.989C121.388 682.126 156.112 709.654 171.689 733.866C171.5 721.466 172.036 708.9 171.491 696.533C172.223 672.627 171.397 648.671 171.602 624.755C172.113 620.732 172.01 616.367 171.655 612.326C157.795 590.991 138.397 571.168 118.22 555.756C110.752 550.052 102.75 544.957 94.9408 539.734C107.771 542.752 140.462 567.832 150.2 577.485C158.196 585.412 165.837 594.851 171.946 604.311C171.902 599.267 172.426 577.031 171.52 573.684C171.748 562.779 171.539 551.829 171.541 540.919C171.542 535.992 171.023 530.363 171.891 525.531Z"/>
	<path fill="#477B2F" d="M102.229 676.972C107.246 679.215 112.171 683.241 116.624 686.476C134.594 699.528 162.754 722.839 171.001 743.735C173.192 749.288 172.303 758.584 171.89 764.561C171.509 760.597 171.726 756.47 171.72 752.483C164.445 752.682 158.581 752.372 151.516 750.525C147.241 743.319 140.718 735.793 135.857 728.697C124.272 711.782 113.026 694.4 102.229 676.972Z"/>
	<path fill="#477B2F" d="M235.699 756.875C246.252 751.512 256.013 747.318 267.971 746.752C274.513 746.442 297.074 748.669 301.91 753.031L301.792 754.002C298.179 769.133 293.496 782.413 284.065 794.954C270.035 812.631 250.41 823.504 227.963 826.156C220.163 827.077 210.461 827.605 202.798 825.52C197.948 831.66 193.708 838.032 190.022 844.938C188.726 845.715 186.616 845.299 185.184 845.059C188.186 837.67 192.228 830.962 196.794 824.458C195.722 818.067 197.633 809.96 199.363 803.801C204.971 783.841 217.727 767.062 235.699 756.875Z"/>
	<path fill="#9ACA3C" d="M235.699 756.875C246.252 751.512 256.013 747.318 267.971 746.752C274.513 746.442 297.074 748.669 301.91 753.031L301.792 754.002C296.636 752.811 258.154 771.605 251.696 775.606C251.061 775.999 251.268 775.839 250.833 776.251C249.62 778.804 245.07 781.69 242.869 783.554C233.083 791.846 224.402 800.821 215.706 810.242C211.242 815.079 206.353 819.957 202.798 825.52C197.948 831.66 193.708 838.032 190.022 844.938C188.726 845.715 186.616 845.299 185.184 845.059C188.186 837.67 192.228 830.962 196.794 824.458C195.722 818.067 197.633 809.96 199.363 803.801C204.971 783.841 217.727 767.062 235.699 756.875Z"/>
	<path d="M250.833 776.251C249.62 778.804 245.07 781.69 242.869 783.554C233.083 791.846 224.402 800.821 215.706 810.242C211.242 815.079 206.353 819.957 202.798 825.52C197.948 831.66 193.708 838.032 190.022 844.938C188.726 845.715 186.616 845.299 185.184 845.059C188.186 837.67 192.228 830.962 196.794 824.458C211.588 804.98 229.403 788.21 250.833 776.251Z"/>
	<path fill="#039" d="M562.069 169.674C564.916 164.01 568.853 159.524 574.15 156.018C583.919 149.554 594.481 148.738 605.678 151.028C615.518 154.618 621.336 159.44 626.931 168.277C628.365 171.341 629.532 174.175 630.108 177.543L628.968 179.973C634.313 180.397 639.621 179.76 644.943 180.576L645.868 180.71C654.152 184.011 661.217 187.622 665.069 196.271C667.353 201.401 668.023 207.135 668.081 212.703L645.564 212.626L509.235 212.61C509.172 209.143 509.072 205.618 509.259 202.155C509.765 192.796 513.382 183.976 520.535 177.76C527.075 172.076 535.326 169.544 543.926 170.162C552.709 170.792 557.988 174.809 563.517 181.214C562.703 177.367 562.293 173.594 562.069 169.674Z"/>
	<path fill="#9ACA3C" d="M48.863 627.513C58.758 628.27 68.2694 629.018 78.0427 630.845C109.037 636.55 142.295 652.924 160.497 679.508C164.3 685.062 167.531 691.116 171.491 696.533C172.036 708.9 171.5 721.466 171.689 733.866C156.112 709.654 121.388 682.126 94.8945 670.989C97.4464 672.884 99.849 674.865 102.229 676.972C113.026 694.4 124.272 711.782 135.857 728.697C140.718 735.793 147.241 743.319 151.516 750.525C137.332 750.625 116.391 740.75 104.855 732.819C70.6488 709.301 56.0246 666.551 48.863 627.513Z"/>
	<path fill="#9ACA3C" d="M790.875 605.832C783.707 594.452 778.853 579.576 779.508 566.025C779.873 558.456 782.436 551.248 788.264 546.121C793.139 541.833 799.505 539.458 806.016 539.944C812.331 540.415 817.777 543.81 821.738 548.631C833.655 563.131 830.703 590.056 828.911 607.651C832.932 609.323 837.323 611.259 841.553 612.249C837.022 613.172 833.448 614.34 830.792 618.461C827.088 624.208 828.038 631.877 829.56 638.19C833.294 653.688 840.031 668.346 843.854 683.94C837.589 682.418 829.306 679.855 823.34 683.543C821.088 684.935 819.689 687.131 819.209 689.72C817.363 699.68 829.584 720.828 832.642 731.413C828.74 731.425 825.754 731.645 822.101 733.219C820.927 733.725 819.696 734.672 818.507 735.018C817.861 735.849 817.789 736.287 816.743 736.567L815.987 733.79C816.237 738.434 816.354 743.418 817.745 747.89C814.76 746.608 811.518 746.324 808.626 744.803C807.757 742.278 812.338 733.788 812.388 729.765C812.531 718.395 798.774 722.236 793.502 716.221C789.064 711.156 794.828 699.48 795.537 693.676C795.795 691.562 795.413 689.711 793.989 688.054C788.718 681.922 778.724 682.491 771.367 681.926C771.407 681.346 771.455 680.819 771.596 680.253C773.924 670.98 781.883 665.019 789.614 660.371C786.61 653.673 782.158 647.563 778.97 640.917C775.813 634.333 772.538 625.602 775.287 618.389C777.921 611.477 784.579 608.564 790.875 605.832Z"/>
	<path d="M815.547 720.976C814.37 713.324 814.216 705.198 813.646 697.455L809.914 639.218Q808.193 615.875 806.184 592.554C805.433 584.119 802.635 564.692 804.028 557.255L804.56 556.898C805.567 558.151 805.873 559.703 806.122 561.263C806.817 565.631 806.933 570.227 807.31 574.644L809.563 601.652C812.615 639.501 814.256 677.409 817.156 715.255Q817.911 725.131 818.507 735.018C817.861 735.849 817.789 736.287 816.743 736.567L815.987 733.79C816.202 729.587 815.547 725.222 815.547 720.976Z"/>
	<path fill="white" d="M171.715 302.569C173.237 293.675 176.699 286.244 183.496 280.141C189.733 274.543 199.482 269.742 208.03 270.259L208.954 270.368C215.605 271.099 221.932 269.77 228.554 271.752C241.746 275.699 253.188 286.394 263.754 294.843C268.031 298.262 272.522 301.489 276.677 305.05C280.134 308.011 283.361 311.542 287.025 314.217C288.078 314.986 289.011 315.288 290.281 315.51L318.035 315.402C323.892 315.382 330.413 314.812 336.156 315.995C339.904 316.767 343.376 318.465 346.105 321.157C347.015 322.054 347.891 322.969 348.649 323.999C351.445 328.903 353.057 333.499 354.214 339.008C278.004 339.988 201.714 339.363 125.494 339.393Q125.657 337.399 125.848 335.408C126.768 325.917 130.342 317.535 137.874 311.426C147.551 303.578 159.58 301.407 171.715 302.569Z"/>
	<path fill="#6B89CF" d="M171.715 302.569C173.237 293.675 176.699 286.244 183.496 280.141C189.733 274.543 199.482 269.742 208.03 270.259L208.954 270.368C215.605 271.099 221.932 269.77 228.554 271.752C241.746 275.699 253.188 286.394 263.754 294.843C268.031 298.262 272.522 301.489 276.677 305.05C280.134 308.011 283.361 311.542 287.025 314.217C288.078 314.986 289.011 315.288 290.281 315.51L171.146 315.508C171.179 311.172 171.38 306.892 171.715 302.569Z"/>
	<path fill="#054B15" d="M171.891 525.531C171.879 525.446 171.866 525.362 171.855 525.277C170.866 517.406 164.531 505.303 162.143 496.888C154.837 471.137 157.76 444.505 170.889 421.095C187.526 391.428 216.895 371.616 249.162 362.532C259.637 393.421 262.551 427.685 250.855 458.726C237.658 493.749 211.443 507.374 179.604 521.896C183.149 511.116 188.007 500.711 192.486 490.29L213.008 442.306C216.595 433.784 221.203 424.913 223.527 415.997C218.019 424.143 213.729 433.226 209.323 441.996C199.668 461.219 190.992 480.712 182.483 500.471C180.365 505.388 175.21 522.988 171.891 525.531Z"/>
	<path d="M494.028 320.807C490.047 318.431 486.934 315.999 485.766 311.24C484.085 304.395 486.957 296.014 490.618 290.218C496.748 280.516 510.929 268.784 522.173 266.321C535.374 263.429 551.153 266.299 562.471 273.678C571.899 279.825 579.956 288.969 582.271 300.217C583.123 304.358 582.975 308.5 582.906 312.702C599.348 314.148 613.986 319.895 624.807 332.894Q625.522 333.763 626.202 334.661Q626.882 335.558 627.526 336.481Q628.169 337.405 628.775 338.353Q629.381 339.302 629.949 340.274Q630.517 341.246 631.046 342.24Q631.574 343.234 632.063 344.248Q632.551 345.262 632.999 346.295Q633.446 347.328 633.852 348.378Q634.258 349.428 634.622 350.493Q634.986 351.558 635.307 352.637Q635.628 353.716 635.906 354.807Q636.183 355.898 636.417 356.999Q636.651 358.101 636.841 359.21Q637.03 360.32 637.176 361.436Q637.321 362.552 637.422 363.674Q637.522 364.795 637.578 365.919L637.65 373.976C626.425 370.038 615.28 368.192 603.505 366.98C595.51 365.602 587.747 364.186 582.634 357.155C581.17 355.142 580.018 352.857 578.833 350.672C577.014 361.741 571.736 372.505 562.406 379.129C555.527 384.013 547.502 385.815 539.22 386.456C531.835 386.011 523.396 384.651 518.002 379.121L519.719 377.939C517.034 375.911 514.368 373.946 512.001 371.538C498.747 358.053 493.95 339.262 494.028 320.807Z"/>
	<path fill="white" d="M494.028 320.807C513.101 327.681 542.875 329.927 561.75 321.067C567.333 318.446 571.641 313.872 577.446 311.595C581.444 312.964 584.701 314.659 586.705 318.623C588.277 321.734 588.308 325.489 587.161 328.742C585.583 333.221 582.668 335.732 578.771 338.123C578.788 340.352 578.689 342.312 578.177 344.487L577.923 344.705L577.532 342.851C572.138 346.314 576.632 372.889 549.188 380.599Q547.962 380.95 546.717 381.226Q545.471 381.502 544.212 381.701Q542.952 381.901 541.683 382.023Q540.413 382.145 539.138 382.19Q537.864 382.235 536.589 382.202Q535.314 382.169 534.043 382.058Q532.773 381.948 531.511 381.76Q530.25 381.572 529.002 381.308C525.845 380.629 522.551 379.491 519.719 377.939C517.034 375.911 514.368 373.946 512.001 371.538C498.747 358.053 493.95 339.262 494.028 320.807Z"/>
	<path d="M539.421 335.972C541.004 336.309 542.502 336.607 543.51 338.011C544.35 339.181 544.149 339.87 543.998 341.197C543.165 342.683 542.308 343.054 540.842 343.747C539.306 343.433 537.888 342.916 537.033 341.513C536.402 340.477 536.269 339.468 536.658 338.305C537.1 336.988 538.286 336.55 539.421 335.972Z"/>
	<path d="M510.349 339.781C511.809 340.217 512.966 340.54 513.982 341.787C514.819 342.815 515.184 343.923 514.977 345.242C514.738 346.767 513.876 347.417 512.783 348.351C511.398 348.097 509.858 347.819 508.84 346.744C508.262 346.134 507.874 345.367 507.841 344.532C507.754 342.382 508.917 341.174 510.349 339.781Z"/>
	<path d="M521.674 350.184C522.153 350.368 522.623 350.694 523.069 350.951C523.998 354.23 521.467 357.743 522.247 360.867C523.299 365.077 531.528 361.711 534.322 363.336L534.318 364.893C531.429 365.399 527.439 365.944 524.606 365.139C522.78 364.62 521.419 363.757 520.552 361.997C519.096 359.04 520.708 353.166 521.674 350.184Z"/>
	<path d="M572.849 320.061C574.401 319.972 576.001 319.829 577.287 320.895C577.963 321.457 578.402 322.133 578.544 322.99C578.836 324.764 578.133 326.151 577.126 327.556C575.292 330.115 572.477 330.75 569.523 331.175C565.922 329.265 564.407 327.518 562.654 323.823C566.084 322.667 569.462 321.335 572.849 320.061Z"/>
	<path fill="white" d="M871.999 441.846C876.837 439.367 881.544 436.185 886.202 433.366C901.058 424.374 915.42 414.673 930.228 405.62C937.491 428.901 937.066 451.307 925.588 473.243Q925.115 474.159 924.62 475.062Q924.125 475.966 923.607 476.856Q923.089 477.747 922.549 478.625Q922.009 479.502 921.447 480.366Q920.885 481.229 920.301 482.078Q919.718 482.928 919.113 483.762Q918.508 484.596 917.883 485.415Q917.257 486.234 916.611 487.036Q915.965 487.839 915.299 488.626Q914.634 489.412 913.948 490.181Q913.263 490.951 912.558 491.702Q911.854 492.454 911.13 493.188Q910.407 493.922 909.666 494.638Q908.924 495.353 908.165 496.05Q907.406 496.747 906.63 497.424Q905.853 498.101 905.06 498.759Q904.267 499.416 903.457 500.054Q902.648 500.691 901.823 501.308Q900.997 501.925 900.157 502.521Q899.316 503.117 898.461 503.692Q897.606 504.267 896.736 504.82Q895.867 505.373 894.984 505.904Q894.101 506.435 893.205 506.943Q892.309 507.452 891.4 507.938Q890.491 508.424 889.571 508.887Q888.65 509.349 887.719 509.789Q886.787 510.229 885.844 510.645Q884.901 511.061 883.949 511.453Q882.996 511.845 882.034 512.214Q881.071 512.582 880.1 512.926Q879.129 513.27 878.149 513.589Q877.169 513.908 876.182 514.203C855.51 520.487 833.269 517.659 814.32 507.501C794.84 497.058 781.747 480.799 775.424 459.62C771.246 445.624 771.31 430.908 774.601 416.729C775.274 413.235 776.317 409.657 777.954 406.492Q795.769 418.706 814.145 430.059C819.361 433.318 824.594 436.999 830.021 439.857C837.017 445.24 845.017 449.423 852.298 454.466C858.169 451.114 867.044 446.2 871.999 441.846Z"/>
	<path fill="#039" d="M208.03 270.259C208.437 253.377 212.888 239.183 225.335 227.241Q226.335 226.275 227.382 225.36Q228.43 224.445 229.521 223.584Q230.613 222.723 231.747 221.918Q232.881 221.113 234.054 220.366Q235.227 219.619 236.436 218.932Q237.645 218.244 238.887 217.619Q240.129 216.993 241.401 216.431Q242.673 215.869 243.971 215.371Q245.27 214.874 246.592 214.442Q247.913 214.01 249.255 213.646Q250.597 213.281 251.956 212.984Q253.314 212.687 254.686 212.459Q256.058 212.231 257.439 212.072Q258.821 211.913 260.209 211.824Q261.596 211.735 262.987 211.716Q264.377 211.696 265.767 211.747Q267.175 211.776 268.579 211.876Q269.983 211.976 271.381 212.146Q272.778 212.316 274.166 212.557Q275.553 212.798 276.926 213.108Q278.299 213.418 279.655 213.797Q281.011 214.176 282.346 214.622Q283.682 215.069 284.993 215.582Q286.304 216.096 287.587 216.674Q288.87 217.253 290.123 217.896Q291.376 218.538 292.595 219.243Q293.813 219.948 294.995 220.713Q296.177 221.479 297.318 222.303Q298.46 223.127 299.559 224.007Q300.657 224.887 301.71 225.822Q302.763 226.756 303.768 227.743Q304.772 228.729 305.726 229.765C316.621 241.497 320.944 254.891 324.949 270.007C333.489 262.97 344.683 259.214 355.761 260.311C366.791 261.403 377.429 266.844 384.37 275.552C391.048 283.929 394.616 295.791 393.315 306.46C392.663 311.805 390.653 317.894 386.116 321.16C378.715 326.486 358.11 323.683 348.649 323.999C347.891 322.969 347.015 322.054 346.105 321.157C343.376 318.465 339.904 316.767 336.156 315.995C330.413 314.812 323.892 315.382 318.035 315.402L290.281 315.51C289.011 315.288 288.078 314.986 287.025 314.217C283.361 311.542 280.134 308.011 276.677 305.05C272.522 301.489 268.031 298.262 263.754 294.843C253.188 286.394 241.746 275.699 228.554 271.752C221.932 269.77 215.605 271.099 208.954 270.368L208.03 270.259Z"/>
	<path d="M303.866 242.856Q304.197 243.302 304.491 243.773C306.546 247.003 307.637 251.745 308.502 255.451C312.18 271.198 312.451 286.32 308.599 302.041C308.439 302.51 308.579 302.223 307.983 302.773C306.721 299.564 308.983 283.205 308.921 278.329C308.77 266.41 306.484 254.448 303.866 242.856Z"/>
	<path fill="#FC0" d="M730.01 643.291C736.257 641.488 741.624 641.724 747.502 644.837C753.91 648.229 758.055 654.467 760.019 661.306C760.945 664.531 763.248 671.931 762.095 674.922C765.664 675.891 769.023 678.103 770.854 681.432C770.943 681.594 770.998 681.774 771.069 681.945L771.367 681.926C778.724 682.491 788.718 681.922 793.989 688.054C795.413 689.711 795.795 691.562 795.537 693.676C794.828 699.48 789.064 711.156 793.502 716.221C798.774 722.236 812.531 718.395 812.388 729.765C812.338 733.788 807.757 742.278 808.626 744.803C811.518 746.324 814.76 746.608 817.745 747.89C820.352 748.778 822.633 750.635 823.857 753.133C825.502 756.49 826.169 760.55 824.844 764.118C824.01 766.364 822.522 768.225 821.04 770.072C813.672 779.259 813.289 780.486 817.553 791.541L800.107 791.514L797.18 791.523C786.983 791.339 776.627 792.263 766.537 790.489C763.004 790.156 756.827 788.89 753.761 791.243C752.951 791.865 752.442 792.55 752.313 793.6C751.79 797.87 759.692 804.465 762.566 807.386C758.977 808.832 717.287 808.969 713.002 808.069L712.423 807.067C710.371 799.878 709.12 792.256 707.453 784.947C704.233 770.825 700.692 756.753 698.767 742.382C700.037 742.397 701.087 742.276 702.323 742.038C704.65 739.795 705.757 723.986 706.59 719.881L706.712 719.3C709.939 709.311 706.459 697.618 709.237 687.327C712.44 684.2 715.338 680.726 718.304 677.375C724.586 666.624 728.959 655.744 730.01 643.291Z"/>
	<path fill="white" d="M762.095 674.922C765.664 675.891 769.023 678.103 770.854 681.432C770.943 681.594 770.998 681.774 771.069 681.945C768.189 681.91 764.581 682.462 762.36 680.352C761.503 678.675 761.922 676.735 762.095 674.922Z"/>
	<path fill="#D5CB5D" d="M768.175 767.549C770.693 768.723 773.522 770.05 774.498 772.865C775.404 775.48 774.147 778.172 772.97 780.497C772.643 781.143 772.577 781.22 772.233 781.746C769.386 778.54 769.597 771.768 768.175 767.549Z"/>
	<path d="M732.126 661.031C740.028 668.234 746.456 676.926 752.752 685.521C775.177 716.133 795.049 753.385 800.107 791.514L797.18 791.523C791.159 751.069 773.73 718.205 750.461 685.101C744.938 677.243 736.822 668.681 732.126 661.031Z"/>
	<path fill="white" d="M718.304 677.375C720.438 679.573 721.801 681.518 722.922 684.356C720.242 689.528 717.643 694.768 719.445 700.748C720.722 704.987 723.976 708.038 727.875 709.945C739.073 715.424 752.25 713.366 764.239 714.331C763.562 718.454 762.956 722.697 761.435 726.615C752.832 731.164 738.352 734.648 735.094 744.775C734.127 747.782 734.021 751.03 735.516 753.888C737.883 758.41 743.114 761.376 747.868 762.709C754.554 764.584 762.488 762.933 768.175 767.549C769.597 771.768 769.386 778.54 772.233 781.746C770.342 784.485 767.855 787.457 766.537 790.489C763.004 790.156 756.827 788.89 753.761 791.243C752.951 791.865 752.442 792.55 752.313 793.6C751.79 797.87 759.692 804.465 762.566 807.386C758.977 808.832 717.287 808.969 713.002 808.069L712.423 807.067C710.371 799.878 709.12 792.256 707.453 784.947C704.233 770.825 700.692 756.753 698.767 742.382C700.037 742.397 701.087 742.276 702.323 742.038C704.65 739.795 705.757 723.986 706.59 719.881L706.712 719.3C709.939 709.311 706.459 697.618 709.237 687.327C712.44 684.2 715.338 680.726 718.304 677.375Z"/>
	<path fill="#FC0" d="M289.824 427.191C331.001 392.452 370.045 355.25 410.609 319.815C424.023 308.097 437.115 295.68 451.247 284.837C448.3 295.485 447.404 307.604 445.736 318.588L436.589 376.076C433.131 397.97 429.188 419.736 425.924 441.673C424.567 450.793 422.366 460.83 422.449 470.046C418.637 470.116 414.504 469.868 410.743 470.425Q381.207 470.665 351.669 470.563L350.07 470.395C345.339 468.446 336.604 460.935 332.165 457.658L328.002 454.387C325.665 452.421 323.106 450.634 320.674 448.78C310.535 441.547 300.463 433.65 289.824 427.191Z"/>
	<path fill="#CA9706" d="M320.674 448.78L430.146 313.274C432.061 310.911 447.599 290.228 448.297 290.037C447.731 292.986 441.256 304.251 439.62 307.596C434.75 317.549 430.122 327.623 425.015 337.458C414.459 357.783 403.113 377.79 392.251 397.958C379.123 422.331 366.342 447.065 351.669 470.563L350.07 470.395C345.339 468.446 336.604 460.935 332.165 457.658L328.002 454.387C325.665 452.421 323.106 450.634 320.674 448.78Z"/>
	<path fill="#054B15" d="M44.4589 488.338L51.6189 489.265C92.0007 494.627 129.244 513.23 154.313 546.125C159.762 553.276 165.043 561.061 169.019 569.139C169.728 570.579 170.35 572.593 171.52 573.684C172.426 577.031 171.902 599.267 171.946 604.311C165.837 594.851 158.196 585.412 150.2 577.485C140.462 567.832 107.771 542.752 94.9408 539.734C102.75 544.957 110.752 550.052 118.22 555.756C138.397 571.168 157.795 590.991 171.655 612.326C172.01 616.367 172.113 620.732 171.602 624.755C171.397 648.671 172.223 672.627 171.491 696.533C167.531 691.116 164.3 685.062 160.497 679.508C142.295 652.924 109.037 636.55 78.0427 630.845C79.2036 627.258 59.951 577.129 59.427 565.408C47.28 537.231 44.1778 518.686 44.4589 488.338Z"/>
	<path fill="#D5CB5D" d="M59.427 565.408C62.4806 570.378 65.2929 575.665 68.7964 580.331C81.4505 597.183 100.641 608.55 120.938 613.402C137.759 617.423 154.353 617.906 171.532 617.26L171.602 624.755C171.397 648.671 172.223 672.627 171.491 696.533C167.531 691.116 164.3 685.062 160.497 679.508C142.295 652.924 109.037 636.55 78.0427 630.845C79.2036 627.258 59.951 577.129 59.427 565.408Z"/>
	<path fill="#477B2F" d="M866.592 628.208C870.01 613.566 872.449 581.993 885.384 573.721C890.736 570.298 897.574 570.054 903.605 571.504C910.532 573.17 916.719 576.908 920.509 583.097C924.958 590.362 924.792 599.303 922.678 607.291C918.534 622.948 905.079 645.645 896.248 659.449C905.353 657.524 916.359 655.65 924.607 661.278C926.69 662.7 927.962 664.56 929.239 666.684C931.267 671.428 930.496 674.854 928.663 679.493C914.887 714.357 891.919 744.627 870.106 774.704C866.087 780.247 861.7 785.595 857.844 791.241C850.715 791.321 843.575 791.273 836.449 791.426L832.743 791.56Q825.148 791.729 817.553 791.541C813.289 780.486 813.672 779.259 821.04 770.072C822.522 768.225 824.01 766.364 824.844 764.118C826.169 760.55 825.502 756.49 823.857 753.133C822.633 750.635 820.352 748.778 817.745 747.89C816.354 743.418 816.237 738.434 815.987 733.79L816.743 736.567C817.789 736.287 817.861 735.849 818.507 735.018C819.696 734.672 820.927 733.725 822.101 733.219C825.754 731.645 828.74 731.425 832.642 731.413C829.584 720.828 817.363 699.68 819.209 689.72C819.689 687.131 821.088 684.935 823.34 683.543C829.306 679.855 837.589 682.418 843.854 683.94C840.031 668.346 833.294 653.688 829.56 638.19C828.038 631.877 827.088 624.208 830.792 618.461C833.448 614.34 837.022 613.172 841.553 612.249C852.148 614.818 858.729 621.043 866.592 628.208Z"/>
	<path d="M926.135 671.007L926.855 671.169L927.246 671.951C925.546 674.007 882.19 694.077 876.577 696.525L875.466 696.406L875.163 695.665C878.204 691.831 919.629 672.695 926.135 671.007Z"/>
	<path d="M836.849 623.279C837.217 623.398 837.62 623.497 837.949 623.716C840.822 625.627 865.197 670.382 866.441 674.774C865.054 674.974 864.931 675.131 863.759 674.41C859.823 667.166 836.817 628.382 836.849 623.279Z"/>
	<path fill="#D5CB5D" d="M912.323 697.029L912.577 697.163C912.511 697.596 912.515 697.747 912.295 698.191C910.841 701.13 907.66 704.46 905.654 707.151C895.929 720.2 895.515 719.776 880.223 724.611L879.989 724.433L879.984 723.778C890.033 713.864 900.562 704.857 912.323 697.029Z"/>
	<path d="M832.743 791.56C834.17 785.139 836.457 778.787 838.46 772.521C843.697 756.13 849.718 739.985 855.251 723.691L886.378 633.438C890.34 622.186 893.837 610.705 898.068 599.557C899.216 596.532 900.75 590.855 902.976 588.628L903.771 588.786C904.291 590.372 903.785 591.989 903.313 593.534C901.437 599.679 898.986 605.67 896.904 611.749L880.566 658.46L853.939 735.783C850.547 745.428 836.397 783.766 836.449 791.426L832.743 791.56Z"/>
	<path fill="#039" d="M823.798 222.194L850.333 222.083Q850.236 228.564 850.246 235.045C856.2 234.929 861.655 234.548 867.398 236.495C868.677 244.12 868.083 252.552 868.152 260.288Q868.516 285.814 868.092 311.34L868.01 336.739C868 340.815 868.275 345.094 867.896 349.133C888.348 353.098 906.247 364.076 918.074 381.463C918.84 382.59 919.775 383.873 920.25 385.145C924.205 391.095 928.636 398.591 930.228 405.62C915.42 414.673 901.058 424.374 886.202 433.366C881.544 436.185 876.837 439.367 871.999 441.846C867.044 446.2 858.169 451.114 852.298 454.466C845.017 449.423 837.017 445.24 830.021 439.857C824.594 436.999 819.361 433.318 814.145 430.059Q795.769 418.706 777.954 406.492C773.345 404.915 765.669 405.935 760.74 405.974L711.508 405.642L711.542 222.458Q724.378 222.475 737.21 222.81C737.981 227.616 737.629 233.401 737.121 238.255L737.104 230.497L720.275 230.497C720.872 270.023 720.15 309.611 720.196 349.147C720.215 364.685 719.744 380.418 720.476 395.928L781.782 395.97C784.812 390.282 788.035 385.033 791.972 379.929C794.887 376.645 797.743 373.517 801.049 370.616C807.397 364.779 814.41 360.36 821.922 356.21L826.232 354.58C831.483 352.588 836.959 351.355 842.181 349.222L841.579 230.124C835.522 230.034 829.456 230.083 823.398 230.069C823.455 227.433 823.606 224.823 823.798 222.194Z"/>
	<path fill="#000D44" d="M900.784 396.243C900.016 398.918 898.463 401.477 897.15 403.932C893.757 410.272 889.616 416.126 885.304 421.866C880.594 428.135 874.872 434.488 871.999 441.846C867.044 446.2 858.169 451.114 852.298 454.466C845.017 449.423 837.017 445.24 830.021 439.857C828.817 435.582 822.467 429.239 819.76 425.316C814.519 417.721 809.528 408.665 806.883 399.809C822.905 410.053 838.316 422.494 853.089 434.464C861.813 426.072 871.505 418.672 881.06 411.258C887.571 406.206 894.025 400.96 900.784 396.243Z"/>
	<path fill="#9ACA3C" d="M850.246 235.045C856.2 234.929 861.655 234.548 867.398 236.495C868.677 244.12 868.083 252.552 868.152 260.288Q868.516 285.814 868.092 311.34L868.01 336.739C868 340.815 868.275 345.094 867.896 349.133C862.225 348.047 856.293 348.324 850.542 348.384L850.246 235.045Z"/>
	<path fill="white" d="M823.398 230.069C829.456 230.083 835.522 230.034 841.579 230.124L842.181 349.222C836.959 351.355 831.483 352.588 826.232 354.58L821.922 356.21C814.41 360.36 807.397 364.779 801.049 370.616C797.743 373.517 794.887 376.645 791.972 379.929C788.035 385.033 784.812 390.282 781.782 395.97L720.476 395.928C719.744 380.418 720.215 364.685 720.196 349.147C720.15 309.611 720.872 270.023 720.275 230.497L737.104 230.497L737.121 238.255L737.012 244.55L823.099 244.535C823.092 239.712 823.003 234.879 823.398 230.069Z"/>
	<path fill="#FC0" d="M734.49 370.605C749.701 370.222 764.986 370.525 780.206 370.472C785.46 370.454 796.646 369.409 801.049 370.616C797.743 373.517 794.887 376.645 791.972 379.929C785.149 378.963 777.621 379.554 770.719 379.584L734.247 379.641C734.134 376.63 734.349 373.613 734.49 370.605Z"/>
	<path fill="#FC0" d="M734.027 347.375L787.088 347.464C800.052 347.465 813.099 347.732 826.049 347.193C826.212 349.657 826.222 352.112 826.232 354.58L821.922 356.21C812.809 355.379 803.112 355.984 793.95 356.006C773.995 356.053 754.011 356.342 734.062 356.001L734.027 347.375Z"/>
	<path fill="#FC0" d="M733.905 323.943C764.772 324.284 795.696 324.052 826.566 323.909L826.588 332.829C795.786 331.945 764.814 332.539 733.997 332.555L733.905 323.943Z"/>
	<path fill="#FC0" d="M734.146 300.963Q780.189 300.808 826.229 301.387C826.233 304.184 826.426 307.088 825.856 309.835Q779.933 309.567 734.01 309.909L734.146 300.963Z"/>
	<path fill="#FC0" d="M734.288 257.43Q780.527 257.661 826.766 257.42L826.689 266.32L734.172 266.07L734.288 257.43Z"/>
	<path fill="#FC0" d="M734.641 278.215C765.224 279.081 796.06 278.31 826.66 278.043L826.473 287.236C812.576 286.603 798.418 287.128 784.498 287.125C767.823 287.122 751.033 286.683 734.38 287.319C734.388 284.272 734.445 281.257 734.641 278.215Z"/>
	<path fill="#FC0" d="M295.303 107.315C297.317 96.8476 300.84 87.0496 306.236 77.8337C317.506 58.5831 335.567 44.2271 357.257 38.6008C378.1 33.1941 402.306 35.2688 420.722 47.0851C426.606 50.8604 431.476 56.1446 437.527 59.6447C437.712 59.7517 437.9 59.8534 438.086 59.9578C455.977 80.4398 465.355 104.96 463.612 132.357Q463.545 133.381 463.453 134.403Q463.361 135.425 463.243 136.444Q463.125 137.464 462.982 138.48Q462.839 139.496 462.671 140.509Q462.503 141.521 462.31 142.529Q462.117 143.536 461.898 144.539Q461.68 145.542 461.437 146.539Q461.194 147.536 460.926 148.526Q460.658 149.517 460.366 150.501Q460.073 151.484 459.756 152.46Q459.44 153.436 459.099 154.404Q458.758 155.372 458.393 156.331Q458.028 157.29 457.639 158.24Q457.251 159.19 456.839 160.13Q456.427 161.069 455.991 161.999Q455.556 162.928 455.097 163.846Q454.639 164.764 454.158 165.671Q453.677 166.577 453.174 167.471Q452.67 168.366 452.145 169.247Q451.619 170.128 451.072 170.997Q450.525 171.865 449.956 172.719Q449.388 173.573 448.798 174.413Q448.208 175.253 447.598 176.078Q446.987 176.902 446.357 177.712Q445.726 178.521 445.075 179.315Q444.425 180.108 443.754 180.886Q443.084 181.663 442.395 182.423Q441.706 183.183 440.998 183.926Q440.29 184.669 439.563 185.394Q438.837 186.119 438.093 186.825Q437.349 187.532 436.588 188.22Q435.826 188.908 435.048 189.577C418.859 203.67 397.094 211.43 375.629 209.85Q373.985 209.722 372.347 209.534Q370.708 209.346 369.078 209.098Q367.448 208.85 365.827 208.543Q364.207 208.236 362.599 207.869Q360.992 207.503 359.398 207.078Q357.805 206.653 356.228 206.17Q354.651 205.687 353.093 205.147Q351.535 204.607 349.998 204.01Q348.46 203.414 346.946 202.761Q345.432 202.108 343.942 201.401Q342.452 200.693 340.99 199.932Q339.527 199.17 338.093 198.356Q336.659 197.541 335.256 196.675Q333.853 195.808 332.483 194.891Q331.112 193.974 329.776 193.007Q328.44 192.041 327.14 191.026C318.854 183.476 311.197 176.034 305.476 166.287C297.357 152.454 293.627 138.52 293.772 122.538C293.818 117.488 294.013 112.225 295.303 107.315Z"/>
	<path fill="white" d="M355.684 60.6735C360.517 61.0647 365.244 70.2266 368.811 73.5027C374.509 78.7353 379.478 78.6891 386.777 78.4025C392.812 74.8417 401.594 62.4573 404.978 61.3818C406.372 60.9386 406.597 61.1037 407.797 61.7529C411.119 66.2801 409.173 75.7753 409.087 81.2687C409.006 86.3581 409.071 89.7198 412.91 93.4983C420.228 100.702 425.849 98.3485 434.959 98.2216C437.467 98.1867 439.615 98.4141 441.491 100.204C443.346 106.362 427.324 113.704 425.413 124.37C423.315 136.078 435.895 140.785 441.098 148.702C442.048 150.149 442.461 151.764 442.045 153.464C440.502 159.766 421.481 152.434 412.701 158.551C403.331 165.08 411.191 178.666 408.973 186.215C408.363 188.292 407.019 188.948 405.245 189.88C396.976 184.182 393.189 173.841 381.62 173.213C370.18 172.593 367.202 182.615 360.013 188.59C358.705 189.677 357.881 189.801 356.221 189.679C352.685 187.24 355.194 170.18 352.815 164.153C346.225 147.461 328.466 160.3 320.617 156.563C316.271 151.178 333.99 138.075 334.996 129.893C336.575 117.046 318.632 108.519 318.512 99.3812C321.919 95.2597 341.065 100.784 349.262 93.2198C355.925 87.0711 352.478 74.7158 352.706 66.7732C352.79 63.859 353.606 62.6506 355.684 60.6735Z"/>
	<path fill="#FC0" d="M378.238 87.6942C386.766 86.9089 396.581 90.3079 403.105 95.7544C410.465 101.9 415.801 110.83 416.537 120.488C417.316 130.71 414.727 140.609 407.864 148.389C401.214 155.926 392.243 159.822 382.323 160.477C372.959 160.688 364.615 158.979 357.095 153.094C349.407 147.077 343.962 137.779 342.902 128.029C341.847 118.331 345.48 107.743 351.645 100.27C358.535 91.9192 367.756 88.703 378.238 87.6942Z"/>
	<path fill="#6B89CF" d="M332.165 457.658C336.604 460.935 345.339 468.446 350.07 470.395L351.669 470.563Q381.207 470.665 410.743 470.425C426.332 470.848 441.984 470.337 457.586 470.428C465.831 470.414 474.118 470.233 482.357 470.525C484.691 471.292 485.659 472.133 486.804 474.305C489.874 480.129 496.842 507.378 499.845 509.633C499.34 511.956 502.98 522.145 503.787 524.817L504.302 524.861L506.372 522.056C508.2 526.427 506.247 532.75 507.484 537.67C508.898 543.297 511.154 548.82 513.103 554.281L520.95 576.949C529.707 576.132 545.175 574.117 553.362 571.806C566.622 568.063 568.584 562.539 584.344 562.476L592.782 562.519L592.907 602.025L602.11 601.955L633.923 601.657C639.633 601.601 645.68 601.127 651.356 601.738C653.598 601.98 655.491 602.464 657.513 603.447L659.842 603.536C662.21 608.498 668.671 608.953 672.797 614.635C674.294 614.758 675.116 614.837 676.229 615.993C677.337 617.145 677.86 618.984 677.614 620.545C677.36 622.158 676.509 623.543 675.158 624.473C668.904 628.772 627.086 627.51 617.624 627.521C613.282 627.526 607.972 626.995 603.73 627.924C596.135 626.758 585.843 627.847 577.92 627.778Q537.094 627.593 496.269 627.894C487.739 626.436 471.68 627.419 462.333 627.425C444.01 627.437 425.315 626.718 407.034 627.69C399.412 627.401 391.578 627.901 383.93 627.933L334.484 627.905L320.354 627.922L304.675 627.932L304.72 615.504C327.089 615.797 349.439 614.914 371.801 614.91C368.357 614.591 364.824 614.553 361.409 614.035C354.1 612.928 350.972 609.085 346.89 603.44C345.585 601.914 344.828 599.974 344.223 598.084C340.561 586.642 337.925 574.682 334.83 563.061C327.408 535.185 320.077 506.843 310.737 479.549C310.131 477.36 309.724 475.094 309.245 472.871C309.393 472.631 309.509 472.366 309.689 472.149C310.344 471.363 311.412 471.278 312.345 471.175C313.187 471.082 313.913 471.005 314.746 470.804C314.963 470.752 315.177 470.687 315.393 470.629L318.603 470.537C323.475 466.944 327.388 461.579 332.165 457.658Z"/>
	<path fill="#D5CB5D" d="M332.165 457.658C336.604 460.935 345.339 468.446 350.07 470.395C339.643 470.848 329.042 470.553 318.603 470.537C323.475 466.944 327.388 461.579 332.165 457.658Z"/>
	<path fill="#039" d="M414.009 525.581C416.938 525.439 419.811 525.711 422.517 526.92Q423.333 527.283 424.108 527.727Q424.884 528.17 425.61 528.69Q426.337 529.209 427.008 529.799Q427.678 530.389 428.286 531.044Q428.893 531.699 429.432 532.412Q429.97 533.125 430.434 533.888Q430.897 534.651 431.282 535.458Q431.666 536.264 431.967 537.105C433.412 541.153 433.358 545.906 431.443 549.795C429.454 553.837 426.557 555.676 422.434 557.154C418.196 557.373 414.537 556.921 410.841 554.698Q410.084 554.236 409.377 553.701Q408.669 553.166 408.019 552.563Q407.369 551.96 406.783 551.295Q406.196 550.629 405.679 549.909Q405.162 549.188 404.72 548.42Q404.278 547.651 403.915 546.842Q403.552 546.033 403.271 545.191Q402.991 544.35 402.796 543.485C401.862 539.448 402.065 534.888 404.429 531.356C406.768 527.863 410.056 526.481 414.009 525.581Z"/>
	<path fill="#039" d="M482.357 470.525C484.691 471.292 485.659 472.133 486.804 474.305C489.874 480.129 496.842 507.378 499.845 509.633C499.34 511.956 502.98 522.145 503.787 524.817L504.302 524.861L506.372 522.056C508.2 526.427 506.247 532.75 507.484 537.67C508.898 543.297 511.154 548.82 513.103 554.281L520.95 576.949C529.707 576.132 545.175 574.117 553.362 571.806C566.622 568.063 568.584 562.539 584.344 562.476L592.782 562.519L592.907 602.025L602.11 601.955L633.923 601.657C639.633 601.601 645.68 601.127 651.356 601.738C653.598 601.98 655.491 602.464 657.513 603.447L659.842 603.536C662.21 608.498 668.671 608.953 672.797 614.635C674.294 614.758 675.116 614.837 676.229 615.993C677.337 617.145 677.86 618.984 677.614 620.545C677.36 622.158 676.509 623.543 675.158 624.473C668.904 628.772 627.086 627.51 617.624 627.521C613.282 627.526 607.972 626.995 603.73 627.924C596.135 626.758 585.843 627.847 577.92 627.778Q537.094 627.593 496.269 627.894C487.739 626.436 471.68 627.419 462.333 627.425C444.01 627.437 425.315 626.718 407.034 627.69C399.412 627.401 391.578 627.901 383.93 627.933L334.484 627.905L320.354 627.922L304.675 627.932L304.72 615.504C327.089 615.797 349.439 614.914 371.801 614.91C368.357 614.591 364.824 614.553 361.409 614.035C354.1 612.928 350.972 609.085 346.89 603.44Q435.615 602.817 524.34 603.482C522.698 595.952 520.073 588.687 517.641 581.387Q512.033 564.598 506.257 547.865C501.785 534.692 497.864 521.311 493.774 508.014C489.933 495.524 485.9 483.105 482.357 470.525Z"/>
	<path d="M526.707 597.327C532.227 597.317 558.325 596.175 560.969 598.195C561.362 599.578 561.533 600.786 561.648 602.221C566.901 602.247 572.189 602.4 577.435 602.103C582.589 602.058 587.753 601.942 592.907 602.025L602.11 601.955L633.923 601.657C639.633 601.601 645.68 601.127 651.356 601.738C653.598 601.98 655.491 602.464 657.513 603.447C657.459 605.148 657.648 606.142 656.727 607.599C649.711 610.465 605.941 608.573 595.69 608.504L527.6 608.097C527.316 604.487 526.535 600.966 526.707 597.327Z"/>
	<path fill="#FC0" d="M584.344 562.476L592.782 562.519L592.907 602.025C587.753 601.942 582.589 602.058 577.435 602.103C572.189 602.4 566.901 602.247 561.648 602.221C561.533 600.786 561.362 599.578 560.969 598.195C558.325 596.175 532.227 597.317 526.707 597.327C526.44 591.997 523.352 585.44 521.813 580.258L520.95 576.949C529.707 576.132 545.175 574.117 553.362 571.806C566.622 568.063 568.584 562.539 584.344 562.476Z"/>
	<path fill="white" d="M521.813 580.258C526.864 580.002 531.87 579.846 536.914 580.326C543.649 580.966 560.404 584.358 566.82 586.573C569.394 587.461 571.989 588.86 574.016 590.69C575.386 591.927 576.46 593.433 577.389 595.017L577.435 602.103C572.189 602.4 566.901 602.247 561.648 602.221C561.533 600.786 561.362 599.578 560.969 598.195C558.325 596.175 532.227 597.317 526.707 597.327C526.44 591.997 523.352 585.44 521.813 580.258Z"/>
	<path fill="#000D44" d="M672.797 614.635C674.294 614.758 675.116 614.837 676.229 615.993C677.337 617.145 677.86 618.984 677.614 620.545C677.36 622.158 676.509 623.543 675.158 624.473C668.904 628.772 627.086 627.51 617.624 627.521C613.282 627.526 607.972 626.995 603.73 627.924C596.135 626.758 585.843 627.847 577.92 627.778Q537.094 627.593 496.269 627.894C487.739 626.436 471.68 627.419 462.333 627.425C444.01 627.437 425.315 626.718 407.034 627.69C399.412 627.401 391.578 627.901 383.93 627.933L334.484 627.905L320.354 627.922L304.675 627.932L304.72 615.504C327.089 615.797 349.439 614.914 371.801 614.91C380.618 616.476 399.361 615.153 408.923 615.056L480.341 614.834C497.697 614.827 515.031 615.289 532.38 615.402Q577.408 615.652 622.434 615.142C638.475 614.968 657.026 616.164 672.797 614.635Z"/>
	<path fill="#477B2F" d="M539.22 386.456C547.502 385.815 555.527 384.013 562.406 379.129C571.736 372.505 577.014 361.741 578.833 350.672C580.018 352.857 581.17 355.142 582.634 357.155C587.747 364.186 595.51 365.602 603.505 366.98C615.28 368.192 626.425 370.038 637.65 373.976L637.578 365.919C638.039 368.677 638.01 371.352 637.993 374.138C670.133 385.444 697.635 411.371 712.286 441.942C717.371 452.553 728.399 482.49 727.39 494.071C726.434 494.541 725.845 494.595 724.785 494.586L722.909 494.509C724.416 524.243 718.687 556.804 698.16 579.519C688.108 590.642 674.19 599.224 659.842 603.536L657.513 603.447C655.491 602.464 653.598 601.98 651.356 601.738C645.68 601.127 639.633 601.601 633.923 601.657L602.11 601.955L592.907 602.025L592.782 562.519L584.344 562.476C568.584 562.539 566.622 568.063 553.362 571.806C545.175 574.117 529.707 576.132 520.95 576.949L513.103 554.281C511.154 548.82 508.898 543.297 507.484 537.67C506.247 532.75 508.2 526.427 506.372 522.056L504.302 524.861L503.787 524.817C502.98 522.145 499.34 511.956 499.845 509.633C496.842 507.378 489.874 480.129 486.804 474.305C485.659 472.133 484.691 471.292 482.357 470.525C474.118 470.233 465.831 470.414 457.586 470.428Q457.865 468.353 458.203 466.286C463.242 435.675 482.171 403.88 507.454 385.624C510.445 383.249 514.549 380.746 518.002 379.121C523.396 384.651 531.835 386.011 539.22 386.456Z"/>
	<path fill="white" d="M507.269 495.476C508.262 498.364 508.643 518.169 507.375 520.736C507.145 521.201 506.72 521.67 506.372 522.056L504.302 524.861L503.787 524.817C502.98 522.145 499.34 511.956 499.845 509.633C501.64 504.581 504.401 499.982 507.269 495.476Z"/>
	<path fill="white" d="M539.22 386.456C547.502 385.815 555.527 384.013 562.406 379.129C571.736 372.505 577.014 361.741 578.833 350.672C580.018 352.857 581.17 355.142 582.634 357.155C587.747 364.186 595.51 365.602 603.505 366.98C603.714 384.306 606.029 401.131 592.806 414.617C585.735 421.828 576.151 426.399 565.978 426.396C558.907 426.394 552.162 424.082 547.081 419.033C540.353 412.346 538.817 403.406 538.963 394.339C539.005 391.724 539.008 389.061 539.22 386.456Z"/>
	<path fill="#054B15" d="M507.454 385.624C508.084 388.639 507.95 491.714 507.269 495.476C504.401 499.982 501.64 504.581 499.845 509.633C496.842 507.378 489.874 480.129 486.804 474.305C485.659 472.133 484.691 471.292 482.357 470.525C474.118 470.233 465.831 470.414 457.586 470.428Q457.865 468.353 458.203 466.286C463.242 435.675 482.171 403.88 507.454 385.624Z"/>
	<path fill="#054B15" d="M637.253 410.186C637.611 417.911 637.41 425.67 637.646 433.402L640.016 494.332C648.497 494.638 657.046 494.477 665.536 494.529C665.578 511.839 665.289 527.658 652.146 540.703C639.17 553.582 619.749 559.557 602.004 561.663L602.11 601.955L592.907 602.025L592.782 562.519L584.344 562.476C594.424 551.343 605.14 544.347 614.314 531.442C634.141 503.549 621.305 495.704 622.773 465.769C623.761 445.633 629.514 428.521 637.253 410.186Z"/>
	<path fill="white" d="M665.536 494.529L722.909 494.509C724.416 524.243 718.687 556.804 698.16 579.519C688.108 590.642 674.19 599.224 659.842 603.536L657.513 603.447C655.491 602.464 653.598 601.98 651.356 601.738C645.68 601.127 639.633 601.601 633.923 601.657L602.11 601.955L602.004 561.663C619.749 559.557 639.17 553.582 652.146 540.703C665.289 527.658 665.578 511.839 665.536 494.529Z"/>
</svg>
